SplineFontDB: 3.2
FontName: binary_horizontal_u5c2
FullName: binary_horizontal_u5c2
FamilyName: binary_horizontal_u5c2
Weight: Book
Copyright: copyright (c) 2021d=7X5h(sevenso Aksti phaiv), heksadesiml@gmail.com, other fonts as :\nDelius_unicase (designed by natalia raices)\n    => u5.\n        => u5c=>u5h=>u5r=>u5p=>u5ch=>u5v\n        => u8c=>u8h=>u8r=>u8p=>u8ch=>u8v\n        => u2c          =>u2ch          =>u2ch\n        => u2zc\n        \nc -> capital case as like program/heks810 symbols\nh -> LJqwXF continuous , ABCDEF-LJqwXF lost\nrf -> j->H, q->A ,  x->T,  w->D\nr -> f-> N , j->H, q->A ,  x->T,  w->D\np -> capital case no programming symbols yes\nv -> phonetik vokl ordr
Version: 1.002
ItalicAngle: 0
UnderlinePosition: -200
UnderlineWidth: 50
Ascent: 800
Descent: 200
InvalidEm: 0
sfntRevision: 0x00010000
LayerCount: 2
Layer: 0 0 "Back" 1
Layer: 1 0 "Fore" 0
XUID: [1021 467 -1121320856 14326544]
StyleMap: 0x0040
FSType: 0
OS2Version: 3
OS2_WeightWidthSlopeOnly: 0
OS2_UseTypoMetrics: 0
CreationTime: 1314993210
ModificationTime: 1625662874
PfmFamily: 17
TTFWeight: 400
TTFWidth: 5
LineGap: 0
VLineGap: 0
Panose: 2 0 6 3 0 0 0 0 0 0
OS2TypoAscent: 1016
OS2TypoAOffset: 0
OS2TypoDescent: -236
OS2TypoDOffset: 0
OS2TypoLinegap: 0
OS2WinAscent: 1016
OS2WinAOffset: 0
OS2WinDescent: 236
OS2WinDOffset: 0
HheadAscent: 1016
HheadAOffset: 0
HheadDescent: -236
HheadDOffset: 0
OS2SubXSize: 700
OS2SubYSize: 650
OS2SubXOff: 0
OS2SubYOff: 140
OS2SupXSize: 700
OS2SupYSize: 650
OS2SupXOff: 0
OS2SupYOff: 477
OS2StrikeYSize: 50
OS2StrikeYPos: 250
OS2CapHeight: 195
OS2XHeight: 320
OS2FamilyClass: 2560
OS2Vendor: 'pyrs'
OS2CodePages: 00000001.00000000
OS2UnicodeRanges: 00000021.00000000.00000000.00000000
Lookup: 258 0 0 "'kern' Horizontal Kerning in Latin lookup 0" { "'kern' Horizontal Kerning in Latin lookup 0 subtable"  } ['kern' ('DFLT' <'dflt' > 'latn' <'dflt' > ) ]
DEI: 91125

StartChar: exclam
Encoding: 33 33 2
Width: 289
Flags: W
LayerCount: 2
Fore
SplineSet
186 95 m 0
 194.666992188 83.6669921875 198.999023438 69.5 198.999023438 52.5 c 0
 198.999023438 35.5 193.33203125 20 181.999023438 6 c 0
 170.666015625 -8 156.999023438 -15 140.999023438 -15 c 0
 124.999023438 -15 112.499023438 -8.8330078125 103.499023438 3.5 c 0
 94.4990234375 15.8330078125 89.9990234375 30.3330078125 89.9990234375 47 c 0
 89.9990234375 63.6669921875 95.4990234375 78.6669921875 106.499023438 92 c 0
 117.499023438 105.333007812 131.33203125 112 147.999023438 112 c 0
 164.666015625 112 177.333007812 106.333007812 186 95 c 0
187.999023438 467 m 1
 188.999023438 266 l 2
 188.999023438 248.666992188 184.999023438 235 176.999023438 225 c 0
 168.999023438 215 157.999023438 210 143.999023438 210 c 0
 129.999023438 210 118.999023438 215 110.999023438 225 c 0
 102.999023438 235 98.9990234375 248.666992188 98.9990234375 266 c 2
 100.999023438 467 l 1
 92.9990234375 695 l 2
 92.9990234375 715 97.4990234375 730.833007812 106.499023438 742.5 c 0
 115.499023438 754.166992188 127.999023438 760 143.999023438 760 c 0
 159.999023438 760 172.499023438 754.166992188 181.499023438 742.5 c 0
 190.499023438 730.833007812 194.999023438 715 194.999023438 695 c 2
 187.999023438 467 l 1
EndSplineSet
EndChar

StartChar: quotedbl
Encoding: 34 34 3
Width: 413
Flags: W
LayerCount: 2
Fore
SplineSet
166 704 m 2
 153.998046875 596 l 2
 152.665039062 567.333007812 149.498046875 547 144.498046875 535 c 0
 139.498046875 523 130.665039062 517 117.998046875 517 c 0
 105.331054688 517 96.498046875 523 91.498046875 535 c 0
 86.498046875 547 83.3310546875 567.333007812 81.998046875 596 c 2
 69.998046875 704 l 2
 69.998046875 721.333007812 74.3310546875 735 82.998046875 745 c 0
 91.6650390625 755 103.33203125 760 117.999023438 760 c 0
 132.666015625 760 144.333007812 755 153 745 c 0
 161.666992188 735 166 721.333007812 166 704 c 2
342.998046875 704 m 2
 330.99609375 596 l 2
 329.663085938 567.333007812 326.49609375 547 321.49609375 535 c 0
 316.49609375 523 307.663085938 517 294.99609375 517 c 0
 282.329101562 517 273.49609375 523 268.49609375 535 c 0
 263.49609375 547 260.329101562 567.333007812 258.99609375 596 c 2
 246.99609375 704 l 2
 246.99609375 721.333007812 251.329101562 735 259.99609375 745 c 0
 268.663085938 755 280.330078125 760 294.997070312 760 c 0
 309.6640625 760 321.331054688 755 329.998046875 745 c 0
 338.665039062 735 342.998046875 721.333007812 342.998046875 704 c 2
EndSplineSet
EndChar

StartChar: numbersign
Encoding: 35 35 4
Width: 858
Flags: W
LayerCount: 2
Fore
SplineSet
361 431 m 1
 341.666992188 339 331 286.666992188 329 274 c 1
 498 274 l 1
 502 290 507.833007812 317.833007812 515.5 357.5 c 0
 523.166992188 397.166992188 528 421.666992188 530 431 c 1
 361 431 l 1
691 196 m 2
 564.000976562 199 l 1
 558.66796875 170.333007812 548.334960938 115.666015625 533.001953125 34.9990234375 c 0
 527.668945312 4.9990234375 512.668945312 -10.0009765625 488.001953125 -10.0009765625 c 0
 476.001953125 -10.0009765625 466.501953125 -6.16796875 459.501953125 1.4990234375 c 0
 452.501953125 9.166015625 449.001953125 17.8330078125 449.001953125 27.5 c 0
 449.001953125 37.1669921875 460.668945312 94.6669921875 484.001953125 200 c 1
 317.001953125 200 l 1
 313.001953125 180 302.668945312 125 286.001953125 35 c 0
 280.668945312 5 265.668945312 -10 241.001953125 -10 c 0
 229.001953125 -10 219.501953125 -6.1669921875 212.501953125 1.5 c 0
 205.501953125 9.1669921875 202.001953125 17 202.001953125 25 c 0
 202.001953125 33 204.168945312 47.5 208.501953125 68.5 c 0
 212.834960938 89.5 217.834960938 113.333007812 223.501953125 140 c 0
 229.168945312 166.666992188 233.001953125 186.666992188 235.001953125 200 c 1
 122.001953125 196 l 2
 82.6689453125 196 63.001953125 210 63.001953125 238 c 0
 63.001953125 264.666992188 82.6689453125 278 122.001953125 278 c 2
 249.001953125 274 l 1
 253.001953125 290 258.834960938 317.666992188 266.501953125 357 c 0
 274.168945312 396.333007812 279.001953125 420.333007812 281.001953125 429 c 1
 167.001953125 427 l 2
 127.668945312 427 108.001953125 440 108.001953125 466 c 0
 108.001953125 493.333007812 127.668945312 507 167.001953125 507 c 2
 296.001953125 504 l 1
 302.001953125 532.666992188 312.334960938 587.333984375 327.001953125 668.000976562 c 0
 332.334960938 698.000976562 347.334960938 713.000976562 372.001953125 713.000976562 c 0
 384.001953125 713.000976562 393.501953125 709.16796875 400.501953125 701.500976562 c 0
 407.501953125 693.833984375 411.001953125 685.000976562 411.001953125 675.000976562 c 0
 411.001953125 665.000976562 399.334960938 607.66796875 376.001953125 503.000976562 c 1
 543.001953125 503.000976562 l 1
 547.001953125 523.000976562 557.334960938 578.000976562 574.001953125 668.000976562 c 0
 579.334960938 698.000976562 594.334960938 713.000976562 619.001953125 713.000976562 c 0
 630.334960938 713.000976562 639.66796875 709.16796875 647.000976562 701.500976562 c 0
 654.333984375 693.833984375 658.000976562 686.000976562 658.000976562 678.000976562 c 0
 658.000976562 670.000976562 655.833984375 655.66796875 651.500976562 635.000976562 c 0
 647.16796875 614.333984375 642.000976562 590.333984375 636.000976562 563.000976562 c 0
 630.000976562 535.66796875 626.000976562 515.66796875 624.000976562 503.000976562 c 1
 736.000976562 507.000976562 l 2
 775.333984375 507.000976562 795.000976562 493.333984375 795.000976562 466.000976562 c 0
 795.000976562 440.000976562 775.333984375 427.000976562 736.000976562 427.000976562 c 0
 721.333984375 427.000976562 679.000976562 428.000976562 609.000976562 430.000976562 c 1
 590.333984375 343.333984375 579.666992188 291.666992188 577 275 c 1
 691 278 l 2
 730.333007812 278 750 264.666992188 750 238 c 0
 750 210 730.333007812 196 691 196 c 2
EndSplineSet
EndChar

StartChar: dollar
Encoding: 36 36 5
Width: 624
Flags: W
LayerCount: 2
Fore
SplineSet
505 64 m 0
 469.666992188 28.6669921875 423.33203125 6.0029296875 365.999023438 -3.9970703125 c 1
 365.999023438 -57.9970703125 350.666015625 -84.9970703125 319.999023438 -84.9970703125 c 0
 289.33203125 -84.9970703125 273.999023438 -58.9970703125 273.999023438 -6.9970703125 c 1
 221.33203125 -2.330078125 173.665039062 13.169921875 130.998046875 39.5029296875 c 0
 88.3310546875 65.8359375 66.998046875 91.0029296875 66.998046875 115.002929688 c 0
 66.998046875 127.002929688 70.998046875 137.002929688 78.998046875 145.002929688 c 0
 86.998046875 153.002929688 96.8310546875 157.002929688 108.498046875 157.002929688 c 0
 120.165039062 157.002929688 131.998046875 153.3359375 143.998046875 146.002929688 c 0
 155.998046875 138.669921875 166.665039062 130.502929688 175.998046875 121.502929688 c 0
 185.331054688 112.502929688 198.998046875 103.669921875 216.998046875 95.0029296875 c 0
 234.998046875 86.3359375 254.665039062 80.6689453125 275.998046875 78.001953125 c 1
 277.998046875 204.001953125 278.998046875 293.001953125 278.998046875 345.001953125 c 1
 225.665039062 374.334960938 186.165039062 399.66796875 160.498046875 421.000976562 c 0
 134.831054688 442.333984375 117.1640625 462.666992188 107.497070312 482 c 0
 97.830078125 501.333007812 92.9970703125 522.333007812 92.9970703125 545 c 0
 92.9970703125 586.333007812 109.830078125 623 143.497070312 655 c 0
 177.1640625 687 220.331054688 707 272.998046875 715 c 1
 272.998046875 773 288.331054688 802 318.998046875 802 c 0
 349.665039062 802 364.998046875 773 364.998046875 715 c 1
 407.665039062 709.666992188 443.83203125 698 473.499023438 680 c 0
 503.166015625 662 517.999023438 642.666992188 517.999023438 622 c 0
 517.999023438 609.333007812 513.999023438 599.333007812 505.999023438 592 c 0
 497.999023438 584.666992188 486.999023438 581 472.999023438 581 c 0
 458.999023438 581 441.33203125 588 419.999023438 602 c 0
 398.666015625 616 379.333007812 625.333007812 362 630 c 1
 360 514 359 437.333007812 359 400 c 1
 389.666992188 383.333007812 414.166992188 369.333007812 432.5 358 c 0
 450.833007812 346.666992188 471 332 493 314 c 0
 536.333007812 278.666992188 558 237 558 189 c 0
 558 141 540.333007812 99.3330078125 505 64 c 0
461.998046875 188.002929688 m 0
 461.998046875 224.669921875 427.666015625 262.3359375 358.999023438 301.002929688 c 1
 358.999023438 299.669921875 360.33203125 227.002929688 362.999023438 83.0029296875 c 1
 392.33203125 91.0029296875 416.165039062 104.002929688 434.498046875 122.002929688 c 0
 452.831054688 140.002929688 461.998046875 162.002929688 461.998046875 188.002929688 c 0
213.499023438 598.001953125 m 0
 197.166015625 582.668945312 188.999023438 565.333984375 188.999023438 546.000976562 c 0
 188.999023438 526.66796875 196.499023438 509.334960938 211.499023438 494.001953125 c 0
 226.499023438 478.668945312 248.999023438 461.668945312 278.999023438 443.001953125 c 1
 276.33203125 563.001953125 274.999023438 625.334960938 274.999023438 630.001953125 c 1
 250.33203125 624.001953125 229.83203125 613.334960938 213.499023438 598.001953125 c 0
EndSplineSet
EndChar

StartChar: percent
Encoding: 37 37 6
Width: 874
Flags: W
LayerCount: 2
Fore
SplineSet
620 700 m 0
 620 666.666992188 600.66796875 629.666992188 562.000976562 589 c 0
 561.333984375 587 544.666992188 539.166992188 512 445.5 c 0
 479.333007812 351.833007812 447 258.666015625 415 165.999023438 c 0
 383 73.33203125 365.666992188 23.9990234375 363 17.9990234375 c 0
 354.333007812 -4.0009765625 339 -15.0009765625 317 -15.0009765625 c 0
 306.333007812 -15.0009765625 297 -11.333984375 289 -4.0009765625 c 0
 281 3.33203125 277 12.9990234375 277 24.9990234375 c 0
 277 36.9990234375 285.333007812 63.33203125 302 103.999023438 c 0
 371.333007812 275.33203125 427 425.665039062 469 554.998046875 c 1
 457 552.998046875 442.833007812 551.998046875 426.5 551.998046875 c 0
 410.166992188 551.998046875 389.333984375 555.998046875 364.000976562 563.998046875 c 1
 365.333984375 553.331054688 366.000976562 544.331054688 366.000976562 536.998046875 c 0
 366.000976562 487.665039062 352.000976562 446.165039062 324.000976562 412.498046875 c 0
 296.000976562 378.831054688 259.333984375 361.998046875 214.000976562 361.998046875 c 0
 168.66796875 361.998046875 132.16796875 378.331054688 104.500976562 410.998046875 c 0
 76.833984375 443.665039062 63.0009765625 485.165039062 63.0009765625 535.498046875 c 0
 63.0009765625 585.831054688 77.333984375 627.998046875 106.000976562 661.998046875 c 0
 134.66796875 695.998046875 171.334960938 712.998046875 216.001953125 712.998046875 c 0
 236.668945312 712.998046875 256.501953125 708.331054688 275.501953125 698.998046875 c 0
 294.501953125 689.665039062 310.001953125 679.33203125 322.001953125 667.999023438 c 0
 355.334960938 638.666015625 387.334960938 623.999023438 418.001953125 623.999023438 c 0
 448.668945312 623.999023438 472.668945312 628.666015625 490.001953125 637.999023438 c 1
 507.334960938 702.666015625 523.334960938 740.666015625 538.001953125 751.999023438 c 0
 545.334960938 757.33203125 555.66796875 759.999023438 569.000976562 759.999023438 c 0
 582.333984375 759.999023438 594.166992188 754.33203125 604.5 742.999023438 c 0
 614.833007812 731.666015625 620 717.333007812 620 700 c 0
267.500976562 462.5 m 0
 279.833984375 481.5 286 506.166992188 286 536.5 c 0
 286 566.833007812 280 591.833007812 268 611.5 c 0
 256 631.166992188 238.666992188 641 216 641 c 0
 193.333007812 641 175.5 631.333007812 162.5 612 c 0
 149.5 592.666992188 143 568 143 538 c 0
 143 508 149.333007812 483.166992188 162 463.5 c 0
 174.666992188 443.833007812 192.333984375 434 215.000976562 434 c 0
 237.66796875 434 255.16796875 443.5 267.500976562 462.5 c 0
770.5 287 m 0
 798.166992188 254.333007812 812 212.831054688 812 162.498046875 c 0
 812 112.165039062 797.666992188 69.998046875 769 35.998046875 c 0
 740.333007812 1.998046875 703.166015625 -15.001953125 657.499023438 -15.001953125 c 0
 611.83203125 -15.001953125 575.165039062 1.3310546875 547.498046875 33.998046875 c 0
 519.831054688 66.6650390625 505.998046875 108.33203125 505.998046875 158.999023438 c 0
 505.998046875 209.666015625 520.331054688 251.833007812 548.998046875 285.5 c 0
 577.665039062 319.166992188 614.83203125 336 660.499023438 336 c 0
 706.166015625 336 742.833007812 319.666992188 770.5 287 c 0
712.5 85.998046875 m 0
 725.5 105.331054688 732 129.998046875 732 159.998046875 c 0
 732 189.998046875 725.666992188 214.831054688 713 234.498046875 c 0
 700.333007812 254.165039062 682.5 263.998046875 659.5 263.998046875 c 0
 636.5 263.998046875 618.5 254.331054688 605.5 234.998046875 c 0
 592.5 215.665039062 586 191.165039062 586 161.498046875 c 0
 586 131.831054688 592.5 106.998046875 605.5 86.998046875 c 0
 618.5 66.998046875 636.333007812 56.998046875 659 56.998046875 c 0
 681.666992188 56.998046875 699.5 66.6650390625 712.5 85.998046875 c 0
EndSplineSet
EndChar

StartChar: ampersand
Encoding: 38 38 7
Width: 835
Flags: W
LayerCount: 2
Fore
SplineSet
455 370 m 2
 537.993164062 368.000976562 l 2
 649.993164062 368.000976562 705.993164062 398.333984375 705.993164062 459.000976562 c 0
 705.993164062 479.66796875 699.826171875 496.66796875 687.493164062 510.000976562 c 0
 675.16015625 523.333984375 661.66015625 532.666992188 646.993164062 538 c 0
 607.66015625 551.333007812 587.993164062 569.666015625 587.993164062 592.999023438 c 0
 587.993164062 604.999023438 591.993164062 614.83203125 599.993164062 622.499023438 c 0
 607.993164062 630.166015625 618.993164062 633.999023438 632.993164062 633.999023438 c 0
 670.993164062 633.999023438 707.993164062 616.166015625 743.993164062 580.499023438 c 0
 779.993164062 544.83203125 797.993164062 504.999023438 797.993164062 460.999023438 c 0
 797.993164062 401.666015625 776.826171875 358.166015625 734.493164062 330.499023438 c 0
 692.16015625 302.83203125 639.66015625 288.33203125 576.993164062 286.999023438 c 1
 588.993164062 258.999023438 594.993164062 230.999023438 594.993164062 202.999023438 c 0
 594.993164062 142.999023438 570.493164062 91.666015625 521.493164062 48.9990234375 c 0
 472.493164062 6.33203125 409.493164062 -15.0009765625 332.493164062 -15.0009765625 c 0
 255.493164062 -15.0009765625 191.16015625 9.166015625 139.493164062 57.4990234375 c 0
 87.826171875 105.83203125 61.9931640625 166.33203125 61.9931640625 238.999023438 c 0
 61.9931640625 280.999023438 72.326171875 321.83203125 92.9931640625 361.499023438 c 0
 113.66015625 401.166015625 141.327148438 433.999023438 175.994140625 459.999023438 c 1
 133.327148438 499.999023438 111.994140625 543.499023438 111.994140625 590.499023438 c 0
 111.994140625 637.499023438 128.827148438 678.33203125 162.494140625 712.999023438 c 0
 196.161132812 747.666015625 243.661132812 764.999023438 304.994140625 764.999023438 c 0
 342.994140625 764.999023438 378.161132812 755.666015625 410.494140625 736.999023438 c 0
 442.827148438 718.33203125 458.994140625 698.33203125 458.994140625 676.999023438 c 0
 458.994140625 663.666015625 454.994140625 653.333007812 446.994140625 646 c 0
 438.994140625 638.666992188 429.661132812 635 418.994140625 635 c 0
 408.327148438 635 392.827148438 642.166992188 372.494140625 656.5 c 0
 352.161132812 670.833007812 328.328125 678 300.995117188 678 c 0
 273.662109375 678 250.829101562 670.166992188 232.49609375 654.5 c 0
 214.163085938 638.833007812 204.99609375 618.333007812 204.99609375 593 c 0
 204.99609375 555 222.329101562 524.333007812 256.99609375 501 c 1
 286.329101562 503.666992188 301.99609375 505 303.99609375 505 c 0
 323.99609375 505 340.329101562 500.333007812 352.99609375 491 c 0
 365.663085938 481.666992188 371.99609375 468.833984375 371.99609375 452.500976562 c 0
 371.99609375 436.16796875 364.99609375 423.16796875 350.99609375 413.500976562 c 0
 336.99609375 403.833984375 319.829101562 399.000976562 299.49609375 399.000976562 c 0
 279.163085938 399.000976562 262.330078125 402.333984375 248.997070312 409.000976562 c 1
 220.997070312 392.333984375 198.6640625 369.666992188 181.997070312 341 c 0
 165.330078125 312.333007812 156.997070312 281 156.997070312 247 c 0
 156.997070312 195 173.330078125 152.833007812 205.997070312 120.5 c 0
 238.6640625 88.1669921875 280.331054688 72 330.998046875 72 c 0
 381.665039062 72 422.83203125 85.1669921875 454.499023438 111.5 c 0
 486.166015625 137.833007812 501.999023438 168 501.999023438 202 c 0
 501.999023438 254 491.33203125 280 469.999023438 280 c 0
 457.999023438 280 445.166015625 276.666992188 431.499023438 270 c 0
 417.83203125 263.333007812 404.83203125 260 392.499023438 260 c 0
 380.166015625 260 369.999023438 264.5 361.999023438 273.5 c 0
 353.999023438 282.5 349.999023438 293.333007812 349.999023438 306 c 0
 349.999023438 326 359.83203125 341.666992188 379.499023438 353 c 0
 399.166015625 364.333007812 424.333007812 370 455 370 c 2
EndSplineSet
EndChar

StartChar: quotesingle
Encoding: 39 39 8
Width: 236
Flags: W
LayerCount: 2
Fore
SplineSet
166 704 m 2
 153.998046875 596 l 2
 152.665039062 567.333007812 149.498046875 547 144.498046875 535 c 0
 139.498046875 523 130.665039062 517 117.998046875 517 c 0
 105.331054688 517 96.498046875 523 91.498046875 535 c 0
 86.498046875 547 83.3310546875 567.333007812 81.998046875 596 c 2
 69.998046875 704 l 2
 69.998046875 721.333007812 74.3310546875 735 82.998046875 745 c 0
 91.6650390625 755 103.33203125 760 117.999023438 760 c 0
 132.666015625 760 144.333007812 755 153 745 c 0
 161.666992188 735 166 721.333007812 166 704 c 2
EndSplineSet
EndChar

StartChar: parenleft
Encoding: 40 40 9
Width: 347
Flags: W
LayerCount: 2
Fore
SplineSet
84.5 209 m 0
 69.5 269.666992188 61.9970703125 328.333007812 61.9970703125 385 c 0
 61.9970703125 441.666992188 68.830078125 497.5 82.4970703125 552.5 c 0
 96.1640625 607.5 113.1640625 655.166992188 133.497070312 695.5 c 0
 153.830078125 735.833007812 175.497070312 769.166015625 198.497070312 795.499023438 c 0
 221.497070312 821.83203125 241.497070312 834.999023438 258.497070312 834.999023438 c 0
 275.497070312 834.999023438 288.6640625 830.33203125 297.997070312 820.999023438 c 0
 307.330078125 811.666015625 311.997070312 801.166015625 311.997070312 789.499023438 c 0
 311.997070312 777.83203125 306.497070312 763.499023438 295.497070312 746.499023438 c 0
 284.497070312 729.499023438 271.330078125 709.999023438 255.997070312 687.999023438 c 0
 240.6640625 665.999023438 225.331054688 640.666015625 209.998046875 611.999023438 c 0
 194.665039062 583.33203125 181.498046875 546.83203125 170.498046875 502.499023438 c 0
 159.498046875 458.166015625 153.998046875 408.166015625 153.998046875 352.499023438 c 0
 153.998046875 296.83203125 161.331054688 242.665039062 175.998046875 189.998046875 c 0
 190.665039062 137.331054688 206.83203125 96.3310546875 224.499023438 66.998046875 c 0
 242.166015625 37.6650390625 258.333007812 11.498046875 273 -11.501953125 c 0
 287.666992188 -34.501953125 295 -49.501953125 295 -56.501953125 c 0
 295 -63.501953125 292.666992188 -69.8349609375 288 -75.501953125 c 0
 283.333007812 -81.1689453125 276 -84.001953125 266 -84.001953125 c 0
 249.333007812 -84.001953125 229.5 -71.1689453125 206.5 -45.501953125 c 0
 183.5 -19.8349609375 161.166992188 13.83203125 139.5 55.4990234375 c 0
 117.833007812 97.166015625 99.5 148.333007812 84.5 209 c 0
EndSplineSet
EndChar

StartChar: parenright
Encoding: 41 41 10
Width: 347
Flags: W
LayerCount: 2
Fore
SplineSet
264.5 552.5 m 0
 278.166992188 497.5 284.997070312 441.66796875 284.997070312 385.000976562 c 0
 284.997070312 328.333984375 277.497070312 269.666992188 262.497070312 209 c 0
 247.497070312 148.333007812 229.1640625 97.166015625 207.497070312 55.4990234375 c 0
 185.830078125 13.83203125 163.497070312 -19.8349609375 140.497070312 -45.501953125 c 0
 117.497070312 -71.1689453125 97.6640625 -84.001953125 80.9970703125 -84.001953125 c 0
 70.9970703125 -84.001953125 63.6640625 -81.1689453125 58.9970703125 -75.501953125 c 0
 54.330078125 -69.8349609375 51.9970703125 -63.501953125 51.9970703125 -56.501953125 c 0
 51.9970703125 -49.501953125 59.330078125 -34.501953125 73.9970703125 -11.501953125 c 0
 88.6640625 11.498046875 104.831054688 37.6650390625 122.498046875 66.998046875 c 0
 140.165039062 96.3310546875 156.33203125 137.331054688 170.999023438 189.998046875 c 0
 185.666015625 242.665039062 192.999023438 296.83203125 192.999023438 352.499023438 c 0
 192.999023438 408.166015625 187.499023438 458.166015625 176.499023438 502.499023438 c 0
 165.499023438 546.83203125 152.33203125 583.33203125 136.999023438 611.999023438 c 0
 121.666015625 640.666015625 106.333007812 665.999023438 91 687.999023438 c 0
 75.6669921875 709.999023438 62.5 729.499023438 51.5 746.499023438 c 0
 40.5 763.499023438 35 777.83203125 35 789.499023438 c 0
 35 801.166015625 39.6669921875 811.666015625 49 820.999023438 c 0
 58.3330078125 830.33203125 71.5 834.999023438 88.5 834.999023438 c 0
 105.5 834.999023438 125.5 821.83203125 148.5 795.499023438 c 0
 171.5 769.166015625 193.166992188 735.833007812 213.5 695.5 c 0
 233.833007812 655.166992188 250.833007812 607.5 264.5 552.5 c 0
EndSplineSet
EndChar

StartChar: asterisk
Encoding: 42 42 11
Width: 476
Flags: W
LayerCount: 2
Fore
SplineSet
204 642 m 1
 194 715.999023438 l 2
 194 730.666015625 198 742.499023438 206 751.499023438 c 0
 214 760.499023438 224.666992188 764.999023438 238 764.999023438 c 0
 251.333007812 764.999023438 262 760.499023438 270 751.499023438 c 0
 278 742.499023438 282 732.33203125 282 720.999023438 c 0
 282 709.666015625 280.333007812 695.833007812 277 679.5 c 0
 273.666992188 663.166992188 272 650.666992188 272 642 c 1
 276.666992188 645.333007812 285.333984375 652 298.000976562 662 c 0
 324.66796875 683.333007812 344.000976562 694 356.000976562 694 c 0
 368.000976562 694 378.000976562 690.333007812 386.000976562 683 c 0
 394.000976562 675.666992188 398.000976562 665.833984375 398.000976562 653.500976562 c 0
 398.000976562 641.16796875 392.500976562 630.834960938 381.500976562 622.501953125 c 0
 370.500976562 614.168945312 354.66796875 606.668945312 334.000976562 600.001953125 c 0
 313.333984375 593.334960938 301.333984375 589.001953125 298.000976562 587.001953125 c 1
 301.333984375 585.001953125 313.333984375 580.668945312 334.000976562 574.001953125 c 0
 354.66796875 567.334960938 370.500976562 559.834960938 381.500976562 551.501953125 c 0
 392.500976562 543.168945312 398.000976562 532.668945312 398.000976562 520.001953125 c 0
 398.000976562 507.334960938 394.000976562 497.501953125 386.000976562 490.501953125 c 0
 378.000976562 483.501953125 369.16796875 480.001953125 359.500976562 480.001953125 c 0
 349.833984375 480.001953125 340.333984375 482.668945312 331.000976562 488.001953125 c 0
 321.66796875 493.334960938 310.500976562 501.16796875 297.500976562 511.500976562 c 0
 284.500976562 521.833984375 275.66796875 528.666992188 271.000976562 532 c 1
 282.000976562 460 l 2
 282.000976562 445.333007812 278.000976562 433.333007812 270.000976562 424 c 0
 262.000976562 414.666992188 251.333984375 410 238.000976562 410 c 0
 224.66796875 410 214.000976562 414.666992188 206.000976562 424 c 0
 198.000976562 433.333007812 194.000976562 443.5 194.000976562 454.5 c 0
 194.000976562 465.5 195.833984375 479.166992188 199.500976562 495.5 c 0
 203.16796875 511.833007812 205.000976562 524 205.000976562 532 c 1
 200.333984375 528.666992188 191.333984375 522 178.000976562 512 c 0
 152.000976562 490.666992188 132.833984375 480 120.500976562 480 c 0
 108.16796875 480 98.0009765625 483.5 90.0009765625 490.5 c 0
 82.0009765625 497.5 78.0009765625 507.333007812 78.0009765625 520 c 0
 78.0009765625 532.666992188 83.5009765625 543.166992188 94.5009765625 551.5 c 0
 105.500976562 559.833007812 121.333984375 567.333007812 142.000976562 574 c 0
 162.66796875 580.666992188 174.66796875 585 178.000976562 587 c 1
 174.66796875 589 162.66796875 593.333007812 142.000976562 600 c 0
 121.333984375 606.666992188 105.500976562 614.166992188 94.5009765625 622.5 c 0
 83.5009765625 630.833007812 78.0009765625 641.166015625 78.0009765625 653.499023438 c 0
 78.0009765625 665.83203125 82.0009765625 675.665039062 90.0009765625 682.998046875 c 0
 98.0009765625 690.331054688 106.66796875 693.998046875 116.000976562 693.998046875 c 0
 125.333984375 693.998046875 134.666992188 691.331054688 144 685.998046875 c 0
 153.333007812 680.665039062 164.5 672.83203125 177.5 662.499023438 c 0
 190.5 652.166015625 199.333007812 645.333007812 204 642 c 1
EndSplineSet
EndChar

StartChar: plus
Encoding: 43 43 12
Width: 601
Flags: W
LayerCount: 2
Fore
SplineSet
113 418 m 2
 262.999023438 414.998046875 l 1
 262.999023438 461.665039062 262.33203125 497.33203125 260.999023438 521.999023438 c 0
 259.666015625 546.666015625 258.999023438 559.666015625 258.999023438 560.999023438 c 0
 258.999023438 576.33203125 262.83203125 588.33203125 270.499023438 596.999023438 c 0
 278.166015625 605.666015625 288.333007812 609.999023438 301 609.999023438 c 0
 313.666992188 609.999023438 324 605.499023438 332 596.499023438 c 0
 340 587.499023438 344 575.33203125 344 559.999023438 c 0
 344 558.666015625 343.666992188 551.999023438 343 539.999023438 c 0
 341 503.999023438 340 462.33203125 340 414.999023438 c 1
 490 416.999023438 l 2
 504.666992188 416.999023438 516.666992188 412.999023438 526 404.999023438 c 0
 535.333007812 396.999023438 540 386.999023438 540 374.999023438 c 0
 540 362.999023438 535.333007812 352.999023438 526 344.999023438 c 0
 516.666992188 336.999023438 504.666992188 332.999023438 490 332.999023438 c 2
 340 335.999023438 l 1
 344 176.999023438 l 2
 344 161.666015625 340.166992188 149.333007812 332.5 140 c 0
 324.833007812 130.666992188 314.5 126 301.5 126 c 0
 288.5 126 278.166992188 130.833007812 270.5 140.5 c 0
 262.833007812 150.166992188 259 162.666992188 259 178 c 2
 263 337 l 1
 113 334 l 2
 98.3330078125 334 86.3330078125 338 77 346 c 0
 67.6669921875 354 63 364 63 376 c 0
 63 388 67.6669921875 398 77 406 c 0
 86.3330078125 414 98.3330078125 418 113 418 c 2
EndSplineSet
EndChar

StartChar: comma
Encoding: 44 44 13
Width: 251
Flags: W
LayerCount: 2
Fore
SplineSet
177 36 m 0
 177 0 165 -39.6669921875 141 -83 c 0
 117 -126.333007812 94.6669921875 -148 74 -148 c 0
 53.3330078125 -148 43 -139.333007812 43 -122 c 0
 43 -112.666992188 48.1669921875 -99.5 58.5 -82.5 c 0
 68.8330078125 -65.5 74 -50.5 74 -37.5 c 0
 74 -24.5 72.6669921875 -12 70 0 c 0
 67.3330078125 12 66 25.5 66 40.5 c 0
 66 55.5 71.3330078125 69.8330078125 82 83.5 c 0
 92.6669921875 97.1669921875 106.5 104 123.5 104 c 0
 140.5 104 153.666992188 97.8330078125 163 85.5 c 0
 172.333007812 73.1669921875 177 56.6669921875 177 36 c 0
EndSplineSet
EndChar

StartChar: hyphen
Encoding: 45 45 14
Width: 498
Flags: W
LayerCount: 2
Fore
SplineSet
249 336 m 1
 130 333 l 2
 115.333007812 333 103.5 337 94.5 345 c 0
 85.5 353 81 363 81 375 c 0
 81 387 85.5 397 94.5 405 c 0
 103.5 413 115.333007812 417 130 417 c 2
 249 414 l 1
 368 417 l 2
 382.666992188 417 394.5 413 403.5 405 c 0
 412.5 397 417 387 417 375 c 0
 417 363 412.5 353 403.5 345 c 0
 394.5 337 382.666992188 333 368 333 c 2
 249 336 l 1
EndSplineSet
EndChar

StartChar: period
Encoding: 46 46 15
Width: 254
Flags: W
LayerCount: 2
Fore
SplineSet
168.5 102 m 0
 177.5 90.6669921875 181.998046875 76.1669921875 181.998046875 58.5 c 0
 181.998046875 40.8330078125 176.331054688 25 164.998046875 11 c 0
 153.665039062 -3 139.83203125 -10 123.499023438 -10 c 0
 107.166015625 -10 94.3330078125 -4 85 8 c 0
 75.6669921875 20 71 34.6669921875 71 52 c 0
 71 69.3330078125 76.5 84.8330078125 87.5 98.5 c 0
 98.5 112.166992188 112.5 119 129.5 119 c 0
 146.5 119 159.5 113.333007812 168.5 102 c 0
EndSplineSet
EndChar

StartChar: slash
Encoding: 47 47 16
Width: 433
Flags: W
LayerCount: 2
Fore
SplineSet
284.5 822 m 0
 293.5 830.666992188 304.668945312 834.999023438 318.001953125 834.999023438 c 0
 331.334960938 834.999023438 341.834960938 829.999023438 349.501953125 819.999023438 c 0
 357.168945312 809.999023438 361.001953125 799.666015625 361.001953125 788.999023438 c 0
 361.001953125 778.33203125 356.334960938 754.499023438 347.001953125 717.499023438 c 0
 337.668945312 680.499023438 324.001953125 627.33203125 306.001953125 557.999023438 c 0
 258.001953125 368.666015625 212.668945312 175.999023438 170.001953125 -20.0009765625 c 0
 165.334960938 -40.66796875 159.16796875 -56.5009765625 151.500976562 -67.5009765625 c 0
 143.833984375 -78.5009765625 132.666992188 -84.0009765625 118 -84.0009765625 c 0
 103.333007812 -84.0009765625 91.8330078125 -79.333984375 83.5 -70.0009765625 c 0
 75.1669921875 -60.66796875 71 -50.5009765625 71 -39.5009765625 c 0
 71 -28.5009765625 75 -7.0009765625 83 24.9990234375 c 0
 91 56.9990234375 104.333007812 109.33203125 123 181.999023438 c 0
 167 353.33203125 215 554.999023438 267 786.999023438 c 0
 269.666992188 801.666015625 275.5 813.333007812 284.5 822 c 0
EndSplineSet
EndChar

StartChar: zero
Encoding: 48 48 17
Width: 728
Flags: W
LayerCount: 2
Fore
SplineSet
560 66 m 0
 571.333007812 6 586 -23.9990234375 604 -23.9990234375 c 0
 621.333007812 -23.9990234375 636 6.0009765625 648 66.0009765625 c 0
 660 128.000976562 666 207.333984375 666 304.000976562 c 0
 666 405.333984375 660 484.666992188 648 542 c 0
 636 603.333007812 621.333007812 634 604 634 c 0
 586.666992188 634 572 603.333007812 560 542 c 0
 547.333007812 481.333007812 541 402 541 304 c 0
 541 207.333007812 547.333007812 128 560 66 c 0
605 35.0009765625 m 0
 596.333007812 34.333984375 587.999023438 57.6689453125 579.999023438 105.001953125 c 0
 572.666015625 151.001953125 568.999023438 215.668945312 568.999023438 299.001953125 c 0
 569.666015625 381.001953125 573.333007812 446.668945312 580 496.001953125 c 0
 586 542.001953125 594.333007812 565.334960938 605 566.001953125 c 0
 615 566.001953125 623.333007812 542.668945312 630 496.001953125 c 0
 637.333007812 447.334960938 641 381.66796875 641 299.000976562 c 0
 641 221.66796875 637.333007812 157.000976562 630 105.000976562 c 0
 624 58.333984375 615.666992188 35.0009765625 605 35.0009765625 c 0
398.999023438 66.0029296875 m 0
 410.33203125 6.0029296875 424.999023438 -23.99609375 442.999023438 -23.99609375 c 0
 460.33203125 -23.99609375 474.999023438 6.00390625 486.999023438 66.00390625 c 0
 498.999023438 128.00390625 504.999023438 207.336914062 504.999023438 304.00390625 c 0
 504.999023438 405.336914062 498.999023438 484.669921875 486.999023438 542.002929688 c 0
 474.999023438 603.3359375 460.33203125 634.002929688 442.999023438 634.002929688 c 0
 425.666015625 634.002929688 410.999023438 603.3359375 398.999023438 542.002929688 c 0
 386.33203125 481.3359375 379.999023438 402.002929688 379.999023438 304.002929688 c 0
 379.999023438 207.3359375 386.33203125 128.002929688 398.999023438 66.0029296875 c 0
443.999023438 35.00390625 m 0
 435.33203125 34.3369140625 426.998046875 57.671875 418.998046875 105.004882812 c 0
 411.665039062 151.004882812 407.998046875 215.671875 407.998046875 299.004882812 c 0
 408.665039062 381.004882812 412.33203125 446.671875 418.999023438 496.004882812 c 0
 424.999023438 542.004882812 433.33203125 565.337890625 443.999023438 566.004882812 c 0
 453.999023438 566.004882812 462.33203125 542.671875 468.999023438 496.004882812 c 0
 476.33203125 447.337890625 479.999023438 381.670898438 479.999023438 299.00390625 c 0
 479.999023438 221.670898438 476.33203125 157.00390625 468.999023438 105.00390625 c 0
 462.999023438 58.3369140625 454.666015625 35.00390625 443.999023438 35.00390625 c 0
237.998046875 66.005859375 m 0
 249.331054688 6.005859375 263.998046875 -23.9931640625 281.998046875 -23.9931640625 c 0
 299.331054688 -23.9931640625 313.998046875 6.0068359375 325.998046875 66.0068359375 c 0
 337.998046875 128.006835938 343.998046875 207.33984375 343.998046875 304.006835938 c 0
 343.998046875 405.33984375 337.998046875 484.672851562 325.998046875 542.005859375 c 0
 313.998046875 603.338867188 299.331054688 634.005859375 281.998046875 634.005859375 c 0
 264.665039062 634.005859375 249.998046875 603.338867188 237.998046875 542.005859375 c 0
 225.331054688 481.338867188 218.998046875 402.005859375 218.998046875 304.005859375 c 0
 218.998046875 207.338867188 225.331054688 128.005859375 237.998046875 66.005859375 c 0
282.998046875 35.0068359375 m 0
 274.331054688 34.33984375 265.997070312 57.6748046875 257.997070312 105.0078125 c 0
 250.6640625 151.0078125 246.997070312 215.674804688 246.997070312 299.0078125 c 0
 247.6640625 381.0078125 251.331054688 446.674804688 257.998046875 496.0078125 c 0
 263.998046875 542.0078125 272.331054688 565.340820312 282.998046875 566.0078125 c 0
 292.998046875 566.0078125 301.331054688 542.674804688 307.998046875 496.0078125 c 0
 315.331054688 447.340820312 318.998046875 381.673828125 318.998046875 299.006835938 c 0
 318.998046875 221.673828125 315.331054688 157.006835938 307.998046875 105.006835938 c 0
 301.998046875 58.33984375 293.665039062 35.0068359375 282.998046875 35.0068359375 c 0
82.9970703125 66.0087890625 m 0
 94.330078125 6.0087890625 108.997070312 -23.990234375 126.997070312 -23.990234375 c 0
 144.330078125 -23.990234375 158.997070312 6.009765625 170.997070312 66.009765625 c 0
 182.997070312 128.009765625 188.997070312 207.342773438 188.997070312 304.009765625 c 0
 188.997070312 405.342773438 182.997070312 484.67578125 170.997070312 542.008789062 c 0
 158.997070312 603.341796875 144.330078125 634.008789062 126.997070312 634.008789062 c 0
 109.6640625 634.008789062 94.9970703125 603.341796875 82.9970703125 542.008789062 c 0
 70.330078125 481.341796875 63.9970703125 402.008789062 63.9970703125 304.008789062 c 0
 63.9970703125 207.341796875 70.330078125 128.008789062 82.9970703125 66.0087890625 c 0
127.997070312 35.009765625 m 0
 119.330078125 34.3427734375 110.99609375 57.677734375 102.99609375 105.010742188 c 0
 95.6630859375 151.010742188 91.99609375 215.677734375 91.99609375 299.010742188 c 0
 92.6630859375 381.010742188 96.330078125 446.677734375 102.997070312 496.010742188 c 0
 108.997070312 542.010742188 117.330078125 565.34375 127.997070312 566.010742188 c 0
 137.997070312 566.010742188 146.330078125 542.677734375 152.997070312 496.010742188 c 0
 160.330078125 447.34375 163.997070312 381.676757812 163.997070312 299.009765625 c 0
 163.997070312 221.676757812 160.330078125 157.009765625 152.997070312 105.009765625 c 0
 146.997070312 58.3427734375 138.6640625 35.009765625 127.997070312 35.009765625 c 0
EndSplineSet
EndChar

StartChar: one
Encoding: 49 49 18
Width: 728
Flags: W
LayerCount: 2
Fore
SplineSet
560 66 m 0
 571.333007812 6 586 -23.9990234375 604 -23.9990234375 c 0
 621.333007812 -23.9990234375 636 6.0009765625 648 66.0009765625 c 0
 660 128.000976562 666 207.333984375 666 304.000976562 c 0
 666 405.333984375 660 484.666992188 648 542 c 0
 636 603.333007812 621.333007812 634 604 634 c 0
 586.666992188 634 572 603.333007812 560 542 c 0
 547.333007812 481.333007812 541 402 541 304 c 0
 541 207.333007812 547.333007812 128 560 66 c 0
399 66.0009765625 m 0
 410.333007812 6.0009765625 425 -23.998046875 443 -23.998046875 c 0
 460.333007812 -23.998046875 475 6.001953125 487 66.001953125 c 0
 499 128.001953125 505 207.334960938 505 304.001953125 c 0
 505 405.334960938 499 484.66796875 487 542.000976562 c 0
 475 603.333984375 460.333007812 634.000976562 443 634.000976562 c 0
 425.666992188 634.000976562 411 603.333984375 399 542.000976562 c 0
 386.333007812 481.333984375 380 402.000976562 380 304.000976562 c 0
 380 207.333984375 386.333007812 128.000976562 399 66.0009765625 c 0
444 35.001953125 m 0
 435.333007812 34.3349609375 426.999023438 57.669921875 418.999023438 105.002929688 c 0
 411.666015625 151.002929688 407.999023438 215.669921875 407.999023438 299.002929688 c 0
 408.666015625 381.002929688 412.333007812 446.669921875 419 496.002929688 c 0
 425 542.002929688 433.333007812 565.3359375 444 566.002929688 c 0
 454 566.002929688 462.333007812 542.669921875 469 496.002929688 c 0
 476.333007812 447.3359375 480 381.668945312 480 299.001953125 c 0
 480 221.668945312 476.333007812 157.001953125 469 105.001953125 c 0
 463 58.3349609375 454.666992188 35.001953125 444 35.001953125 c 0
237.999023438 66.00390625 m 0
 249.33203125 6.00390625 263.999023438 -23.9951171875 281.999023438 -23.9951171875 c 0
 299.33203125 -23.9951171875 313.999023438 6.0048828125 325.999023438 66.0048828125 c 0
 337.999023438 128.004882812 343.999023438 207.337890625 343.999023438 304.004882812 c 0
 343.999023438 405.337890625 337.999023438 484.670898438 325.999023438 542.00390625 c 0
 313.999023438 603.336914062 299.33203125 634.00390625 281.999023438 634.00390625 c 0
 264.666015625 634.00390625 249.999023438 603.336914062 237.999023438 542.00390625 c 0
 225.33203125 481.336914062 218.999023438 402.00390625 218.999023438 304.00390625 c 0
 218.999023438 207.336914062 225.33203125 128.00390625 237.999023438 66.00390625 c 0
282.999023438 35.0048828125 m 0
 274.33203125 34.337890625 265.998046875 57.6728515625 257.998046875 105.005859375 c 0
 250.665039062 151.005859375 246.998046875 215.672851562 246.998046875 299.005859375 c 0
 247.665039062 381.005859375 251.33203125 446.672851562 257.999023438 496.005859375 c 0
 263.999023438 542.005859375 272.33203125 565.338867188 282.999023438 566.005859375 c 0
 292.999023438 566.005859375 301.33203125 542.672851562 307.999023438 496.005859375 c 0
 315.33203125 447.338867188 318.999023438 381.671875 318.999023438 299.004882812 c 0
 318.999023438 221.671875 315.33203125 157.004882812 307.999023438 105.004882812 c 0
 301.999023438 58.337890625 293.666015625 35.0048828125 282.999023438 35.0048828125 c 0
82.998046875 66.0068359375 m 0
 94.3310546875 6.0068359375 108.998046875 -23.9921875 126.998046875 -23.9921875 c 0
 144.331054688 -23.9921875 158.998046875 6.0078125 170.998046875 66.0078125 c 0
 182.998046875 128.0078125 188.998046875 207.340820312 188.998046875 304.0078125 c 0
 188.998046875 405.340820312 182.998046875 484.673828125 170.998046875 542.006835938 c 0
 158.998046875 603.33984375 144.331054688 634.006835938 126.998046875 634.006835938 c 0
 109.665039062 634.006835938 94.998046875 603.33984375 82.998046875 542.006835938 c 0
 70.3310546875 481.33984375 63.998046875 402.006835938 63.998046875 304.006835938 c 0
 63.998046875 207.33984375 70.3310546875 128.006835938 82.998046875 66.0068359375 c 0
127.998046875 35.0078125 m 0
 119.331054688 34.3408203125 110.997070312 57.67578125 102.997070312 105.008789062 c 0
 95.6640625 151.008789062 91.9970703125 215.67578125 91.9970703125 299.008789062 c 0
 92.6640625 381.008789062 96.3310546875 446.67578125 102.998046875 496.008789062 c 0
 108.998046875 542.008789062 117.331054688 565.341796875 127.998046875 566.008789062 c 0
 137.998046875 566.008789062 146.331054688 542.67578125 152.998046875 496.008789062 c 0
 160.331054688 447.341796875 163.998046875 381.674804688 163.998046875 299.0078125 c 0
 163.998046875 221.674804688 160.331054688 157.0078125 152.998046875 105.0078125 c 0
 146.998046875 58.3408203125 138.665039062 35.0078125 127.998046875 35.0078125 c 0
EndSplineSet
EndChar

StartChar: two
Encoding: 50 50 19
Width: 728
Flags: W
LayerCount: 2
Fore
SplineSet
560 66 m 0
 571.333007812 6 586 -23.9990234375 604 -23.9990234375 c 0
 621.333007812 -23.9990234375 636 6.0009765625 648 66.0009765625 c 0
 660 128.000976562 666 207.333984375 666 304.000976562 c 0
 666 405.333984375 660 484.666992188 648 542 c 0
 636 603.333007812 621.333007812 634 604 634 c 0
 586.666992188 634 572 603.333007812 560 542 c 0
 547.333007812 481.333007812 541 402 541 304 c 0
 541 207.333007812 547.333007812 128 560 66 c 0
605 35.0009765625 m 0
 596.333007812 34.333984375 587.999023438 57.6689453125 579.999023438 105.001953125 c 0
 572.666015625 151.001953125 568.999023438 215.668945312 568.999023438 299.001953125 c 0
 569.666015625 381.001953125 573.333007812 446.668945312 580 496.001953125 c 0
 586 542.001953125 594.333007812 565.334960938 605 566.001953125 c 0
 615 566.001953125 623.333007812 542.668945312 630 496.001953125 c 0
 637.333007812 447.334960938 641 381.66796875 641 299.000976562 c 0
 641 221.66796875 637.333007812 157.000976562 630 105.000976562 c 0
 624 58.333984375 615.666992188 35.0009765625 605 35.0009765625 c 0
398.999023438 66.0029296875 m 0
 410.33203125 6.0029296875 424.999023438 -23.99609375 442.999023438 -23.99609375 c 0
 460.33203125 -23.99609375 474.999023438 6.00390625 486.999023438 66.00390625 c 0
 498.999023438 128.00390625 504.999023438 207.336914062 504.999023438 304.00390625 c 0
 504.999023438 405.336914062 498.999023438 484.669921875 486.999023438 542.002929688 c 0
 474.999023438 603.3359375 460.33203125 634.002929688 442.999023438 634.002929688 c 0
 425.666015625 634.002929688 410.999023438 603.3359375 398.999023438 542.002929688 c 0
 386.33203125 481.3359375 379.999023438 402.002929688 379.999023438 304.002929688 c 0
 379.999023438 207.3359375 386.33203125 128.002929688 398.999023438 66.0029296875 c 0
237.999023438 66.00390625 m 0
 249.33203125 6.00390625 263.999023438 -23.9951171875 281.999023438 -23.9951171875 c 0
 299.33203125 -23.9951171875 313.999023438 6.0048828125 325.999023438 66.0048828125 c 0
 337.999023438 128.004882812 343.999023438 207.337890625 343.999023438 304.004882812 c 0
 343.999023438 405.337890625 337.999023438 484.670898438 325.999023438 542.00390625 c 0
 313.999023438 603.336914062 299.33203125 634.00390625 281.999023438 634.00390625 c 0
 264.666015625 634.00390625 249.999023438 603.336914062 237.999023438 542.00390625 c 0
 225.33203125 481.336914062 218.999023438 402.00390625 218.999023438 304.00390625 c 0
 218.999023438 207.336914062 225.33203125 128.00390625 237.999023438 66.00390625 c 0
282.999023438 35.0048828125 m 0
 274.33203125 34.337890625 265.998046875 57.6728515625 257.998046875 105.005859375 c 0
 250.665039062 151.005859375 246.998046875 215.672851562 246.998046875 299.005859375 c 0
 247.665039062 381.005859375 251.33203125 446.672851562 257.999023438 496.005859375 c 0
 263.999023438 542.005859375 272.33203125 565.338867188 282.999023438 566.005859375 c 0
 292.999023438 566.005859375 301.33203125 542.672851562 307.999023438 496.005859375 c 0
 315.33203125 447.338867188 318.999023438 381.671875 318.999023438 299.004882812 c 0
 318.999023438 221.671875 315.33203125 157.004882812 307.999023438 105.004882812 c 0
 301.999023438 58.337890625 293.666015625 35.0048828125 282.999023438 35.0048828125 c 0
82.998046875 66.0068359375 m 0
 94.3310546875 6.0068359375 108.998046875 -23.9921875 126.998046875 -23.9921875 c 0
 144.331054688 -23.9921875 158.998046875 6.0078125 170.998046875 66.0078125 c 0
 182.998046875 128.0078125 188.998046875 207.340820312 188.998046875 304.0078125 c 0
 188.998046875 405.340820312 182.998046875 484.673828125 170.998046875 542.006835938 c 0
 158.998046875 603.33984375 144.331054688 634.006835938 126.998046875 634.006835938 c 0
 109.665039062 634.006835938 94.998046875 603.33984375 82.998046875 542.006835938 c 0
 70.3310546875 481.33984375 63.998046875 402.006835938 63.998046875 304.006835938 c 0
 63.998046875 207.33984375 70.3310546875 128.006835938 82.998046875 66.0068359375 c 0
127.998046875 35.0078125 m 0
 119.331054688 34.3408203125 110.997070312 57.67578125 102.997070312 105.008789062 c 0
 95.6640625 151.008789062 91.9970703125 215.67578125 91.9970703125 299.008789062 c 0
 92.6640625 381.008789062 96.3310546875 446.67578125 102.998046875 496.008789062 c 0
 108.998046875 542.008789062 117.331054688 565.341796875 127.998046875 566.008789062 c 0
 137.998046875 566.008789062 146.331054688 542.67578125 152.998046875 496.008789062 c 0
 160.331054688 447.341796875 163.998046875 381.674804688 163.998046875 299.0078125 c 0
 163.998046875 221.674804688 160.331054688 157.0078125 152.998046875 105.0078125 c 0
 146.998046875 58.3408203125 138.665039062 35.0078125 127.998046875 35.0078125 c 0
EndSplineSet
EndChar

StartChar: three
Encoding: 51 51 20
Width: 728
Flags: W
LayerCount: 2
Fore
SplineSet
560 66 m 0
 571.333007812 6 586 -23.9990234375 604 -23.9990234375 c 0
 621.333007812 -23.9990234375 636 6.0009765625 648 66.0009765625 c 0
 660 128.000976562 666 207.333984375 666 304.000976562 c 0
 666 405.333984375 660 484.666992188 648 542 c 0
 636 603.333007812 621.333007812 634 604 634 c 0
 586.666992188 634 572 603.333007812 560 542 c 0
 547.333007812 481.333007812 541 402 541 304 c 0
 541 207.333007812 547.333007812 128 560 66 c 0
399 66.0009765625 m 0
 410.333007812 6.0009765625 425 -23.998046875 443 -23.998046875 c 0
 460.333007812 -23.998046875 475 6.001953125 487 66.001953125 c 0
 499 128.001953125 505 207.334960938 505 304.001953125 c 0
 505 405.334960938 499 484.66796875 487 542.000976562 c 0
 475 603.333984375 460.333007812 634.000976562 443 634.000976562 c 0
 425.666992188 634.000976562 411 603.333984375 399 542.000976562 c 0
 386.333007812 481.333984375 380 402.000976562 380 304.000976562 c 0
 380 207.333984375 386.333007812 128.000976562 399 66.0009765625 c 0
238 66.001953125 m 0
 249.333007812 6.001953125 264 -23.9970703125 282 -23.9970703125 c 0
 299.333007812 -23.9970703125 314 6.0029296875 326 66.0029296875 c 0
 338 128.002929688 344 207.3359375 344 304.002929688 c 0
 344 405.3359375 338 484.668945312 326 542.001953125 c 0
 314 603.334960938 299.333007812 634.001953125 282 634.001953125 c 0
 264.666992188 634.001953125 250 603.334960938 238 542.001953125 c 0
 225.333007812 481.334960938 219 402.001953125 219 304.001953125 c 0
 219 207.334960938 225.333007812 128.001953125 238 66.001953125 c 0
283 35.0029296875 m 0
 274.333007812 34.3359375 265.999023438 57.6708984375 257.999023438 105.00390625 c 0
 250.666015625 151.00390625 246.999023438 215.670898438 246.999023438 299.00390625 c 0
 247.666015625 381.00390625 251.333007812 446.670898438 258 496.00390625 c 0
 264 542.00390625 272.333007812 565.336914062 283 566.00390625 c 0
 293 566.00390625 301.333007812 542.670898438 308 496.00390625 c 0
 315.333007812 447.336914062 319 381.669921875 319 299.002929688 c 0
 319 221.669921875 315.333007812 157.002929688 308 105.002929688 c 0
 302 58.3359375 293.666992188 35.0029296875 283 35.0029296875 c 0
82.9990234375 66.0048828125 m 0
 94.33203125 6.0048828125 108.999023438 -23.994140625 126.999023438 -23.994140625 c 0
 144.33203125 -23.994140625 158.999023438 6.005859375 170.999023438 66.005859375 c 0
 182.999023438 128.005859375 188.999023438 207.338867188 188.999023438 304.005859375 c 0
 188.999023438 405.338867188 182.999023438 484.671875 170.999023438 542.004882812 c 0
 158.999023438 603.337890625 144.33203125 634.004882812 126.999023438 634.004882812 c 0
 109.666015625 634.004882812 94.9990234375 603.337890625 82.9990234375 542.004882812 c 0
 70.33203125 481.337890625 63.9990234375 402.004882812 63.9990234375 304.004882812 c 0
 63.9990234375 207.337890625 70.33203125 128.004882812 82.9990234375 66.0048828125 c 0
127.999023438 35.005859375 m 0
 119.33203125 34.3388671875 110.998046875 57.673828125 102.998046875 105.006835938 c 0
 95.6650390625 151.006835938 91.998046875 215.673828125 91.998046875 299.006835938 c 0
 92.6650390625 381.006835938 96.33203125 446.673828125 102.999023438 496.006835938 c 0
 108.999023438 542.006835938 117.33203125 565.33984375 127.999023438 566.006835938 c 0
 137.999023438 566.006835938 146.33203125 542.673828125 152.999023438 496.006835938 c 0
 160.33203125 447.33984375 163.999023438 381.672851562 163.999023438 299.005859375 c 0
 163.999023438 221.672851562 160.33203125 157.005859375 152.999023438 105.005859375 c 0
 146.999023438 58.3388671875 138.666015625 35.005859375 127.999023438 35.005859375 c 0
EndSplineSet
EndChar

StartChar: four
Encoding: 52 52 21
Width: 728
Flags: W
LayerCount: 2
Fore
SplineSet
560 66 m 0
 571.333007812 6 586 -23.9990234375 604 -23.9990234375 c 0
 621.333007812 -23.9990234375 636 6.0009765625 648 66.0009765625 c 0
 660 128.000976562 666 207.333984375 666 304.000976562 c 0
 666 405.333984375 660 484.666992188 648 542 c 0
 636 603.333007812 621.333007812 634 604 634 c 0
 586.666992188 634 572 603.333007812 560 542 c 0
 547.333007812 481.333007812 541 402 541 304 c 0
 541 207.333007812 547.333007812 128 560 66 c 0
605 35.0009765625 m 0
 596.333007812 34.333984375 587.999023438 57.6689453125 579.999023438 105.001953125 c 0
 572.666015625 151.001953125 568.999023438 215.668945312 568.999023438 299.001953125 c 0
 569.666015625 381.001953125 573.333007812 446.668945312 580 496.001953125 c 0
 586 542.001953125 594.333007812 565.334960938 605 566.001953125 c 0
 615 566.001953125 623.333007812 542.668945312 630 496.001953125 c 0
 637.333007812 447.334960938 641 381.66796875 641 299.000976562 c 0
 641 221.66796875 637.333007812 157.000976562 630 105.000976562 c 0
 624 58.333984375 615.666992188 35.0009765625 605 35.0009765625 c 0
398.999023438 66.0029296875 m 0
 410.33203125 6.0029296875 424.999023438 -23.99609375 442.999023438 -23.99609375 c 0
 460.33203125 -23.99609375 474.999023438 6.00390625 486.999023438 66.00390625 c 0
 498.999023438 128.00390625 504.999023438 207.336914062 504.999023438 304.00390625 c 0
 504.999023438 405.336914062 498.999023438 484.669921875 486.999023438 542.002929688 c 0
 474.999023438 603.3359375 460.33203125 634.002929688 442.999023438 634.002929688 c 0
 425.666015625 634.002929688 410.999023438 603.3359375 398.999023438 542.002929688 c 0
 386.33203125 481.3359375 379.999023438 402.002929688 379.999023438 304.002929688 c 0
 379.999023438 207.3359375 386.33203125 128.002929688 398.999023438 66.0029296875 c 0
443.999023438 35.00390625 m 0
 435.33203125 34.3369140625 426.998046875 57.671875 418.998046875 105.004882812 c 0
 411.665039062 151.004882812 407.998046875 215.671875 407.998046875 299.004882812 c 0
 408.665039062 381.004882812 412.33203125 446.671875 418.999023438 496.004882812 c 0
 424.999023438 542.004882812 433.33203125 565.337890625 443.999023438 566.004882812 c 0
 453.999023438 566.004882812 462.33203125 542.671875 468.999023438 496.004882812 c 0
 476.33203125 447.337890625 479.999023438 381.670898438 479.999023438 299.00390625 c 0
 479.999023438 221.670898438 476.33203125 157.00390625 468.999023438 105.00390625 c 0
 462.999023438 58.3369140625 454.666015625 35.00390625 443.999023438 35.00390625 c 0
237.998046875 66.005859375 m 0
 249.331054688 6.005859375 263.998046875 -23.9931640625 281.998046875 -23.9931640625 c 0
 299.331054688 -23.9931640625 313.998046875 6.0068359375 325.998046875 66.0068359375 c 0
 337.998046875 128.006835938 343.998046875 207.33984375 343.998046875 304.006835938 c 0
 343.998046875 405.33984375 337.998046875 484.672851562 325.998046875 542.005859375 c 0
 313.998046875 603.338867188 299.331054688 634.005859375 281.998046875 634.005859375 c 0
 264.665039062 634.005859375 249.998046875 603.338867188 237.998046875 542.005859375 c 0
 225.331054688 481.338867188 218.998046875 402.005859375 218.998046875 304.005859375 c 0
 218.998046875 207.338867188 225.331054688 128.005859375 237.998046875 66.005859375 c 0
82.998046875 66.0068359375 m 0
 94.3310546875 6.0068359375 108.998046875 -23.9921875 126.998046875 -23.9921875 c 0
 144.331054688 -23.9921875 158.998046875 6.0078125 170.998046875 66.0078125 c 0
 182.998046875 128.0078125 188.998046875 207.340820312 188.998046875 304.0078125 c 0
 188.998046875 405.340820312 182.998046875 484.673828125 170.998046875 542.006835938 c 0
 158.998046875 603.33984375 144.331054688 634.006835938 126.998046875 634.006835938 c 0
 109.665039062 634.006835938 94.998046875 603.33984375 82.998046875 542.006835938 c 0
 70.3310546875 481.33984375 63.998046875 402.006835938 63.998046875 304.006835938 c 0
 63.998046875 207.33984375 70.3310546875 128.006835938 82.998046875 66.0068359375 c 0
127.998046875 35.0078125 m 0
 119.331054688 34.3408203125 110.997070312 57.67578125 102.997070312 105.008789062 c 0
 95.6640625 151.008789062 91.9970703125 215.67578125 91.9970703125 299.008789062 c 0
 92.6640625 381.008789062 96.3310546875 446.67578125 102.998046875 496.008789062 c 0
 108.998046875 542.008789062 117.331054688 565.341796875 127.998046875 566.008789062 c 0
 137.998046875 566.008789062 146.331054688 542.67578125 152.998046875 496.008789062 c 0
 160.331054688 447.341796875 163.998046875 381.674804688 163.998046875 299.0078125 c 0
 163.998046875 221.674804688 160.331054688 157.0078125 152.998046875 105.0078125 c 0
 146.998046875 58.3408203125 138.665039062 35.0078125 127.998046875 35.0078125 c 0
EndSplineSet
EndChar

StartChar: five
Encoding: 53 53 22
Width: 728
Flags: W
LayerCount: 2
Fore
SplineSet
560 66 m 0
 571.333007812 6 586 -23.9990234375 604 -23.9990234375 c 0
 621.333007812 -23.9990234375 636 6.0009765625 648 66.0009765625 c 0
 660 128.000976562 666 207.333984375 666 304.000976562 c 0
 666 405.333984375 660 484.666992188 648 542 c 0
 636 603.333007812 621.333007812 634 604 634 c 0
 586.666992188 634 572 603.333007812 560 542 c 0
 547.333007812 481.333007812 541 402 541 304 c 0
 541 207.333007812 547.333007812 128 560 66 c 0
399 66.0009765625 m 0
 410.333007812 6.0009765625 425 -23.998046875 443 -23.998046875 c 0
 460.333007812 -23.998046875 475 6.001953125 487 66.001953125 c 0
 499 128.001953125 505 207.334960938 505 304.001953125 c 0
 505 405.334960938 499 484.66796875 487 542.000976562 c 0
 475 603.333984375 460.333007812 634.000976562 443 634.000976562 c 0
 425.666992188 634.000976562 411 603.333984375 399 542.000976562 c 0
 386.333007812 481.333984375 380 402.000976562 380 304.000976562 c 0
 380 207.333984375 386.333007812 128.000976562 399 66.0009765625 c 0
444 35.001953125 m 0
 435.333007812 34.3349609375 426.999023438 57.669921875 418.999023438 105.002929688 c 0
 411.666015625 151.002929688 407.999023438 215.669921875 407.999023438 299.002929688 c 0
 408.666015625 381.002929688 412.333007812 446.669921875 419 496.002929688 c 0
 425 542.002929688 433.333007812 565.3359375 444 566.002929688 c 0
 454 566.002929688 462.333007812 542.669921875 469 496.002929688 c 0
 476.333007812 447.3359375 480 381.668945312 480 299.001953125 c 0
 480 221.668945312 476.333007812 157.001953125 469 105.001953125 c 0
 463 58.3349609375 454.666992188 35.001953125 444 35.001953125 c 0
237.999023438 66.00390625 m 0
 249.33203125 6.00390625 263.999023438 -23.9951171875 281.999023438 -23.9951171875 c 0
 299.33203125 -23.9951171875 313.999023438 6.0048828125 325.999023438 66.0048828125 c 0
 337.999023438 128.004882812 343.999023438 207.337890625 343.999023438 304.004882812 c 0
 343.999023438 405.337890625 337.999023438 484.670898438 325.999023438 542.00390625 c 0
 313.999023438 603.336914062 299.33203125 634.00390625 281.999023438 634.00390625 c 0
 264.666015625 634.00390625 249.999023438 603.336914062 237.999023438 542.00390625 c 0
 225.33203125 481.336914062 218.999023438 402.00390625 218.999023438 304.00390625 c 0
 218.999023438 207.336914062 225.33203125 128.00390625 237.999023438 66.00390625 c 0
82.9990234375 66.0048828125 m 0
 94.33203125 6.0048828125 108.999023438 -23.994140625 126.999023438 -23.994140625 c 0
 144.33203125 -23.994140625 158.999023438 6.005859375 170.999023438 66.005859375 c 0
 182.999023438 128.005859375 188.999023438 207.338867188 188.999023438 304.005859375 c 0
 188.999023438 405.338867188 182.999023438 484.671875 170.999023438 542.004882812 c 0
 158.999023438 603.337890625 144.33203125 634.004882812 126.999023438 634.004882812 c 0
 109.666015625 634.004882812 94.9990234375 603.337890625 82.9990234375 542.004882812 c 0
 70.33203125 481.337890625 63.9990234375 402.004882812 63.9990234375 304.004882812 c 0
 63.9990234375 207.337890625 70.33203125 128.004882812 82.9990234375 66.0048828125 c 0
127.999023438 35.005859375 m 0
 119.33203125 34.3388671875 110.998046875 57.673828125 102.998046875 105.006835938 c 0
 95.6650390625 151.006835938 91.998046875 215.673828125 91.998046875 299.006835938 c 0
 92.6650390625 381.006835938 96.33203125 446.673828125 102.999023438 496.006835938 c 0
 108.999023438 542.006835938 117.33203125 565.33984375 127.999023438 566.006835938 c 0
 137.999023438 566.006835938 146.33203125 542.673828125 152.999023438 496.006835938 c 0
 160.33203125 447.33984375 163.999023438 381.672851562 163.999023438 299.005859375 c 0
 163.999023438 221.672851562 160.33203125 157.005859375 152.999023438 105.005859375 c 0
 146.999023438 58.3388671875 138.666015625 35.005859375 127.999023438 35.005859375 c 0
EndSplineSet
EndChar

StartChar: six
Encoding: 54 54 23
Width: 728
Flags: W
LayerCount: 2
Fore
SplineSet
560 66 m 0
 571.333007812 6 586 -23.9990234375 604 -23.9990234375 c 0
 621.333007812 -23.9990234375 636 6.0009765625 648 66.0009765625 c 0
 660 128.000976562 666 207.333984375 666 304.000976562 c 0
 666 405.333984375 660 484.666992188 648 542 c 0
 636 603.333007812 621.333007812 634 604 634 c 0
 586.666992188 634 572 603.333007812 560 542 c 0
 547.333007812 481.333007812 541 402 541 304 c 0
 541 207.333007812 547.333007812 128 560 66 c 0
605 35.0009765625 m 0
 596.333007812 34.333984375 587.999023438 57.6689453125 579.999023438 105.001953125 c 0
 572.666015625 151.001953125 568.999023438 215.668945312 568.999023438 299.001953125 c 0
 569.666015625 381.001953125 573.333007812 446.668945312 580 496.001953125 c 0
 586 542.001953125 594.333007812 565.334960938 605 566.001953125 c 0
 615 566.001953125 623.333007812 542.668945312 630 496.001953125 c 0
 637.333007812 447.334960938 641 381.66796875 641 299.000976562 c 0
 641 221.66796875 637.333007812 157.000976562 630 105.000976562 c 0
 624 58.333984375 615.666992188 35.0009765625 605 35.0009765625 c 0
398.999023438 66.0029296875 m 0
 410.33203125 6.0029296875 424.999023438 -23.99609375 442.999023438 -23.99609375 c 0
 460.33203125 -23.99609375 474.999023438 6.00390625 486.999023438 66.00390625 c 0
 498.999023438 128.00390625 504.999023438 207.336914062 504.999023438 304.00390625 c 0
 504.999023438 405.336914062 498.999023438 484.669921875 486.999023438 542.002929688 c 0
 474.999023438 603.3359375 460.33203125 634.002929688 442.999023438 634.002929688 c 0
 425.666015625 634.002929688 410.999023438 603.3359375 398.999023438 542.002929688 c 0
 386.33203125 481.3359375 379.999023438 402.002929688 379.999023438 304.002929688 c 0
 379.999023438 207.3359375 386.33203125 128.002929688 398.999023438 66.0029296875 c 0
237.999023438 66.00390625 m 0
 249.33203125 6.00390625 263.999023438 -23.9951171875 281.999023438 -23.9951171875 c 0
 299.33203125 -23.9951171875 313.999023438 6.0048828125 325.999023438 66.0048828125 c 0
 337.999023438 128.004882812 343.999023438 207.337890625 343.999023438 304.004882812 c 0
 343.999023438 405.337890625 337.999023438 484.670898438 325.999023438 542.00390625 c 0
 313.999023438 603.336914062 299.33203125 634.00390625 281.999023438 634.00390625 c 0
 264.666015625 634.00390625 249.999023438 603.336914062 237.999023438 542.00390625 c 0
 225.33203125 481.336914062 218.999023438 402.00390625 218.999023438 304.00390625 c 0
 218.999023438 207.336914062 225.33203125 128.00390625 237.999023438 66.00390625 c 0
82.9990234375 66.0048828125 m 0
 94.33203125 6.0048828125 108.999023438 -23.994140625 126.999023438 -23.994140625 c 0
 144.33203125 -23.994140625 158.999023438 6.005859375 170.999023438 66.005859375 c 0
 182.999023438 128.005859375 188.999023438 207.338867188 188.999023438 304.005859375 c 0
 188.999023438 405.338867188 182.999023438 484.671875 170.999023438 542.004882812 c 0
 158.999023438 603.337890625 144.33203125 634.004882812 126.999023438 634.004882812 c 0
 109.666015625 634.004882812 94.9990234375 603.337890625 82.9990234375 542.004882812 c 0
 70.33203125 481.337890625 63.9990234375 402.004882812 63.9990234375 304.004882812 c 0
 63.9990234375 207.337890625 70.33203125 128.004882812 82.9990234375 66.0048828125 c 0
127.999023438 35.005859375 m 0
 119.33203125 34.3388671875 110.998046875 57.673828125 102.998046875 105.006835938 c 0
 95.6650390625 151.006835938 91.998046875 215.673828125 91.998046875 299.006835938 c 0
 92.6650390625 381.006835938 96.33203125 446.673828125 102.999023438 496.006835938 c 0
 108.999023438 542.006835938 117.33203125 565.33984375 127.999023438 566.006835938 c 0
 137.999023438 566.006835938 146.33203125 542.673828125 152.999023438 496.006835938 c 0
 160.33203125 447.33984375 163.999023438 381.672851562 163.999023438 299.005859375 c 0
 163.999023438 221.672851562 160.33203125 157.005859375 152.999023438 105.005859375 c 0
 146.999023438 58.3388671875 138.666015625 35.005859375 127.999023438 35.005859375 c 0
EndSplineSet
EndChar

StartChar: seven
Encoding: 55 55 24
Width: 728
Flags: W
LayerCount: 2
Fore
SplineSet
560 66 m 0
 571.333007812 6 586 -23.9990234375 604 -23.9990234375 c 0
 621.333007812 -23.9990234375 636 6.0009765625 648 66.0009765625 c 0
 660 128.000976562 666 207.333984375 666 304.000976562 c 0
 666 405.333984375 660 484.666992188 648 542 c 0
 636 603.333007812 621.333007812 634 604 634 c 0
 586.666992188 634 572 603.333007812 560 542 c 0
 547.333007812 481.333007812 541 402 541 304 c 0
 541 207.333007812 547.333007812 128 560 66 c 0
399 66.0009765625 m 0
 410.333007812 6.0009765625 425 -23.998046875 443 -23.998046875 c 0
 460.333007812 -23.998046875 475 6.001953125 487 66.001953125 c 0
 499 128.001953125 505 207.334960938 505 304.001953125 c 0
 505 405.334960938 499 484.66796875 487 542.000976562 c 0
 475 603.333984375 460.333007812 634.000976562 443 634.000976562 c 0
 425.666992188 634.000976562 411 603.333984375 399 542.000976562 c 0
 386.333007812 481.333984375 380 402.000976562 380 304.000976562 c 0
 380 207.333984375 386.333007812 128.000976562 399 66.0009765625 c 0
238 66.001953125 m 0
 249.333007812 6.001953125 264 -23.9970703125 282 -23.9970703125 c 0
 299.333007812 -23.9970703125 314 6.0029296875 326 66.0029296875 c 0
 338 128.002929688 344 207.3359375 344 304.002929688 c 0
 344 405.3359375 338 484.668945312 326 542.001953125 c 0
 314 603.334960938 299.333007812 634.001953125 282 634.001953125 c 0
 264.666992188 634.001953125 250 603.334960938 238 542.001953125 c 0
 225.333007812 481.334960938 219 402.001953125 219 304.001953125 c 0
 219 207.334960938 225.333007812 128.001953125 238 66.001953125 c 0
83 66.0029296875 m 0
 94.3330078125 6.0029296875 109 -23.99609375 127 -23.99609375 c 0
 144.333007812 -23.99609375 159 6.00390625 171 66.00390625 c 0
 183 128.00390625 189 207.336914062 189 304.00390625 c 0
 189 405.336914062 183 484.669921875 171 542.002929688 c 0
 159 603.3359375 144.333007812 634.002929688 127 634.002929688 c 0
 109.666992188 634.002929688 95 603.3359375 83 542.002929688 c 0
 70.3330078125 481.3359375 64 402.002929688 64 304.002929688 c 0
 64 207.3359375 70.3330078125 128.002929688 83 66.0029296875 c 0
128 35.00390625 m 0
 119.333007812 34.3369140625 110.999023438 57.671875 102.999023438 105.004882812 c 0
 95.666015625 151.004882812 91.9990234375 215.671875 91.9990234375 299.004882812 c 0
 92.666015625 381.004882812 96.3330078125 446.671875 103 496.004882812 c 0
 109 542.004882812 117.333007812 565.337890625 128 566.004882812 c 0
 138 566.004882812 146.333007812 542.671875 153 496.004882812 c 0
 160.333007812 447.337890625 164 381.670898438 164 299.00390625 c 0
 164 221.670898438 160.333007812 157.00390625 153 105.00390625 c 0
 147 58.3369140625 138.666992188 35.00390625 128 35.00390625 c 0
EndSplineSet
EndChar

StartChar: eight
Encoding: 56 56 25
Width: 728
Flags: W
LayerCount: 2
Fore
SplineSet
560 66 m 0
 571.333007812 6 586 -23.9990234375 604 -23.9990234375 c 0
 621.333007812 -23.9990234375 636 6.0009765625 648 66.0009765625 c 0
 660 128.000976562 666 207.333984375 666 304.000976562 c 0
 666 405.333984375 660 484.666992188 648 542 c 0
 636 603.333007812 621.333007812 634 604 634 c 0
 586.666992188 634 572 603.333007812 560 542 c 0
 547.333007812 481.333007812 541 402 541 304 c 0
 541 207.333007812 547.333007812 128 560 66 c 0
605 35.0009765625 m 0
 596.333007812 34.333984375 587.999023438 57.6689453125 579.999023438 105.001953125 c 0
 572.666015625 151.001953125 568.999023438 215.668945312 568.999023438 299.001953125 c 0
 569.666015625 381.001953125 573.333007812 446.668945312 580 496.001953125 c 0
 586 542.001953125 594.333007812 565.334960938 605 566.001953125 c 0
 615 566.001953125 623.333007812 542.668945312 630 496.001953125 c 0
 637.333007812 447.334960938 641 381.66796875 641 299.000976562 c 0
 641 221.66796875 637.333007812 157.000976562 630 105.000976562 c 0
 624 58.333984375 615.666992188 35.0009765625 605 35.0009765625 c 0
398.999023438 66.0029296875 m 0
 410.33203125 6.0029296875 424.999023438 -23.99609375 442.999023438 -23.99609375 c 0
 460.33203125 -23.99609375 474.999023438 6.00390625 486.999023438 66.00390625 c 0
 498.999023438 128.00390625 504.999023438 207.336914062 504.999023438 304.00390625 c 0
 504.999023438 405.336914062 498.999023438 484.669921875 486.999023438 542.002929688 c 0
 474.999023438 603.3359375 460.33203125 634.002929688 442.999023438 634.002929688 c 0
 425.666015625 634.002929688 410.999023438 603.3359375 398.999023438 542.002929688 c 0
 386.33203125 481.3359375 379.999023438 402.002929688 379.999023438 304.002929688 c 0
 379.999023438 207.3359375 386.33203125 128.002929688 398.999023438 66.0029296875 c 0
443.999023438 35.00390625 m 0
 435.33203125 34.3369140625 426.998046875 57.671875 418.998046875 105.004882812 c 0
 411.665039062 151.004882812 407.998046875 215.671875 407.998046875 299.004882812 c 0
 408.665039062 381.004882812 412.33203125 446.671875 418.999023438 496.004882812 c 0
 424.999023438 542.004882812 433.33203125 565.337890625 443.999023438 566.004882812 c 0
 453.999023438 566.004882812 462.33203125 542.671875 468.999023438 496.004882812 c 0
 476.33203125 447.337890625 479.999023438 381.670898438 479.999023438 299.00390625 c 0
 479.999023438 221.670898438 476.33203125 157.00390625 468.999023438 105.00390625 c 0
 462.999023438 58.3369140625 454.666015625 35.00390625 443.999023438 35.00390625 c 0
237.998046875 66.005859375 m 0
 249.331054688 6.005859375 263.998046875 -23.9931640625 281.998046875 -23.9931640625 c 0
 299.331054688 -23.9931640625 313.998046875 6.0068359375 325.998046875 66.0068359375 c 0
 337.998046875 128.006835938 343.998046875 207.33984375 343.998046875 304.006835938 c 0
 343.998046875 405.33984375 337.998046875 484.672851562 325.998046875 542.005859375 c 0
 313.998046875 603.338867188 299.331054688 634.005859375 281.998046875 634.005859375 c 0
 264.665039062 634.005859375 249.998046875 603.338867188 237.998046875 542.005859375 c 0
 225.331054688 481.338867188 218.998046875 402.005859375 218.998046875 304.005859375 c 0
 218.998046875 207.338867188 225.331054688 128.005859375 237.998046875 66.005859375 c 0
282.998046875 35.0068359375 m 0
 274.331054688 34.33984375 265.997070312 57.6748046875 257.997070312 105.0078125 c 0
 250.6640625 151.0078125 246.997070312 215.674804688 246.997070312 299.0078125 c 0
 247.6640625 381.0078125 251.331054688 446.674804688 257.998046875 496.0078125 c 0
 263.998046875 542.0078125 272.331054688 565.340820312 282.998046875 566.0078125 c 0
 292.998046875 566.0078125 301.331054688 542.674804688 307.998046875 496.0078125 c 0
 315.331054688 447.340820312 318.998046875 381.673828125 318.998046875 299.006835938 c 0
 318.998046875 221.673828125 315.331054688 157.006835938 307.998046875 105.006835938 c 0
 301.998046875 58.33984375 293.665039062 35.0068359375 282.998046875 35.0068359375 c 0
82.9970703125 66.0087890625 m 0
 94.330078125 6.0087890625 108.997070312 -23.990234375 126.997070312 -23.990234375 c 0
 144.330078125 -23.990234375 158.997070312 6.009765625 170.997070312 66.009765625 c 0
 182.997070312 128.009765625 188.997070312 207.342773438 188.997070312 304.009765625 c 0
 188.997070312 405.342773438 182.997070312 484.67578125 170.997070312 542.008789062 c 0
 158.997070312 603.341796875 144.330078125 634.008789062 126.997070312 634.008789062 c 0
 109.6640625 634.008789062 94.9970703125 603.341796875 82.9970703125 542.008789062 c 0
 70.330078125 481.341796875 63.9970703125 402.008789062 63.9970703125 304.008789062 c 0
 63.9970703125 207.341796875 70.330078125 128.008789062 82.9970703125 66.0087890625 c 0
EndSplineSet
EndChar

StartChar: nine
Encoding: 57 57 26
Width: 728
Flags: W
LayerCount: 2
Fore
SplineSet
560 66 m 0
 571.333007812 6 586 -23.9990234375 604 -23.9990234375 c 0
 621.333007812 -23.9990234375 636 6.0009765625 648 66.0009765625 c 0
 660 128.000976562 666 207.333984375 666 304.000976562 c 0
 666 405.333984375 660 484.666992188 648 542 c 0
 636 603.333007812 621.333007812 634 604 634 c 0
 586.666992188 634 572 603.333007812 560 542 c 0
 547.333007812 481.333007812 541 402 541 304 c 0
 541 207.333007812 547.333007812 128 560 66 c 0
399 66.0009765625 m 0
 410.333007812 6.0009765625 425 -23.998046875 443 -23.998046875 c 0
 460.333007812 -23.998046875 475 6.001953125 487 66.001953125 c 0
 499 128.001953125 505 207.334960938 505 304.001953125 c 0
 505 405.334960938 499 484.66796875 487 542.000976562 c 0
 475 603.333984375 460.333007812 634.000976562 443 634.000976562 c 0
 425.666992188 634.000976562 411 603.333984375 399 542.000976562 c 0
 386.333007812 481.333984375 380 402.000976562 380 304.000976562 c 0
 380 207.333984375 386.333007812 128.000976562 399 66.0009765625 c 0
444 35.001953125 m 0
 435.333007812 34.3349609375 426.999023438 57.669921875 418.999023438 105.002929688 c 0
 411.666015625 151.002929688 407.999023438 215.669921875 407.999023438 299.002929688 c 0
 408.666015625 381.002929688 412.333007812 446.669921875 419 496.002929688 c 0
 425 542.002929688 433.333007812 565.3359375 444 566.002929688 c 0
 454 566.002929688 462.333007812 542.669921875 469 496.002929688 c 0
 476.333007812 447.3359375 480 381.668945312 480 299.001953125 c 0
 480 221.668945312 476.333007812 157.001953125 469 105.001953125 c 0
 463 58.3349609375 454.666992188 35.001953125 444 35.001953125 c 0
237.999023438 66.00390625 m 0
 249.33203125 6.00390625 263.999023438 -23.9951171875 281.999023438 -23.9951171875 c 0
 299.33203125 -23.9951171875 313.999023438 6.0048828125 325.999023438 66.0048828125 c 0
 337.999023438 128.004882812 343.999023438 207.337890625 343.999023438 304.004882812 c 0
 343.999023438 405.337890625 337.999023438 484.670898438 325.999023438 542.00390625 c 0
 313.999023438 603.336914062 299.33203125 634.00390625 281.999023438 634.00390625 c 0
 264.666015625 634.00390625 249.999023438 603.336914062 237.999023438 542.00390625 c 0
 225.33203125 481.336914062 218.999023438 402.00390625 218.999023438 304.00390625 c 0
 218.999023438 207.336914062 225.33203125 128.00390625 237.999023438 66.00390625 c 0
282.999023438 35.0048828125 m 0
 274.33203125 34.337890625 265.998046875 57.6728515625 257.998046875 105.005859375 c 0
 250.665039062 151.005859375 246.998046875 215.672851562 246.998046875 299.005859375 c 0
 247.665039062 381.005859375 251.33203125 446.672851562 257.999023438 496.005859375 c 0
 263.999023438 542.005859375 272.33203125 565.338867188 282.999023438 566.005859375 c 0
 292.999023438 566.005859375 301.33203125 542.672851562 307.999023438 496.005859375 c 0
 315.33203125 447.338867188 318.999023438 381.671875 318.999023438 299.004882812 c 0
 318.999023438 221.671875 315.33203125 157.004882812 307.999023438 105.004882812 c 0
 301.999023438 58.337890625 293.666015625 35.0048828125 282.999023438 35.0048828125 c 0
82.998046875 66.0068359375 m 0
 94.3310546875 6.0068359375 108.998046875 -23.9921875 126.998046875 -23.9921875 c 0
 144.331054688 -23.9921875 158.998046875 6.0078125 170.998046875 66.0078125 c 0
 182.998046875 128.0078125 188.998046875 207.340820312 188.998046875 304.0078125 c 0
 188.998046875 405.340820312 182.998046875 484.673828125 170.998046875 542.006835938 c 0
 158.998046875 603.33984375 144.331054688 634.006835938 126.998046875 634.006835938 c 0
 109.665039062 634.006835938 94.998046875 603.33984375 82.998046875 542.006835938 c 0
 70.3310546875 481.33984375 63.998046875 402.006835938 63.998046875 304.006835938 c 0
 63.998046875 207.33984375 70.3310546875 128.006835938 82.998046875 66.0068359375 c 0
EndSplineSet
EndChar

StartChar: colon
Encoding: 58 58 27
Width: 273
Flags: W
LayerCount: 2
Fore
SplineSet
178.5 487 m 0
 187.5 475.666992188 191.998046875 461.33203125 191.998046875 443.999023438 c 0
 191.998046875 426.666015625 186.331054688 410.833007812 174.998046875 396.5 c 0
 163.665039062 382.166992188 149.83203125 375 133.499023438 375 c 0
 117.166015625 375 104.333007812 381 95 393 c 0
 85.6669921875 405 81 419.666992188 81 437 c 0
 81 454.333007812 86.5 469.833007812 97.5 483.5 c 0
 108.5 497.166992188 122.5 504 139.5 504 c 0
 156.5 504 169.5 498.333007812 178.5 487 c 0
178.498046875 101.998046875 m 0
 187.498046875 90.6650390625 191.99609375 76.1650390625 191.99609375 58.498046875 c 0
 191.99609375 40.8310546875 186.329101562 24.998046875 174.99609375 10.998046875 c 0
 163.663085938 -3.001953125 149.830078125 -10.001953125 133.497070312 -10.001953125 c 0
 117.1640625 -10.001953125 104.331054688 -4.001953125 94.998046875 7.998046875 c 0
 85.6650390625 19.998046875 80.998046875 34.6650390625 80.998046875 51.998046875 c 0
 80.998046875 69.3310546875 86.498046875 84.8310546875 97.498046875 98.498046875 c 0
 108.498046875 112.165039062 122.498046875 118.998046875 139.498046875 118.998046875 c 0
 156.498046875 118.998046875 169.498046875 113.331054688 178.498046875 101.998046875 c 0
EndSplineSet
EndChar

StartChar: semicolon
Encoding: 59 59 28
Width: 283
Flags: W
LayerCount: 2
Fore
SplineSet
183.5 487 m 0
 192.5 475.666992188 196.998046875 461.33203125 196.998046875 443.999023438 c 0
 196.998046875 426.666015625 191.331054688 410.833007812 179.998046875 396.5 c 0
 168.665039062 382.166992188 154.83203125 375 138.499023438 375 c 0
 122.166015625 375 109.333007812 381 100 393 c 0
 90.6669921875 405 86 419.666992188 86 437 c 0
 86 454.333007812 91.5 469.833007812 102.5 483.5 c 0
 113.5 497.166992188 127.5 504 144.5 504 c 0
 161.5 504 174.5 498.333007812 183.5 487 c 0
195.998046875 35.998046875 m 0
 195.998046875 -0.001953125 183.998046875 -39.6689453125 159.998046875 -83.001953125 c 0
 135.998046875 -126.334960938 113.665039062 -148.001953125 92.998046875 -148.001953125 c 0
 72.3310546875 -148.001953125 61.998046875 -139.334960938 61.998046875 -122.001953125 c 0
 61.998046875 -112.668945312 67.1650390625 -99.501953125 77.498046875 -82.501953125 c 0
 87.8310546875 -65.501953125 92.998046875 -50.501953125 92.998046875 -37.501953125 c 0
 92.998046875 -24.501953125 91.6650390625 -12.001953125 88.998046875 -0.001953125 c 0
 86.3310546875 11.998046875 84.998046875 25.498046875 84.998046875 40.498046875 c 0
 84.998046875 55.498046875 90.3310546875 69.8310546875 100.998046875 83.498046875 c 0
 111.665039062 97.1650390625 125.498046875 103.998046875 142.498046875 103.998046875 c 0
 159.498046875 103.998046875 172.665039062 97.8310546875 181.998046875 85.498046875 c 0
 191.331054688 73.1650390625 195.998046875 56.6650390625 195.998046875 35.998046875 c 0
EndSplineSet
EndChar

StartChar: less
Encoding: 60 60 29
Width: 620
Flags: W
LayerCount: 2
Fore
SplineSet
85 376 m 0
 85 388 87.83203125 398.666015625 93.4990234375 407.999023438 c 0
 99.166015625 417.33203125 109.666015625 426.499023438 124.999023438 435.499023438 c 0
 140.33203125 444.499023438 153.999023438 451.666015625 165.999023438 456.999023438 c 0
 177.999023438 462.33203125 198.499023438 470.499023438 227.499023438 481.499023438 c 0
 256.499023438 492.499023438 279.83203125 501.666015625 297.499023438 508.999023438 c 0
 315.166015625 516.33203125 336.666015625 525.33203125 361.999023438 535.999023438 c 0
 387.33203125 546.666015625 406.499023438 554.833007812 419.499023438 560.5 c 0
 432.499023438 566.166992188 446.666015625 572 461.999023438 578 c 0
 489.999023438 588 510.166015625 593 522.499023438 593 c 0
 534.83203125 593 544.999023438 589.5 552.999023438 582.5 c 0
 560.999023438 575.5 564.999023438 566.666992188 564.999023438 556 c 0
 564.999023438 538 553.666015625 524 530.999023438 514 c 0
 506.33203125 504 474.665039062 491.833007812 435.998046875 477.5 c 0
 397.331054688 463.166992188 369.998046875 452.666992188 353.998046875 446 c 0
 252.665039062 406 201.998046875 382.666992188 201.998046875 376 c 0
 201.998046875 370.666992188 239.998046875 352.666992188 315.998046875 322 c 2
 352.998046875 306 l 2
 368.998046875 299.333007812 396.331054688 288.833007812 434.998046875 274.5 c 0
 473.665039062 260.166992188 505.33203125 248 529.999023438 238 c 0
 552.666015625 228 563.999023438 214 563.999023438 196 c 0
 563.999023438 185.333007812 559.999023438 176.5 551.999023438 169.5 c 0
 543.999023438 162.5 535.499023438 159 526.499023438 159 c 0
 517.499023438 159 508.166015625 160.166992188 498.499023438 162.5 c 0
 488.83203125 164.833007812 476.33203125 168.833007812 460.999023438 174.5 c 0
 445.666015625 180.166992188 431.333007812 186 418 192 c 0
 345.333007812 223.333007812 288 247 246 263 c 0
 204 279 177.166992188 289.666992188 165.5 295 c 0
 153.833007812 300.333007812 140.333007812 307.5 125 316.5 c 0
 109.666992188 325.5 99.1669921875 334.666992188 93.5 344 c 0
 87.8330078125 353.333007812 85 364 85 376 c 0
EndSplineSet
EndChar

StartChar: equal
Encoding: 61 61 30
Width: 662
Flags: W
LayerCount: 2
Fore
SplineSet
326 412 m 1
 142 409 l 2
 127.333007812 409 115.5 413 106.5 421 c 0
 97.5 429 93 439 93 451 c 0
 93 463 97.5 473 106.5 481 c 0
 115.5 489 127.333007812 493 142 493 c 2
 326 490 l 1
 520 493 l 2
 534.666992188 493 546.5 489 555.5 481 c 0
 564.5 473 569 463 569 451 c 0
 569 439 564.5 429 555.5 421 c 0
 546.5 413 534.666992188 409 520 409 c 2
 326 412 l 1
326 258 m 1
 142 255 l 2
 127.333007812 255 115.5 259 106.5 267 c 0
 97.5 275 93 285 93 297 c 0
 93 309 97.5 319 106.5 327 c 0
 115.5 335 127.333007812 339 142 339 c 2
 326 336 l 1
 520 339 l 2
 534.666992188 339 546.5 335 555.5 327 c 0
 564.5 319 569 309 569 297 c 0
 569 285 564.5 275 555.5 267 c 0
 546.5 259 534.666992188 255 520 255 c 2
 326 258 l 1
EndSplineSet
EndChar

StartChar: greater
Encoding: 62 62 31
Width: 620
Flags: W
LayerCount: 2
Fore
SplineSet
535 376 m 0
 535 364 532.166992188 353.333984375 526.5 344.000976562 c 0
 520.833007812 334.66796875 510.333007812 325.500976562 495 316.500976562 c 0
 479.666992188 307.500976562 466.166992188 300.333984375 454.5 295.000976562 c 0
 442.833007812 289.66796875 422.5 281.500976562 393.5 270.500976562 c 0
 364.5 259.500976562 341.166992188 250.333984375 323.5 243.000976562 c 0
 305.833007812 235.66796875 284.333007812 226.66796875 259 216.000976562 c 0
 233.666992188 205.333984375 214.5 197.166992188 201.5 191.5 c 0
 188.5 185.833007812 174.333007812 180 159 174 c 0
 131 164 110.833007812 159 98.5 159 c 0
 86.1669921875 159 76 162.5 68 169.5 c 0
 60 176.5 56 185.333007812 56 196 c 0
 56 214 67.3330078125 228 90 238 c 0
 114.666992188 248 146.333984375 260.166992188 185.000976562 274.5 c 0
 223.66796875 288.833007812 251.000976562 299.333007812 267.000976562 306 c 0
 367.66796875 346 418.000976562 369.333007812 418.000976562 376 c 0
 418.000976562 381.333007812 380.000976562 399.333007812 304.000976562 430 c 2
 266.000976562 446 l 2
 250.000976562 452.666992188 222.66796875 463.166992188 184.000976562 477.5 c 0
 145.333984375 491.833007812 113.666992188 504 89 514 c 0
 66.3330078125 524 55 538 55 556 c 0
 55 566.666992188 59 575.5 67 582.5 c 0
 75 589.5 83.5 593 92.5 593 c 0
 101.5 593 110.833007812 591.833007812 120.5 589.5 c 0
 130.166992188 587.166992188 142.666992188 583.166992188 158 577.5 c 0
 173.333007812 571.833007812 187.333007812 566 200 560 c 0
 273.333007812 528.666992188 331 505 373 489 c 0
 415 473 442 462.333007812 454 457 c 0
 466 451.666992188 479.666992188 444.5 495 435.5 c 0
 510.333007812 426.5 520.833007812 417.333007812 526.5 408 c 0
 532.166992188 398.666992188 535 388 535 376 c 0
EndSplineSet
EndChar

StartChar: question
Encoding: 63 63 32
Width: 521
Flags: W
LayerCount: 2
Fore
SplineSet
456 580 m 0
 456 554.666992188 450.5 530.001953125 439.5 506.001953125 c 0
 428.5 482.001953125 417.833007812 463.834960938 407.5 451.501953125 c 0
 397.166992188 439.168945312 381.333984375 422.001953125 360.000976562 400.001953125 c 0
 340.000976562 383.334960938 324.833984375 370.16796875 314.500976562 360.500976562 c 0
 304.16796875 350.833984375 294.16796875 338.000976562 284.500976562 322.000976562 c 0
 274.833984375 306.000976562 270.000976562 290.000976562 270.000976562 274.000976562 c 0
 270.000976562 230.000976562 255.000976562 208.000976562 225.000976562 208.000976562 c 0
 211.66796875 208.000976562 200.66796875 213.833984375 192.000976562 225.500976562 c 0
 183.333984375 237.16796875 179.000976562 252.66796875 179.000976562 272.000976562 c 0
 179.000976562 291.333984375 181.66796875 309.000976562 187.000976562 325.000976562 c 0
 192.333984375 341.000976562 201.333984375 356.66796875 214.000976562 372.000976562 c 0
 231.333984375 392.66796875 256.000976562 417.334960938 288.000976562 446.001953125 c 0
 304.000976562 464.001953125 316.000976562 478.001953125 324.000976562 488.001953125 c 0
 332.000976562 498.001953125 340.000976562 511.668945312 348.000976562 529.001953125 c 0
 356.000976562 546.334960938 360.000976562 563.334960938 360.000976562 580.001953125 c 0
 360.000976562 608.668945312 349.16796875 632.168945312 327.500976562 650.501953125 c 0
 305.833984375 668.834960938 281.333984375 678.001953125 254.000976562 678.001953125 c 0
 213.333984375 678.001953125 178.333984375 663.334960938 149.000976562 634.001953125 c 0
 133.000976562 615.334960938 118.500976562 606.001953125 105.500976562 606.001953125 c 0
 92.5009765625 606.001953125 82.333984375 610.168945312 75.0009765625 618.501953125 c 0
 67.66796875 626.834960938 64.0009765625 636.66796875 64.0009765625 648.000976562 c 0
 64.0009765625 673.333984375 83.16796875 699.333984375 121.500976562 726.000976562 c 0
 159.833984375 752.66796875 202.333984375 766.000976562 249.000976562 766.000976562 c 0
 310.333984375 766.000976562 360.166992188 748.16796875 398.5 712.500976562 c 0
 436.833007812 676.833984375 456 632.666992188 456 580 c 0
264 95.001953125 m 0
 272.666992188 83.6689453125 276.999023438 69.501953125 276.999023438 52.501953125 c 0
 276.999023438 35.501953125 271.33203125 20.001953125 259.999023438 6.001953125 c 0
 248.666015625 -7.998046875 234.999023438 -14.998046875 218.999023438 -14.998046875 c 0
 202.999023438 -14.998046875 190.499023438 -8.8310546875 181.499023438 3.501953125 c 0
 172.499023438 15.8349609375 167.999023438 30.3349609375 167.999023438 47.001953125 c 0
 167.999023438 63.6689453125 173.499023438 78.6689453125 184.499023438 92.001953125 c 0
 195.499023438 105.334960938 209.33203125 112.001953125 225.999023438 112.001953125 c 0
 242.666015625 112.001953125 255.333007812 106.334960938 264 95.001953125 c 0
EndSplineSet
EndChar

StartChar: at
Encoding: 64 64 33
Width: 938
Flags: W
LayerCount: 2
Fore
SplineSet
864 369 m 0
 864 300.333007812 847.166992188 242.83203125 813.5 196.499023438 c 0
 779.833007812 150.166015625 739.333007812 126.999023438 692 126.999023438 c 0
 632.666992188 126.999023438 593.666992188 154.666015625 575 209.999023438 c 1
 537 154.666015625 488.333007812 126.999023438 429 126.999023438 c 0
 399.666992188 126.999023438 373.333984375 133.999023438 350.000976562 147.999023438 c 0
 326.66796875 161.999023438 308.66796875 179.999023438 296.000976562 201.999023438 c 0
 270.000976562 245.33203125 257.000976562 291.999023438 257.000976562 341.999023438 c 0
 257.000976562 405.33203125 276.500976562 460.165039062 315.500976562 506.498046875 c 0
 354.500976562 552.831054688 404.333984375 575.998046875 465.000976562 575.998046875 c 0
 497.66796875 575.998046875 530.66796875 563.998046875 564.000976562 539.998046875 c 1
 573.333984375 563.998046875 588.666992188 575.998046875 610 575.998046875 c 0
 646 575.998046875 664 549.331054688 664 495.998046875 c 0
 664 489.331054688 660.666992188 464.331054688 654 420.998046875 c 0
 647.333007812 377.665039062 644 341.665039062 644 312.998046875 c 0
 644 243.665039062 659.666992188 208.998046875 691 208.998046875 c 0
 712.333007812 208.998046875 731.5 221.831054688 748.5 247.498046875 c 0
 765.5 273.165039062 774 314.33203125 774 370.999023438 c 0
 774 470.999023438 744.5 547.166015625 685.5 599.499023438 c 0
 626.5 651.83203125 554 677.999023438 468 677.999023438 c 0
 382 677.999023438 309 645.666015625 249 580.999023438 c 0
 189 516.33203125 159 435.499023438 159 338.499023438 c 0
 159 241.499023438 184.666992188 165.166015625 236 109.499023438 c 0
 287.333007812 53.83203125 349 25.9990234375 421 25.9990234375 c 0
 456.333007812 25.9990234375 493 33.4990234375 531 48.4990234375 c 0
 569 63.4990234375 589.333007812 70.9990234375 592 70.9990234375 c 0
 602.666992188 70.9990234375 611.333984375 67.83203125 618.000976562 61.4990234375 c 0
 624.66796875 55.166015625 628.000976562 46.9990234375 628.000976562 36.9990234375 c 0
 628.000976562 18.9990234375 607.500976562 -0.833984375 566.500976562 -22.5009765625 c 0
 525.500976562 -44.16796875 475.66796875 -55.0009765625 417.000976562 -55.0009765625 c 0
 317.66796875 -55.0009765625 234.000976562 -18.5009765625 166.000976562 54.4990234375 c 0
 98.0009765625 127.499023438 64.0009765625 222.166015625 64.0009765625 338.499023438 c 0
 64.0009765625 454.83203125 102.66796875 554.999023438 180.000976562 638.999023438 c 0
 257.333984375 722.999023438 353.166992188 764.999023438 467.5 764.999023438 c 0
 581.833007812 764.999023438 676.5 729.33203125 751.5 657.999023438 c 0
 826.5 586.666015625 864 490.333007812 864 369 c 0
561 333.999023438 m 1
 561 452.999023438 l 1
 528.333007812 476.999023438 496.5 488.999023438 465.5 488.999023438 c 0
 434.5 488.999023438 407.833007812 475.166015625 385.5 447.499023438 c 0
 363.166992188 419.83203125 352 386.83203125 352 348.499023438 c 0
 352 310.166015625 358.666992188 277.999023438 372 251.999023438 c 0
 385.333007812 225.999023438 405.5 212.999023438 432.5 212.999023438 c 0
 459.5 212.999023438 483.833007812 224.666015625 505.5 247.999023438 c 0
 527.166992188 271.33203125 545.666992188 299.999023438 561 333.999023438 c 1
EndSplineSet
EndChar

StartChar: A
Encoding: 65 65 34
Width: 692
Flags: W
LayerCount: 2
Fore
SplineSet
476 241 m 1
 347.000976562 244.000976562 l 2
 292.333984375 244.000976562 245.666992188 243.333984375 207 242.000976562 c 1
 194.333007812 202.000976562 184 167.333984375 176 138.000976562 c 0
 158 78.66796875 146.666992188 42.3349609375 142 29.001953125 c 0
 132.666992188 3.001953125 117.333984375 -9.998046875 96.0009765625 -9.998046875 c 0
 82.66796875 -9.998046875 72.66796875 -5.998046875 66.0009765625 2.001953125 c 0
 58.0009765625 10.001953125 54.0009765625 18.6689453125 54.0009765625 28.001953125 c 0
 54.0009765625 40.001953125 54.66796875 48.001953125 56.0009765625 52.001953125 c 0
 56.0009765625 54.001953125 58.0009765625 63.001953125 62.0009765625 79.001953125 c 0
 64.66796875 87.001953125 68.66796875 98.3349609375 74.0009765625 113.001953125 c 2
 116.000976562 239.001953125 l 1
 96.66796875 239.001953125 81.3349609375 243.334960938 70.001953125 252.001953125 c 0
 59.3349609375 260.668945312 54.001953125 271.668945312 54.001953125 285.001953125 c 0
 54.001953125 316.334960938 78.6689453125 332.001953125 128.001953125 332.001953125 c 2
 146.001953125 332.001953125 l 1
 161.334960938 375.334960938 198.001953125 477.334960938 256.001953125 638.001953125 c 0
 266.668945312 666.668945312 272.3359375 681.668945312 273.002929688 683.001953125 c 0
 274.3359375 688.334960938 276.668945312 694.001953125 280.001953125 700.001953125 c 0
 282.001953125 707.334960938 284.668945312 713.334960938 288.001953125 718.001953125 c 0
 289.334960938 720.001953125 292.001953125 724.334960938 296.001953125 731.001953125 c 0
 298.668945312 735.668945312 302.001953125 740.001953125 306.001953125 744.001953125 c 0
 307.334960938 745.334960938 310.66796875 748.001953125 316.000976562 752.001953125 c 0
 325.333984375 757.334960938 334.666992188 760.001953125 344 760.001953125 c 0
 353.333007812 760.001953125 361 759.001953125 367 757.001953125 c 0
 373 755.001953125 378.666992188 751.334960938 384 746.001953125 c 0
 389.333007812 740.668945312 394 735.001953125 398 729.001953125 c 0
 404 717.001953125 408 707.668945312 410 701.001953125 c 0
 414 692.334960938 418.666992188 680.66796875 424 666.000976562 c 0
 455.333007812 570.000976562 495.333007812 458.66796875 544 332.000976562 c 1
 580 333.000976562 l 2
 597.333007812 333.000976562 611.333007812 328.333984375 622 319.000976562 c 0
 633.333007812 310.333984375 639 298.666992188 639 284 c 0
 639 254.666992188 617 239 573 237 c 1
 600 156 l 2
 626 84.6669921875 639 44 639 34 c 0
 639 22.6669921875 635.333007812 12.6669921875 628 4 c 0
 620.666992188 -5.3330078125 610 -10 596 -10 c 0
 572 -10 554.666992188 3 544 29 c 0
 524.666992188 87 502 157.666992188 476 241 c 1
232.000976562 328.000976562 m 1
 289.333984375 326.66796875 330.668945312 326.000976562 356.001953125 326.000976562 c 0
 387.334960938 326.000976562 419.001953125 326.66796875 451.001953125 328.000976562 c 1
 381.001953125 529.333984375 345.334960938 630.000976562 344.001953125 630.000976562 c 0
 339.334960938 630.000976562 310.66796875 554.66796875 258.000976562 404.000976562 c 2
 232.000976562 328.000976562 l 1
EndSplineSet
EndChar

StartChar: B
Encoding: 66 66 35
Width: 651
Flags: W
LayerCount: 2
Fore
SplineSet
218 255 m 0
 218 263 223.333984375 271.328125 234.000976562 279.995117188 c 0
 244.66796875 288.662109375 262.500976562 300.329101562 287.500976562 314.99609375 c 0
 312.500976562 329.663085938 329.833984375 340.330078125 339.500976562 346.997070312 c 0
 349.16796875 353.6640625 356.66796875 358.6640625 362.000976562 361.997070312 c 0
 375.333984375 369.330078125 388.833984375 372.997070312 402.500976562 372.997070312 c 0
 416.16796875 372.997070312 427.000976562 370.330078125 435.000976562 364.997070312 c 0
 443.000976562 359.6640625 447.000976562 353.1640625 447.000976562 345.497070312 c 0
 447.000976562 337.830078125 443.500976562 331.330078125 436.500976562 325.997070312 c 0
 429.500976562 320.6640625 416.66796875 313.6640625 398.000976562 304.997070312 c 0
 379.333984375 296.330078125 368.666992188 291.330078125 366 289.997070312 c 0
 328 270.6640625 309 258.997070312 309 254.997070312 c 0
 309 250.997070312 328 239.330078125 366 219.997070312 c 0
 371.333007812 216.6640625 380 212.331054688 392 206.998046875 c 0
 404 201.665039062 413.333007812 197.33203125 420 193.999023438 c 0
 438 183.999023438 447 174.666015625 447 165.999023438 c 0
 447 157.33203125 443 150.33203125 435 144.999023438 c 0
 427 139.666015625 417.166992188 136.999023438 405.5 136.999023438 c 0
 393.833007812 136.999023438 383.5 138.83203125 374.5 142.499023438 c 0
 365.5 146.166015625 355 152.166015625 343 160.499023438 c 0
 331 168.83203125 312.5 180.33203125 287.5 194.999023438 c 0
 262.5 209.666015625 244.666992188 221.333007812 234 230 c 0
 223.333007812 238.666992188 218 247 218 255 c 0
324.000976562 92.9951171875 m 0
 280.000976562 92.9951171875 243.333984375 100.662109375 214.000976562 115.995117188 c 1
 212.000976562 147.995117188 211.000976562 195.662109375 211.000976562 258.995117188 c 0
 211.000976562 312.995117188 211.66796875 359.328125 213.000976562 397.995117188 c 1
 253.66796875 407.995117188 298.66796875 412.995117188 348.000976562 412.995117188 c 0
 397.333984375 412.995117188 439.333984375 397.995117188 474.000976562 367.995117188 c 0
 510.000976562 337.995117188 528.000976562 299.328125 528.000976562 251.995117188 c 0
 528.000976562 205.328125 510.000976562 167.328125 474.000976562 137.995117188 c 0
 438.000976562 107.995117188 388.000976562 92.9951171875 324.000976562 92.9951171875 c 0
114.000976562 723.995117188 m 2
 122 389.99609375 l 2
 122 225.329101562 120 142.99609375 116 142.99609375 c 0
 101.333007812 140.99609375 90.3330078125 135.99609375 83 127.99609375 c 0
 75.6669921875 119.329101562 72 108.662109375 72 95.9951171875 c 0
 72 83.9951171875 81.6669921875 71.328125 101 57.9951171875 c 0
 119.666992188 45.328125 143.333984375 35.328125 172.000976562 27.9951171875 c 0
 228.000976562 13.9951171875 276.66796875 6.9951171875 318.000976562 6.9951171875 c 0
 417.333984375 6.9951171875 493.333984375 30.662109375 546.000976562 77.9951171875 c 0
 598.000976562 124.662109375 624.000976562 182.662109375 624.000976562 251.995117188 c 0
 624.000976562 321.328125 598.000976562 379.328125 546.000976562 425.995117188 c 0
 494.000976562 473.995117188 426.66796875 497.995117188 344.000976562 497.995117188 c 0
 283.333984375 497.995117188 239.000976562 494.328125 211.000976562 486.995117188 c 1
 216.000976562 723.995117188 l 2
 216.000976562 740.662109375 211.333984375 754.662109375 202.000976562 765.995117188 c 0
 193.333984375 776.662109375 181.333984375 781.995117188 166.000976562 781.995117188 c 0
 150.66796875 781.995117188 138.000976562 776.662109375 128.000976562 765.995117188 c 0
 118.66796875 754.662109375 114.000976562 740.662109375 114.000976562 723.995117188 c 2
EndSplineSet
EndChar

StartChar: C
Encoding: 67 67 36
Width: 708
Flags: W
LayerCount: 2
Fore
SplineSet
256 431.5 m 0
 256 439.166992188 258.333007812 446.330078125 263 452.997070312 c 0
 267.666992188 459.6640625 275.666992188 465.331054688 287 469.998046875 c 0
 297 475.998046875 307.333007812 480.998046875 318 484.998046875 c 0
 336.666992188 491.665039062 352 496.998046875 364 500.998046875 c 0
 370 502.331054688 376.833007812 504.498046875 384.5 507.498046875 c 0
 392.166992188 510.498046875 398.5 512.831054688 403.5 514.498046875 c 0
 408.5 516.165039062 413.333007812 517.665039062 418 518.998046875 c 0
 433.333007812 524.331054688 449.666015625 530.331054688 466.999023438 536.998046875 c 0
 471.666015625 538.998046875 477.333007812 541.165039062 484 543.498046875 c 0
 490.666992188 545.831054688 496 547.831054688 500 549.498046875 c 0
 504 551.165039062 507.333007812 552.665039062 510 553.998046875 c 0
 512.666992188 554.665039062 517.833984375 556.165039062 525.500976562 558.498046875 c 0
 533.16796875 560.831054688 539.000976562 562.6640625 543.000976562 563.997070312 c 0
 563.66796875 571.330078125 579.000976562 574.997070312 589.000976562 574.997070312 c 0
 597.66796875 574.997070312 605.334960938 572.6640625 612.001953125 567.997070312 c 0
 618.001953125 562.6640625 621.001953125 556.6640625 621.001953125 549.997070312 c 0
 621.001953125 538.6640625 612.334960938 529.6640625 595.001953125 522.997070312 c 0
 580.334960938 517.6640625 556.334960938 509.331054688 523.001953125 497.998046875 c 0
 491.668945312 488.665039062 471.001953125 481.998046875 461.001953125 477.998046875 c 0
 383.668945312 451.331054688 345.001953125 435.998046875 345.001953125 431.998046875 c 0
 345.001953125 427.998046875 373.668945312 415.665039062 431.001953125 394.998046875 c 2
 460.001953125 384.998046875 l 2
 470.001953125 380.998046875 490.668945312 374.331054688 522.001953125 364.998046875 c 0
 555.334960938 353.665039062 579.66796875 345.33203125 595.000976562 339.999023438 c 0
 611.66796875 333.999023438 620.000976562 324.999023438 620.000976562 312.999023438 c 0
 620.000976562 306.33203125 617.000976562 300.33203125 611.000976562 294.999023438 c 0
 604.333984375 290.33203125 598.000976562 287.999023438 592.000976562 287.999023438 c 0
 584.000976562 287.999023438 577.000976562 288.999023438 571.000976562 290.999023438 c 0
 563.000976562 292.33203125 553.333984375 294.999023438 542.000976562 298.999023438 c 0
 540.66796875 299.666015625 530.000976562 302.999023438 510.000976562 308.999023438 c 0
 456.66796875 329.666015625 413.000976562 345.666015625 379.000976562 356.999023438 c 0
 354.333984375 365.666015625 333.666992188 372.666015625 317 377.999023438 c 0
 306.333007812 382.666015625 296.333007812 387.666015625 287 392.999023438 c 0
 275.666992188 398.33203125 267.666992188 403.999023438 263 409.999023438 c 0
 258.333007812 416.666015625 256 423.833007812 256 431.5 c 0
294 241.99609375 m 2
 438 239.99609375 l 1
 582 241.99609375 l 2
 594 241.99609375 603 239.329101562 609 233.99609375 c 0
 616.333007812 229.329101562 620 222.829101562 620 214.49609375 c 0
 620 206.163085938 616.333007812 199.663085938 609 194.99609375 c 0
 603 189.663085938 594 186.99609375 582 186.99609375 c 2
 438 188.99609375 l 1
 294 186.99609375 l 2
 282 186.99609375 273 189.663085938 267 194.99609375 c 0
 259.666992188 199.663085938 256 206.163085938 256 214.49609375 c 0
 256 222.829101562 259.666992188 229.329101562 267 233.99609375 c 0
 273 239.329101562 282 241.99609375 294 241.99609375 c 2
655 105.99609375 m 0
 655 81.99609375 630.16796875 55.830078125 580.500976562 27.4970703125 c 0
 530.833984375 -0.8359375 472.333984375 -15.0029296875 405.000976562 -15.0029296875 c 0
 309.66796875 -15.0029296875 230.334960938 22.9970703125 167.001953125 98.9970703125 c 0
 103.668945312 174.997070312 72.001953125 267.330078125 72.001953125 375.997070312 c 0
 72.001953125 484.6640625 103.834960938 576.6640625 167.501953125 651.997070312 c 0
 231.168945312 727.330078125 311.001953125 764.997070312 407.001953125 764.997070312 c 0
 465.668945312 764.997070312 518.168945312 753.997070312 564.501953125 731.997070312 c 0
 610.834960938 709.997070312 634.001953125 685.330078125 634.001953125 657.997070312 c 0
 634.001953125 644.6640625 630.001953125 633.997070312 622.001953125 625.997070312 c 0
 614.001953125 617.997070312 603.168945312 613.997070312 589.501953125 613.997070312 c 0
 575.834960938 613.997070312 557.66796875 621.6640625 535.000976562 636.997070312 c 0
 492.333984375 664.330078125 449.666992188 677.997070312 407 677.997070312 c 0
 337.666992188 677.997070312 280.5 648.1640625 235.5 588.497070312 c 0
 190.5 528.830078125 168 458.163085938 168 376.49609375 c 0
 168 294.829101562 190.5 223.662109375 235.5 162.995117188 c 0
 280.5 102.328125 335.666992188 71.9951171875 401 71.9951171875 c 0
 466.333007812 71.9951171875 526 88.328125 580 120.995117188 c 0
 602 132.995117188 616.833007812 138.995117188 624.5 138.995117188 c 0
 632.166992188 138.995117188 639.166992188 135.828125 645.5 129.495117188 c 0
 651.833007812 123.162109375 655 115.329101562 655 105.99609375 c 0
EndSplineSet
EndChar

StartChar: D
Encoding: 68 68 37
Width: 759
Flags: W
LayerCount: 2
Fore
SplineSet
128 376 m 1
 123.000976562 636 l 1
 93.66796875 639.333007812 79.0009765625 653.333007812 79.0009765625 678 c 0
 79.0009765625 702.666992188 105.333984375 723.333984375 158.000976562 740.000976562 c 0
 211.333984375 756.000976562 266.000976562 764.000976562 322.000976562 764.000976562 c 0
 377.333984375 764.000976562 429.666992188 753.000976562 479 731.000976562 c 0
 527.666992188 709.000976562 566.666992188 679.333984375 596 642.000976562 c 0
 656.666992188 566.66796875 687 476.66796875 687 372.000976562 c 0
 687 270.66796875 658 182.66796875 600 108.000976562 c 0
 570.666992188 70.66796875 532.666992188 40.66796875 486 18.0009765625 c 0
 439.333007812 -3.9990234375 383 -14.9990234375 317 -14.9990234375 c 0
 251 -14.9990234375 194.333007812 -6.666015625 147 10.0009765625 c 0
 99 27.333984375 75 48.6669921875 75 74 c 0
 75 98.6669921875 91.6669921875 111 125 111 c 1
 128 376 l 1
520.000976562 590 m 0
 471.333984375 648.666992188 402.333984375 677.999023438 313.000976562 677.999023438 c 0
 276.333984375 677.999023438 246.000976562 672.33203125 222.000976562 660.999023438 c 1
 220.000976562 620.33203125 219.000976562 529.999023438 219.000976562 389.999023438 c 0
 219.000976562 258.666015625 220.66796875 156.999023438 224.000976562 84.9990234375 c 1
 247.333984375 76.33203125 281.000976562 71.9990234375 325.000976562 71.9990234375 c 0
 368.333984375 71.9990234375 407.333984375 80.666015625 442.000976562 97.9990234375 c 0
 476.000976562 113.999023438 504.000976562 137.33203125 526.000976562 167.999023438 c 0
 569.333984375 228.666015625 591.000976562 299.333007812 591.000976562 380 c 0
 591.000976562 459.333007812 567.333984375 529.333007812 520.000976562 590 c 0
EndSplineSet
EndChar

StartChar: E
Encoding: 69 69 38
Width: 639
Flags: W
LayerCount: 2
Fore
SplineSet
472 233 m 0
 478 227 481 219.333007812 481 210 c 0
 481 201.333007812 477 193 469 185 c 0
 461.666992188 177.666992188 452.333984375 174 441.000976562 174 c 0
 430.333984375 174 421.666992188 177.333007812 415 184 c 0
 409 190 406 197.666992188 406 207 c 0
 406 216.333007812 409.666992188 224.333007812 417 231 c 0
 423.666992188 238.333007812 433 242 445 242 c 0
 456.333007812 242 465.333007812 239 472 233 c 0
550 468 m 0
 550 453.333007812 547.668945312 440.000976562 543.001953125 428.000976562 c 0
 538.334960938 414.66796875 533.334960938 404.66796875 528.001953125 398.000976562 c 0
 522.001953125 388.66796875 515.001953125 379.334960938 507.001953125 370.001953125 c 2
 486.001953125 349.001953125 l 2
 480.668945312 342.334960938 476.3359375 335.334960938 473.002929688 328.001953125 c 0
 468.3359375 318.668945312 466.002929688 310.001953125 466.002929688 302.001953125 c 0
 466.002929688 278.668945312 459.3359375 267.001953125 446.002929688 267.001953125 c 0
 440.002929688 267.001953125 435.002929688 270.001953125 431.002929688 276.001953125 c 0
 427.669921875 281.334960938 426.002929688 289.66796875 426.002929688 301.000976562 c 0
 426.002929688 311.000976562 427.002929688 320.66796875 429.002929688 330.000976562 c 0
 430.3359375 336.000976562 434.3359375 344.333984375 441.002929688 355.000976562 c 0
 451.669921875 369.66796875 463.002929688 383.000976562 475.002929688 395.000976562 c 0
 484.3359375 408.333984375 489.668945312 416.000976562 491.001953125 418.000976562 c 0
 494.334960938 423.333984375 498.001953125 430.666992188 502.001953125 440 c 0
 505.334960938 450 507.001953125 459.333007812 507.001953125 468 c 0
 507.001953125 483.333007812 502.001953125 496 492.001953125 506 c 0
 483.334960938 515.333007812 472.334960938 520 459.001953125 520 c 0
 440.334960938 520 424.66796875 512.333007812 412.000976562 497 c 0
 405.333984375 487 398.666992188 482 392 482 c 0
 386.666992188 482 382.333984375 484 379.000976562 488 c 0
 375.66796875 492 374.000976562 497.333007812 374.000976562 504 c 0
 374.000976562 518.666992188 382.66796875 532.666992188 400.000976562 546 c 0
 416.66796875 560.666992188 435.66796875 568 457.000976562 568 c 0
 484.333984375 568 506.666992188 558.333007812 524 539 c 0
 541.333007812 521 550 497.333007812 550 468 c 0
476.001953125 662.000976562 m 2
 317.001953125 668.005859375 l 2
 281.001953125 669.338867188 235.334960938 667.671875 180.001953125 663.004882812 c 1
 180.001953125 441.004882812 l 1
 202.668945312 439.671875 215.001953125 439.338867188 217.001953125 440.005859375 c 2
 234.001953125 445.005859375 l 2
 246.001953125 448.338867188 260.334960938 444.005859375 277.001953125 432.005859375 c 0
 287.668945312 424.005859375 293.001953125 413.005859375 293.001953125 399.005859375 c 0
 293.001953125 360.338867188 273.334960938 345.671875 234.001953125 355.004882812 c 2
 217.001953125 359.004882812 l 2
 214.334960938 359.671875 202.001953125 359.338867188 180.001953125 358.005859375 c 1
 180.001953125 279.005859375 l 2
 180.001953125 178.338867188 181.334960938 114.338867188 184.001953125 87.005859375 c 1
 238.668945312 82.3388671875 284.001953125 80.671875 320.001953125 82.0048828125 c 2
 479.001953125 88.0048828125 l 2
 497.001953125 88.671875 511.334960938 84.671875 522.001953125 76.0048828125 c 0
 533.334960938 67.337890625 539.001953125 55.6708984375 539.001953125 41.00390625 c 0
 539.001953125 26.3369140625 533.334960938 14.669921875 522.001953125 6.0029296875 c 0
 510.001953125 -2.6640625 495.668945312 -6.6640625 479.001953125 -5.9970703125 c 2
 320.001953125 0.0029296875 l 1
 139.001953125 -4.9970703125 l 2
 101.668945312 -6.330078125 83.6689453125 9.0029296875 85.001953125 41.0029296875 c 0
 85.6689453125 63.669921875 86.6689453125 102.002929688 88.001953125 156.002929688 c 0
 89.3349609375 225.3359375 90.001953125 291.668945312 90.001953125 355.001953125 c 2
 90.001953125 445.001953125 l 2
 89.3349609375 564.334960938 87.001953125 639.334960938 83.001953125 670.001953125 c 1
 75.001953125 683.334960938 71.001953125 696.66796875 71.001953125 710.000976562 c 0
 71.001953125 741.333984375 91.6689453125 756.333984375 133.001953125 755.000976562 c 2
 317.001953125 750.000976562 l 1
 476.001953125 756.000976562 l 2
 494.001953125 756.66796875 508.668945312 752.66796875 520.001953125 744.000976562 c 0
 530.668945312 736.000976562 536.001953125 724.333984375 536.001953125 709.000976562 c 0
 536.001953125 693.66796875 530.668945312 682.000976562 520.001953125 674.000976562 c 0
 508.668945312 665.333984375 494.001953125 661.333984375 476.001953125 662.000976562 c 2
EndSplineSet
EndChar

StartChar: F
Encoding: 70 70 39
Width: 728
Flags: W
LayerCount: 2
Fore
SplineSet
560 66 m 0
 571.333007812 6 586 -23.9990234375 604 -23.9990234375 c 0
 621.333007812 -23.9990234375 636 6.0009765625 648 66.0009765625 c 0
 660 128.000976562 666 207.333984375 666 304.000976562 c 0
 666 405.333984375 660 484.666992188 648 542 c 0
 636 603.333007812 621.333007812 634 604 634 c 0
 586.666992188 634 572 603.333007812 560 542 c 0
 547.333007812 481.333007812 541 402 541 304 c 0
 541 207.333007812 547.333007812 128 560 66 c 0
399 66.0009765625 m 0
 410.333007812 6.0009765625 425 -23.998046875 443 -23.998046875 c 0
 460.333007812 -23.998046875 475 6.001953125 487 66.001953125 c 0
 499 128.001953125 505 207.334960938 505 304.001953125 c 0
 505 405.334960938 499 484.66796875 487 542.000976562 c 0
 475 603.333984375 460.333007812 634.000976562 443 634.000976562 c 0
 425.666992188 634.000976562 411 603.333984375 399 542.000976562 c 0
 386.333007812 481.333984375 380 402.000976562 380 304.000976562 c 0
 380 207.333984375 386.333007812 128.000976562 399 66.0009765625 c 0
238 66.001953125 m 0
 249.333007812 6.001953125 264 -23.9970703125 282 -23.9970703125 c 0
 299.333007812 -23.9970703125 314 6.0029296875 326 66.0029296875 c 0
 338 128.002929688 344 207.3359375 344 304.002929688 c 0
 344 405.3359375 338 484.668945312 326 542.001953125 c 0
 314 603.334960938 299.333007812 634.001953125 282 634.001953125 c 0
 264.666992188 634.001953125 250 603.334960938 238 542.001953125 c 0
 225.333007812 481.334960938 219 402.001953125 219 304.001953125 c 0
 219 207.334960938 225.333007812 128.001953125 238 66.001953125 c 0
83 66.0029296875 m 0
 94.3330078125 6.0029296875 109 -23.99609375 127 -23.99609375 c 0
 144.333007812 -23.99609375 159 6.00390625 171 66.00390625 c 0
 183 128.00390625 189 207.336914062 189 304.00390625 c 0
 189 405.336914062 183 484.669921875 171 542.002929688 c 0
 159 603.3359375 144.333007812 634.002929688 127 634.002929688 c 0
 109.666992188 634.002929688 95 603.3359375 83 542.002929688 c 0
 70.3330078125 481.3359375 64 402.002929688 64 304.002929688 c 0
 64 207.3359375 70.3330078125 128.002929688 83 66.0029296875 c 0
EndSplineSet
EndChar

StartChar: G
Encoding: 71 71 40
Width: 772
Flags: W
LayerCount: 2
Fore
SplineSet
561 456 m 0
 561 448.666992188 559.329101562 442.998046875 555.99609375 438.998046875 c 0
 553.329101562 434.331054688 546.99609375 429.331054688 536.99609375 423.998046875 c 0
 524.99609375 417.998046875 516.663085938 413.998046875 511.99609375 411.998046875 c 0
 506.663085938 409.998046875 493.99609375 405.665039062 473.99609375 398.998046875 c 0
 451.99609375 391.665039062 437.329101562 386.665039062 429.99609375 383.998046875 c 0
 410.663085938 376.665039062 397.330078125 371.998046875 389.997070312 369.998046875 c 0
 386.6640625 368.665039062 382.331054688 366.83203125 376.998046875 364.499023438 c 0
 371.665039062 362.166015625 367.33203125 360.333007812 363.999023438 359 c 0
 360.666015625 357.666992188 357.666015625 356.666992188 354.999023438 356 c 2
 327.999023438 347 l 2
 309.999023438 341.666992188 297.666015625 339 290.999023438 339 c 0
 283.666015625 339 277.333007812 340.666992188 272 344 c 0
 266.666992188 348 264 353 264 359 c 0
 264 369 271.333007812 376.333007812 286 381 c 0
 292.666992188 383.666992188 312 390.333984375 344 401.000976562 c 2
 395 418.000976562 l 2
 457.666992188 440.000976562 489 452.66796875 489 456.000976562 c 0
 489 458.66796875 465.333007812 468.66796875 418 486.000976562 c 2
 395 494.000976562 l 1
 344 511.000976562 l 2
 335.333007812 513.66796875 324.333007812 517.16796875 311 521.500976562 c 0
 297.666992188 525.833984375 289 528.666992188 285 530 c 0
 271 536 264 543.666992188 264 553 c 0
 264 559.666992188 266.333007812 564.333984375 271 567.000976562 c 0
 275.666992188 571.000976562 281 573.000976562 287 573.000976562 c 0
 294.333007812 573.000976562 300 572.333984375 304 571.000976562 c 0
 310 570.333984375 318 568.333984375 328 565.000976562 c 0
 340 561.000976562 348.666992188 558.000976562 354 556.000976562 c 0
 395.333007812 540.66796875 431 527.66796875 461 517.000976562 c 0
 467.666992188 514.333984375 475 511.833984375 483 509.500976562 c 0
 491 507.16796875 497.166992188 505.16796875 501.5 503.500976562 c 0
 505.833007812 501.833984375 509 500.666992188 511 500 c 0
 516.333007812 498 525 494 537 488 c 0
 547 482.666992188 553.333007812 477.666992188 556 473 c 0
 559.333007812 469 561 463.333007812 561 456 c 0
530.99609375 255.998046875 m 2
 412.99609375 256.998046875 l 1
 294.99609375 255.998046875 l 2
 286.329101562 255.998046875 278.99609375 257.998046875 272.99609375 261.998046875 c 0
 267.663085938 265.998046875 264.99609375 271.331054688 264.99609375 277.998046875 c 0
 264.99609375 283.998046875 267.663085938 289.665039062 272.99609375 294.998046875 c 0
 278.99609375 298.998046875 286.329101562 300.998046875 294.99609375 300.998046875 c 2
 412.99609375 298.998046875 l 1
 530.99609375 300.998046875 l 2
 539.663085938 300.998046875 546.99609375 298.998046875 552.99609375 294.998046875 c 0
 558.329101562 290.331054688 560.99609375 284.6640625 560.99609375 277.997070312 c 0
 560.99609375 270.6640625 558.329101562 265.331054688 552.99609375 261.998046875 c 0
 546.99609375 257.998046875 539.663085938 255.998046875 530.99609375 255.998046875 c 2
711.99609375 352.998046875 m 1
 711.99609375 238.998046875 683.329101562 149.330078125 625.99609375 83.9970703125 c 0
 569.99609375 17.9970703125 495.329101562 -15.0029296875 401.99609375 -15.0029296875 c 0
 308.663085938 -15.0029296875 230.330078125 22.9970703125 166.997070312 98.9970703125 c 0
 103.6640625 175.6640625 71.9970703125 267.997070312 71.9970703125 375.997070312 c 0
 71.9970703125 484.6640625 104.6640625 576.6640625 169.997070312 651.997070312 c 0
 235.330078125 727.330078125 317.997070312 764.997070312 417.997070312 764.997070312 c 0
 479.997070312 764.997070312 536.6640625 752.6640625 587.997070312 727.997070312 c 1
 557.997070312 633.997070312 l 1
 516.6640625 663.330078125 469.997070312 677.997070312 417.997070312 677.997070312 c 0
 345.997070312 677.997070312 286.330078125 648.330078125 238.997070312 588.997070312 c 0
 191.6640625 529.6640625 167.997070312 459.331054688 167.997070312 377.998046875 c 0
 167.997070312 295.998046875 190.6640625 224.665039062 235.997070312 163.998046875 c 0
 280.6640625 102.665039062 337.6640625 71.998046875 406.997070312 71.998046875 c 0
 463.6640625 71.998046875 510.997070312 92.998046875 548.997070312 134.998046875 c 0
 586.330078125 176.331054688 606.663085938 235.998046875 609.99609375 313.998046875 c 1
 711.99609375 352.998046875 l 1
EndSplineSet
EndChar

StartChar: H
Encoding: 72 72 41
Width: 768
Flags: W
LayerCount: 2
Fore
SplineSet
553 353 m 1
 380.999023438 354.99609375 l 2
 292.33203125 354.99609375 236.33203125 354.663085938 212.999023438 353.99609375 c 1
 212.999023438 301.329101562 213.999023438 239.99609375 215.999023438 169.99609375 c 0
 217.999023438 101.329101562 218.999023438 64.99609375 218.999023438 60.99609375 c 0
 218.999023438 13.6630859375 201.999023438 -10.00390625 167.999023438 -10.00390625 c 0
 133.999023438 -10.00390625 116.999023438 13.6630859375 116.999023438 60.99609375 c 0
 116.999023438 64.3291015625 117.999023438 100.329101562 119.999023438 168.99609375 c 0
 121.999023438 238.329101562 122.999023438 298.99609375 122.999023438 350.99609375 c 1
 80.33203125 350.99609375 58.9990234375 365.99609375 58.9990234375 395.99609375 c 0
 58.9990234375 409.99609375 64.666015625 421.329101562 75.9990234375 429.99609375 c 0
 85.9990234375 437.99609375 101.666015625 441.99609375 122.999023438 441.99609375 c 1
 122.999023438 494.663085938 121.999023438 547.99609375 119.999023438 601.99609375 c 0
 117.999023438 656.663085938 116.999023438 685.663085938 116.999023438 688.99609375 c 0
 116.999023438 736.329101562 133.999023438 759.99609375 167.999023438 759.99609375 c 0
 201.999023438 759.99609375 218.999023438 736.329101562 218.999023438 688.99609375 c 0
 218.999023438 685.663085938 217.999023438 656.330078125 215.999023438 600.997070312 c 0
 213.999023438 545.6640625 212.999023438 491.6640625 212.999023438 438.997070312 c 1
 299.666015625 437.6640625 364.666015625 436.997070312 407.999023438 436.997070312 c 0
 461.999023438 436.997070312 510.33203125 437.6640625 552.999023438 438.997070312 c 1
 552.999023438 491.6640625 551.999023438 545.6640625 549.999023438 600.997070312 c 0
 549.999023438 616.997070312 549.83203125 632.1640625 549.499023438 646.497070312 c 0
 549.166015625 660.830078125 548.833007812 671.330078125 548.5 677.997070312 c 0
 548.166992188 684.6640625 548 688.331054688 548 688.998046875 c 0
 548 736.331054688 565 759.998046875 599 759.998046875 c 0
 633 759.998046875 650 736.331054688 650 688.998046875 c 0
 650 685.665039062 649 656.998046875 647 602.998046875 c 0
 645 548.998046875 644 495.665039062 644 442.998046875 c 1
 664.666992188 442.998046875 680.666992188 438.665039062 692 429.998046875 c 0
 703.333007812 420.665039062 709 409.33203125 709 395.999023438 c 0
 709 382.666015625 703.333007812 371.333007812 692 362 c 0
 680 354 664 350 644 350 c 1
 644 298 645 237.333007812 647 168 c 0
 649 100 650 64.3330078125 650 61 c 0
 650 13.6669921875 633 -10 599 -10 c 0
 565 -10 548 13.6669921875 548 61 c 2
 553 353 l 1
EndSplineSet
EndChar

StartChar: I
Encoding: 73 73 42
Width: 604
Flags: W
LayerCount: 2
Fore
SplineSet
403 661 m 2
 304 664 l 1
 205 661 l 2
 189.666992188 661 178 665 170 673 c 0
 160.666992188 680.333007812 156 690.333007812 156 703 c 0
 156 715.666992188 160.666992188 725.666992188 170 733 c 0
 178 741 189.666992188 745 205 745 c 2
 304 742 l 1
 403 745 l 2
 418.333007812 745 430 741 438 733 c 0
 447.333007812 725.666992188 452 715.666992188 452 703 c 0
 452 690.333007812 447.333007812 680.333007812 438 673 c 0
 430 665 418.333007812 661 403 661 c 2
351 589 m 2
 346 372.999023438 l 1
 326 121.999023438 l 1
 340.666992188 153.999023438 371.666992188 213.999023438 419 301.999023438 c 0
 426.333007812 315.999023438 434 322.999023438 442 322.999023438 c 0
 449.333007812 322.999023438 455.666015625 319.33203125 460.999023438 311.999023438 c 0
 465.666015625 304.666015625 467.999023438 296.333007812 467.999023438 287 c 0
 467.999023438 281 467.33203125 273.333007812 465.999023438 264 c 0
 464.666015625 257.333007812 461.666015625 249.666015625 456.999023438 240.999023438 c 0
 455.666015625 238.999023438 453.499023438 234.999023438 450.499023438 228.999023438 c 0
 447.499023438 222.999023438 444.999023438 218.33203125 442.999023438 214.999023438 c 0
 433.666015625 198.33203125 419.666015625 174.665039062 400.999023438 143.998046875 c 0
 393.666015625 131.331054688 382.333007812 110.998046875 367 82.998046875 c 0
 353 56.998046875 340 33.998046875 328 13.998046875 c 0
 318.666992188 -0.001953125 309.666992188 -7.001953125 301 -7.001953125 c 0
 291 -7.001953125 282 -0.001953125 274 13.998046875 c 0
 263.333007812 35.3310546875 250.333007812 58.3310546875 235 82.998046875 c 0
 225 99.6650390625 215.333007812 117.33203125 206 135.999023438 c 0
 198.666992188 148.666015625 190.666992188 162.333007812 182 177 c 0
 174 190.333007812 166.333007812 203 159 215 c 0
 157 218.333007812 154.5 223 151.5 229 c 0
 148.5 235 146.333007812 239 145 241 c 0
 137.666992188 257 134 270.666992188 134 282 c 0
 134 294.666992188 136.666992188 304.666992188 142 312 c 0
 146 319.333007812 152 323 160 323 c 0
 168 323 175.666992188 316 183 302 c 0
 227.666992188 212.666992188 258.666992188 152.666992188 276 122 c 1
 265 373 l 1
 260 589 l 2
 259.333007812 605.666992188 263.333007812 620 272 632 c 0
 281.333007812 643.333007812 292.333007812 649 305 649 c 0
 321.666992188 649 332.666992188 643.333007812 338 632 c 0
 346.666992188 608 351 593.666992188 351 589 c 2
EndSplineSet
EndChar

StartChar: J
Encoding: 74 74 43
Width: 728
Flags: W
LayerCount: 2
Fore
SplineSet
560 66 m 0
 571.333007812 6 586 -23.9990234375 604 -23.9990234375 c 0
 621.333007812 -23.9990234375 636 6.0009765625 648 66.0009765625 c 0
 660 128.000976562 666 207.333984375 666 304.000976562 c 0
 666 405.333984375 660 484.666992188 648 542 c 0
 636 603.333007812 621.333007812 634 604 634 c 0
 586.666992188 634 572 603.333007812 560 542 c 0
 547.333007812 481.333007812 541 402 541 304 c 0
 541 207.333007812 547.333007812 128 560 66 c 0
399 66.0009765625 m 0
 410.333007812 6.0009765625 425 -23.998046875 443 -23.998046875 c 0
 460.333007812 -23.998046875 475 6.001953125 487 66.001953125 c 0
 499 128.001953125 505 207.334960938 505 304.001953125 c 0
 505 405.334960938 499 484.66796875 487 542.000976562 c 0
 475 603.333984375 460.333007812 634.000976562 443 634.000976562 c 0
 425.666992188 634.000976562 411 603.333984375 399 542.000976562 c 0
 386.333007812 481.333984375 380 402.000976562 380 304.000976562 c 0
 380 207.333984375 386.333007812 128.000976562 399 66.0009765625 c 0
238 66.001953125 m 0
 249.333007812 6.001953125 264 -23.9970703125 282 -23.9970703125 c 0
 299.333007812 -23.9970703125 314 6.0029296875 326 66.0029296875 c 0
 338 128.002929688 344 207.3359375 344 304.002929688 c 0
 344 405.3359375 338 484.668945312 326 542.001953125 c 0
 314 603.334960938 299.333007812 634.001953125 282 634.001953125 c 0
 264.666992188 634.001953125 250 603.334960938 238 542.001953125 c 0
 225.333007812 481.334960938 219 402.001953125 219 304.001953125 c 0
 219 207.334960938 225.333007812 128.001953125 238 66.001953125 c 0
283 35.0029296875 m 0
 274.333007812 34.3359375 265.999023438 57.6708984375 257.999023438 105.00390625 c 0
 250.666015625 151.00390625 246.999023438 215.670898438 246.999023438 299.00390625 c 0
 247.666015625 381.00390625 251.333007812 446.670898438 258 496.00390625 c 0
 264 542.00390625 272.333007812 565.336914062 283 566.00390625 c 0
 293 566.00390625 301.333007812 542.670898438 308 496.00390625 c 0
 315.333007812 447.336914062 319 381.669921875 319 299.002929688 c 0
 319 221.669921875 315.333007812 157.002929688 308 105.002929688 c 0
 302 58.3359375 293.666992188 35.0029296875 283 35.0029296875 c 0
82.9990234375 66.0048828125 m 0
 94.33203125 6.0048828125 108.999023438 -23.994140625 126.999023438 -23.994140625 c 0
 144.33203125 -23.994140625 158.999023438 6.005859375 170.999023438 66.005859375 c 0
 182.999023438 128.005859375 188.999023438 207.338867188 188.999023438 304.005859375 c 0
 188.999023438 405.338867188 182.999023438 484.671875 170.999023438 542.004882812 c 0
 158.999023438 603.337890625 144.33203125 634.004882812 126.999023438 634.004882812 c 0
 109.666015625 634.004882812 94.9990234375 603.337890625 82.9990234375 542.004882812 c 0
 70.33203125 481.337890625 63.9990234375 402.004882812 63.9990234375 304.004882812 c 0
 63.9990234375 207.337890625 70.33203125 128.004882812 82.9990234375 66.0048828125 c 0
EndSplineSet
EndChar

StartChar: K
Encoding: 75 75 44
Width: 604
Flags: W
LayerCount: 2
Fore
SplineSet
554 311 m 1
 342.997070312 237.002929688 l 1
 557.997070312 83.0029296875 l 1
 555.997070312 0.0029296875 l 1
 342.997070312 141.002929688 l 1
 343.997070312 50.0029296875 l 2
 343.997070312 32.669921875 339.6640625 18.3369140625 330.997070312 7.00390625 c 0
 321.6640625 -4.3291015625 310.6640625 -9.99609375 297.997070312 -9.99609375 c 0
 281.997070312 -9.99609375 271.330078125 -4.3291015625 265.997070312 7.00390625 c 0
 257.330078125 25.00390625 252.997070312 39.3369140625 252.997070312 50.00390625 c 2
 257.997070312 377.00390625 l 1
 257.997070312 629.00390625 l 1
 229.997070312 593.670898438 178.997070312 533.00390625 104.997070312 447.00390625 c 0
 92.9970703125 433.00390625 80.6640625 426.00390625 67.9970703125 426.00390625 c 0
 55.330078125 426.00390625 44.9970703125 430.00390625 36.9970703125 438.00390625 c 0
 28.9970703125 444.670898438 24.9970703125 452.670898438 24.9970703125 462.00390625 c 0
 24.9970703125 471.336914062 25.9970703125 479.336914062 27.9970703125 486.00390625 c 0
 31.9970703125 493.336914062 37.330078125 501.00390625 43.9970703125 509.00390625 c 0
 47.9970703125 514.336914062 55.330078125 523.00390625 65.9970703125 535.00390625 c 0
 76.6640625 546.336914062 89.4970703125 560.00390625 104.497070312 576.00390625 c 0
 119.497070312 592.00390625 129.330078125 602.336914062 133.997070312 607.00390625 c 0
 153.330078125 626.336914062 171.997070312 646.669921875 189.997070312 668.002929688 c 0
 213.997070312 695.3359375 235.330078125 718.668945312 253.997070312 738.001953125 c 0
 268.6640625 752.668945312 283.331054688 760.001953125 297.998046875 760.001953125 c 0
 315.331054688 760.001953125 330.331054688 752.668945312 342.998046875 738.001953125 c 0
 374.998046875 702.668945312 395.998046875 679.3359375 405.998046875 668.002929688 c 0
 414.665039062 659.3359375 424.33203125 649.168945312 434.999023438 637.501953125 c 0
 445.666015625 625.834960938 452.333007812 618.66796875 455 616.000976562 c 0
 473 596.000976562 486 582.000976562 494 574.000976562 c 0
 500 567.333984375 507 559.666992188 515 551 c 0
 523 542.333007812 528 537 530 535 c 0
 535.333007812 529.666992188 543.333007812 521 554 509 c 0
 566 494.333007812 572 480.666015625 572 467.999023438 c 0
 572 454.666015625 568 444.666015625 560 437.999023438 c 0
 552 429.999023438 541.666992188 425.999023438 529 425.999023438 c 0
 516.333007812 425.999023438 504 432.999023438 492 446.999023438 c 0
 427.333007812 525.666015625 376.333007812 586.333007812 339 629 c 1
 343 308 l 1
 550 387 l 1
 554 311 l 1
EndSplineSet
EndChar

StartChar: L
Encoding: 76 76 45
Width: 728
Flags: W
LayerCount: 2
Fore
SplineSet
560 66 m 0
 571.333007812 6 586 -23.9990234375 604 -23.9990234375 c 0
 621.333007812 -23.9990234375 636 6.0009765625 648 66.0009765625 c 0
 660 128.000976562 666 207.333984375 666 304.000976562 c 0
 666 405.333984375 660 484.666992188 648 542 c 0
 636 603.333007812 621.333007812 634 604 634 c 0
 586.666992188 634 572 603.333007812 560 542 c 0
 547.333007812 481.333007812 541 402 541 304 c 0
 541 207.333007812 547.333007812 128 560 66 c 0
605 35.0009765625 m 0
 596.333007812 34.333984375 587.999023438 57.6689453125 579.999023438 105.001953125 c 0
 572.666015625 151.001953125 568.999023438 215.668945312 568.999023438 299.001953125 c 0
 569.666015625 381.001953125 573.333007812 446.668945312 580 496.001953125 c 0
 586 542.001953125 594.333007812 565.334960938 605 566.001953125 c 0
 615 566.001953125 623.333007812 542.668945312 630 496.001953125 c 0
 637.333007812 447.334960938 641 381.66796875 641 299.000976562 c 0
 641 221.66796875 637.333007812 157.000976562 630 105.000976562 c 0
 624 58.333984375 615.666992188 35.0009765625 605 35.0009765625 c 0
398.999023438 66.0029296875 m 0
 410.33203125 6.0029296875 424.999023438 -23.99609375 442.999023438 -23.99609375 c 0
 460.33203125 -23.99609375 474.999023438 6.00390625 486.999023438 66.00390625 c 0
 498.999023438 128.00390625 504.999023438 207.336914062 504.999023438 304.00390625 c 0
 504.999023438 405.336914062 498.999023438 484.669921875 486.999023438 542.002929688 c 0
 474.999023438 603.3359375 460.33203125 634.002929688 442.999023438 634.002929688 c 0
 425.666015625 634.002929688 410.999023438 603.3359375 398.999023438 542.002929688 c 0
 386.33203125 481.3359375 379.999023438 402.002929688 379.999023438 304.002929688 c 0
 379.999023438 207.3359375 386.33203125 128.002929688 398.999023438 66.0029296875 c 0
237.999023438 66.00390625 m 0
 249.33203125 6.00390625 263.999023438 -23.9951171875 281.999023438 -23.9951171875 c 0
 299.33203125 -23.9951171875 313.999023438 6.0048828125 325.999023438 66.0048828125 c 0
 337.999023438 128.004882812 343.999023438 207.337890625 343.999023438 304.004882812 c 0
 343.999023438 405.337890625 337.999023438 484.670898438 325.999023438 542.00390625 c 0
 313.999023438 603.336914062 299.33203125 634.00390625 281.999023438 634.00390625 c 0
 264.666015625 634.00390625 249.999023438 603.336914062 237.999023438 542.00390625 c 0
 225.33203125 481.336914062 218.999023438 402.00390625 218.999023438 304.00390625 c 0
 218.999023438 207.336914062 225.33203125 128.00390625 237.999023438 66.00390625 c 0
282.999023438 35.0048828125 m 0
 274.33203125 34.337890625 265.998046875 57.6728515625 257.998046875 105.005859375 c 0
 250.665039062 151.005859375 246.998046875 215.672851562 246.998046875 299.005859375 c 0
 247.665039062 381.005859375 251.33203125 446.672851562 257.999023438 496.005859375 c 0
 263.999023438 542.005859375 272.33203125 565.338867188 282.999023438 566.005859375 c 0
 292.999023438 566.005859375 301.33203125 542.672851562 307.999023438 496.005859375 c 0
 315.33203125 447.338867188 318.999023438 381.671875 318.999023438 299.004882812 c 0
 318.999023438 221.671875 315.33203125 157.004882812 307.999023438 105.004882812 c 0
 301.999023438 58.337890625 293.666015625 35.0048828125 282.999023438 35.0048828125 c 0
82.998046875 66.0068359375 m 0
 94.3310546875 6.0068359375 108.998046875 -23.9921875 126.998046875 -23.9921875 c 0
 144.331054688 -23.9921875 158.998046875 6.0078125 170.998046875 66.0078125 c 0
 182.998046875 128.0078125 188.998046875 207.340820312 188.998046875 304.0078125 c 0
 188.998046875 405.340820312 182.998046875 484.673828125 170.998046875 542.006835938 c 0
 158.998046875 603.33984375 144.331054688 634.006835938 126.998046875 634.006835938 c 0
 109.665039062 634.006835938 94.998046875 603.33984375 82.998046875 542.006835938 c 0
 70.3310546875 481.33984375 63.998046875 402.006835938 63.998046875 304.006835938 c 0
 63.998046875 207.33984375 70.3310546875 128.006835938 82.998046875 66.0068359375 c 0
EndSplineSet
EndChar

StartChar: M
Encoding: 77 77 46
Width: 673
Flags: W
LayerCount: 2
Fore
SplineSet
397 710 m 0
 385.666992188 743.333007812 365.334960938 759.998046875 336.001953125 759.998046875 c 0
 307.334960938 759.998046875 287.334960938 743.331054688 276.001953125 709.998046875 c 0
 186.668945312 458.665039062 134.668945312 311.998046875 120.001953125 269.998046875 c 0
 117.334960938 261.331054688 106.66796875 230.331054688 88.0009765625 176.998046875 c 0
 66.66796875 119.665039062 54.66796875 87.33203125 52.0009765625 79.9990234375 c 0
 44.0009765625 58.666015625 40.0009765625 43.3330078125 40.0009765625 34 c 0
 40.0009765625 24.6669921875 44.0009765625 15 52.0009765625 5 c 0
 60.66796875 -5 72.3349609375 -10 87.001953125 -10 c 0
 112.334960938 -10 130.001953125 5 140.001953125 35 c 0
 267.334960938 423 333.001953125 617 337.001953125 617 c 0
 344.334960938 617 411.334960938 423 538.001953125 35 c 0
 548.001953125 5 564.001953125 -10 586.001953125 -10 c 0
 600.668945312 -10 612.001953125 -5 620.001953125 5 c 0
 628.668945312 14.3330078125 633.001953125 24 633.001953125 34 c 0
 633.001953125 43.3330078125 629.001953125 58.666015625 621.001953125 79.9990234375 c 0
 581.001953125 188.666015625 558.668945312 251.333007812 554.001953125 268 c 0
 551.334960938 274 544.66796875 292.5 534.000976562 323.5 c 0
 523.333984375 354.5 504.166992188 408.833007812 476.5 486.5 c 0
 448.833007812 564.166992188 422.333007812 638.666992188 397 710 c 0
EndSplineSet
EndChar

StartChar: N
Encoding: 78 78 47
Width: 743
Flags: W
LayerCount: 2
Fore
SplineSet
626 372 m 2
 629.000976562 61.9990234375 l 2
 629.000976562 13.9990234375 611.333984375 -10.0009765625 576.000976562 -10.0009765625 c 0
 554.000976562 -10.0009765625 537.333984375 0.33203125 526.000976562 20.9990234375 c 2
 209.000976562 566.999023438 l 1
 209.000976562 411.666015625 209.833984375 287.666015625 211.500976562 194.999023438 c 0
 213.16796875 102.33203125 214.000976562 50.4990234375 214.000976562 39.4990234375 c 0
 214.000976562 28.4990234375 209.000976562 17.4990234375 199.000976562 6.4990234375 c 0
 189.000976562 -4.5009765625 177.16796875 -10.0009765625 163.500976562 -10.0009765625 c 0
 149.833984375 -10.0009765625 138.166992188 -4.5009765625 128.5 6.4990234375 c 0
 118.833007812 17.4990234375 114 31.33203125 114 47.9990234375 c 2
 118 371.999023438 l 2
 118 440.666015625 117.166992188 510.333007812 115.5 581 c 0
 113.833007812 651.666992188 113 687.666992188 113 689 c 0
 113 736.333007812 130 760 164 760 c 0
 188.666992188 760 207 749.666992188 219 729 c 0
 413 395.666992188 518.666992188 215.666992188 536 189 c 1
 536 377.666992188 535 507.666992188 533 579 c 0
 531 650.333007812 530 687 530 689 c 0
 530 736.333007812 547 760 581 760 c 0
 615 760 632 736.333007812 632 689 c 0
 632 683.666992188 631.333007812 666 630 636 c 0
 627.333007812 547.333007812 626 459.333007812 626 372 c 2
EndSplineSet
EndChar

StartChar: O
Encoding: 79 79 48
Width: 824
Flags: W
LayerCount: 2
Fore
SplineSet
472 376 m 0
 472 400 466.666992188 419.333984375 456 434.000976562 c 0
 446 449.333984375 431.666992188 457.000976562 413 457.000976562 c 0
 395 457.000976562 380.333007812 449.333984375 369 434.000976562 c 0
 358.333007812 419.333984375 353 400.000976562 353 376.000976562 c 0
 353 352.66796875 358.333007812 333.66796875 369 319.000976562 c 0
 380.333007812 303.66796875 395 296.000976562 413 296.000976562 c 0
 431 296.000976562 445.333007812 303.333984375 456 318.000976562 c 0
 466.666992188 333.333984375 472 352.666992188 472 376 c 0
586 164.000976562 m 0
 632.666992188 224.66796875 656 295.666992188 656 377 c 0
 656 457.666992188 633 528 587 588 c 0
 541 648.666992188 482.666992188 679 412 679 c 0
 342 679 284 648.666992188 238 588 c 0
 191.333007812 528.666992188 168 458.666992188 168 378 c 0
 168 296.666992188 191.333007812 225.333984375 238 164.000976562 c 0
 285.333007812 102.66796875 343.333007812 72.0009765625 412 72.0009765625 c 0
 482 72.0009765625 540 102.66796875 586 164.000976562 c 0
752 376 m 0
 752 266.666992188 719.333984375 174.333984375 654.000976562 99.0009765625 c 0
 590.000976562 23.0009765625 509.333984375 -14.9990234375 412.000976562 -14.9990234375 c 0
 314.66796875 -14.9990234375 233.66796875 23.0009765625 169.000976562 99.0009765625 c 0
 104.333984375 174.333984375 72.0009765625 266.666992188 72.0009765625 376 c 0
 72.0009765625 484.666992188 104.66796875 576.666992188 170.000976562 652 c 0
 235.333984375 727.333007812 316.666992188 765 414 765 c 0
 510 765 590.666992188 727.333007812 656 652 c 0
 720 577.333007812 752 485.333007812 752 376 c 0
EndSplineSet
EndChar

StartChar: P
Encoding: 80 80 49
Width: 651
Flags: W
LayerCount: 2
Fore
SplineSet
487 515 m 0
 487 507 481.666015625 498.671875 470.999023438 490.004882812 c 0
 460.33203125 481.337890625 442.499023438 469.670898438 417.499023438 455.00390625 c 0
 392.499023438 440.336914062 375.166015625 429.669921875 365.499023438 423.002929688 c 0
 355.83203125 416.3359375 348.33203125 411.3359375 342.999023438 408.002929688 c 0
 329.666015625 400.669921875 316.166015625 397.002929688 302.499023438 397.002929688 c 0
 288.83203125 397.002929688 277.999023438 399.669921875 269.999023438 405.002929688 c 0
 261.999023438 410.3359375 257.999023438 416.8359375 257.999023438 424.502929688 c 0
 257.999023438 432.169921875 261.499023438 438.669921875 268.499023438 444.002929688 c 0
 275.499023438 449.3359375 288.33203125 456.3359375 306.999023438 465.002929688 c 0
 325.666015625 473.669921875 336.333007812 478.669921875 339 480.002929688 c 0
 377 499.3359375 396 511.002929688 396 515.002929688 c 0
 396 519.002929688 377 530.669921875 339 550.002929688 c 0
 333.666992188 553.3359375 325 557.668945312 313 563.001953125 c 0
 301 568.334960938 291.666992188 572.66796875 285 576.000976562 c 0
 267 586.000976562 258 595.333984375 258 604.000976562 c 0
 258 612.66796875 262 619.66796875 270 625.000976562 c 0
 278 630.333984375 287.833007812 633.000976562 299.5 633.000976562 c 0
 311.166992188 633.000976562 321.5 631.16796875 330.5 627.500976562 c 0
 339.5 623.833984375 350 617.833984375 362 609.500976562 c 0
 374 601.16796875 392.5 589.66796875 417.5 575.000976562 c 0
 442.5 560.333984375 460.333007812 548.666992188 471 540 c 0
 481.666992188 531.333007812 487 523 487 515 c 0
323.999023438 679.004882812 m 0
 279.999023438 679.004882812 243.33203125 671.336914062 213.999023438 656.00390625 c 1
 211.999023438 624.00390625 210.999023438 576.336914062 210.999023438 513.00390625 c 0
 210.999023438 449.670898438 211.666015625 403.337890625 212.999023438 374.004882812 c 1
 253.666015625 364.004882812 298.499023438 359.004882812 347.499023438 359.004882812 c 0
 396.499023438 359.004882812 438.83203125 374.004882812 474.499023438 404.004882812 c 0
 510.166015625 434.004882812 527.999023438 472.504882812 527.999023438 519.504882812 c 0
 527.999023438 566.504882812 509.999023438 604.837890625 473.999023438 634.504882812 c 0
 437.999023438 664.171875 387.999023438 679.004882812 323.999023438 679.004882812 c 0
113.999023438 45.00390625 m 2
 121.999023438 382.004882812 l 2
 121.999023438 546.671875 119.999023438 629.004882812 115.999023438 629.004882812 c 0
 101.33203125 631.004882812 90.33203125 636.004882812 82.9990234375 644.004882812 c 0
 75.666015625 652.004882812 71.9990234375 662.504882812 71.9990234375 675.504882812 c 0
 71.9990234375 688.504882812 81.666015625 701.337890625 100.999023438 714.004882812 c 0
 120.33203125 726.671875 143.999023438 736.671875 171.999023438 744.004882812 c 0
 227.999023438 758.004882812 276.666015625 765.004882812 317.999023438 765.004882812 c 0
 417.999023438 765.004882812 493.999023438 741.337890625 545.999023438 694.004882812 c 0
 597.999023438 646.671875 623.999023438 588.671875 623.999023438 520.004882812 c 0
 623.999023438 451.337890625 597.999023438 393.170898438 545.999023438 345.50390625 c 0
 493.999023438 297.836914062 426.666015625 274.00390625 343.999023438 274.00390625 c 0
 281.999023438 274.00390625 237.666015625 277.670898438 210.999023438 285.00390625 c 1
 215.999023438 45.00390625 l 2
 215.999023438 27.6708984375 211.33203125 13.6708984375 201.999023438 3.00390625 c 0
 192.666015625 -7.6630859375 180.499023438 -12.99609375 165.499023438 -12.99609375 c 0
 150.499023438 -12.99609375 138.166015625 -7.6630859375 128.499023438 3.00390625 c 0
 118.83203125 13.6708984375 113.999023438 27.6708984375 113.999023438 45.00390625 c 2
EndSplineSet
EndChar

StartChar: Q
Encoding: 81 81 50
Width: 728
Flags: W
LayerCount: 2
Fore
SplineSet
560 66 m 0
 571.333007812 6 586 -23.9990234375 604 -23.9990234375 c 0
 621.333007812 -23.9990234375 636 6.0009765625 648 66.0009765625 c 0
 660 128.000976562 666 207.333984375 666 304.000976562 c 0
 666 405.333984375 660 484.666992188 648 542 c 0
 636 603.333007812 621.333007812 634 604 634 c 0
 586.666992188 634 572 603.333007812 560 542 c 0
 547.333007812 481.333007812 541 402 541 304 c 0
 541 207.333007812 547.333007812 128 560 66 c 0
605 35.0009765625 m 0
 596.333007812 34.333984375 587.999023438 57.6689453125 579.999023438 105.001953125 c 0
 572.666015625 151.001953125 568.999023438 215.668945312 568.999023438 299.001953125 c 0
 569.666015625 381.001953125 573.333007812 446.668945312 580 496.001953125 c 0
 586 542.001953125 594.333007812 565.334960938 605 566.001953125 c 0
 615 566.001953125 623.333007812 542.668945312 630 496.001953125 c 0
 637.333007812 447.334960938 641 381.66796875 641 299.000976562 c 0
 641 221.66796875 637.333007812 157.000976562 630 105.000976562 c 0
 624 58.333984375 615.666992188 35.0009765625 605 35.0009765625 c 0
398.999023438 66.0029296875 m 0
 410.33203125 6.0029296875 424.999023438 -23.99609375 442.999023438 -23.99609375 c 0
 460.33203125 -23.99609375 474.999023438 6.00390625 486.999023438 66.00390625 c 0
 498.999023438 128.00390625 504.999023438 207.336914062 504.999023438 304.00390625 c 0
 504.999023438 405.336914062 498.999023438 484.669921875 486.999023438 542.002929688 c 0
 474.999023438 603.3359375 460.33203125 634.002929688 442.999023438 634.002929688 c 0
 425.666015625 634.002929688 410.999023438 603.3359375 398.999023438 542.002929688 c 0
 386.33203125 481.3359375 379.999023438 402.002929688 379.999023438 304.002929688 c 0
 379.999023438 207.3359375 386.33203125 128.002929688 398.999023438 66.0029296875 c 0
443.999023438 35.00390625 m 0
 435.33203125 34.3369140625 426.998046875 57.671875 418.998046875 105.004882812 c 0
 411.665039062 151.004882812 407.998046875 215.671875 407.998046875 299.004882812 c 0
 408.665039062 381.004882812 412.33203125 446.671875 418.999023438 496.004882812 c 0
 424.999023438 542.004882812 433.33203125 565.337890625 443.999023438 566.004882812 c 0
 453.999023438 566.004882812 462.33203125 542.671875 468.999023438 496.004882812 c 0
 476.33203125 447.337890625 479.999023438 381.670898438 479.999023438 299.00390625 c 0
 479.999023438 221.670898438 476.33203125 157.00390625 468.999023438 105.00390625 c 0
 462.999023438 58.3369140625 454.666015625 35.00390625 443.999023438 35.00390625 c 0
237.998046875 66.005859375 m 0
 249.331054688 6.005859375 263.998046875 -23.9931640625 281.998046875 -23.9931640625 c 0
 299.331054688 -23.9931640625 313.998046875 6.0068359375 325.998046875 66.0068359375 c 0
 337.998046875 128.006835938 343.998046875 207.33984375 343.998046875 304.006835938 c 0
 343.998046875 405.33984375 337.998046875 484.672851562 325.998046875 542.005859375 c 0
 313.998046875 603.338867188 299.331054688 634.005859375 281.998046875 634.005859375 c 0
 264.665039062 634.005859375 249.998046875 603.338867188 237.998046875 542.005859375 c 0
 225.331054688 481.338867188 218.998046875 402.005859375 218.998046875 304.005859375 c 0
 218.998046875 207.338867188 225.331054688 128.005859375 237.998046875 66.005859375 c 0
82.998046875 66.0068359375 m 0
 94.3310546875 6.0068359375 108.998046875 -23.9921875 126.998046875 -23.9921875 c 0
 144.331054688 -23.9921875 158.998046875 6.0078125 170.998046875 66.0078125 c 0
 182.998046875 128.0078125 188.998046875 207.340820312 188.998046875 304.0078125 c 0
 188.998046875 405.340820312 182.998046875 484.673828125 170.998046875 542.006835938 c 0
 158.998046875 603.33984375 144.331054688 634.006835938 126.998046875 634.006835938 c 0
 109.665039062 634.006835938 94.998046875 603.33984375 82.998046875 542.006835938 c 0
 70.3310546875 481.33984375 63.998046875 402.006835938 63.998046875 304.006835938 c 0
 63.998046875 207.33984375 70.3310546875 128.006835938 82.998046875 66.0068359375 c 0
EndSplineSet
EndChar

StartChar: R
Encoding: 82 82 51
Width: 563
Flags: W
LayerCount: 2
Fore
SplineSet
408 324 m 1
 492 327 l 2
 497.333007812 327 501.5 323.5 504.5 316.5 c 0
 507.5 309.5 509 301 509 291 c 0
 509 281 507.5 272.666992188 504.5 266 c 0
 501.5 259.333007812 497.333007812 256 492 256 c 2
 408 259 l 1
 325 256 l 2
 319.666992188 256 315.5 259.333007812 312.5 266 c 0
 309.5 272.666992188 308 281 308 291 c 0
 308 301 309.5 309.5 312.5 316.5 c 0
 315.5 323.5 319.666992188 327 325 327 c 2
 408 324 l 1
455 488 m 0
 464.333007812 476.666992188 468.66796875 462 468.000976562 444 c 0
 468.66796875 426.666992188 463.334960938 411 452.001953125 397 c 0
 440.668945312 383 426.668945312 376 410.001953125 376 c 0
 393.334960938 376 380.66796875 382 372.000976562 394 c 0
 362.000976562 406 357.333984375 420.666992188 358.000976562 438 c 0
 357.333984375 455.333007812 362.666992188 470.833007812 374 484.5 c 0
 385.333007812 498.166992188 399.333007812 505 416 505 c 0
 432.666992188 505 445.666992188 499.333007812 455 488 c 0
457.001953125 188 m 0
 466.334960938 176.666992188 470.669921875 162.333007812 470.002929688 145 c 0
 470.669921875 127.666992188 465.336914062 112 454.00390625 98 c 0
 442.670898438 83.3330078125 428.670898438 76 412.00390625 76 c 0
 395.336914062 76 382.669921875 82 374.002929688 94 c 0
 364.002929688 106 359.3359375 120.666992188 360.002929688 138 c 0
 359.3359375 155.333007812 364.668945312 170.833007812 376.001953125 184.5 c 0
 387.334960938 198.166992188 401.334960938 205 418.001953125 205 c 0
 434.668945312 205 447.668945312 199.333007812 457.001953125 188 c 0
192.00390625 354.999023438 m 1
 195.000976562 56.998046875 l 2
 195.000976562 10.998046875 178.000976562 -12.001953125 144.000976562 -12.001953125 c 0
 102.66796875 -12.001953125 82.0009765625 22.6650390625 82.0009765625 91.998046875 c 0
 82.0009765625 162.665039062 91.0009765625 260.33203125 109.000976562 384.999023438 c 1
 109.000976562 424.33203125 105.333984375 483.33203125 98.0009765625 561.999023438 c 0
 90.0009765625 635.999023438 86.0009765625 681.33203125 86.0009765625 697.999023438 c 0
 86.0009765625 713.999023438 90.66796875 728.666015625 100.000976562 741.999023438 c 0
 108.66796875 753.999023438 121.334960938 759.999023438 138.001953125 759.999023438 c 0
 155.334960938 759.999023438 168.334960938 753.999023438 177.001953125 741.999023438 c 0
 186.334960938 728.666015625 191.001953125 714.666015625 191.001953125 699.999023438 c 0
 191.001953125 677.33203125 190.668945312 658.665039062 190.001953125 643.998046875 c 2
 190.001953125 589.998046875 l 1
 208.668945312 634.665039062 238.3359375 675.33203125 279.002929688 711.999023438 c 0
 319.669921875 746.666015625 360.669921875 763.999023438 402.002929688 763.999023438 c 0
 443.3359375 763.999023438 475.002929688 755.999023438 497.002929688 739.999023438 c 0
 519.002929688 722.666015625 530.002929688 704.666015625 530.002929688 685.999023438 c 0
 530.002929688 666.666015625 524.669921875 651.999023438 514.002929688 641.999023438 c 0
 504.669921875 630.666015625 492.002929688 624.999023438 476.002929688 624.999023438 c 0
 460.002929688 624.999023438 443.3359375 633.33203125 426.002929688 649.999023438 c 0
 407.3359375 666.666015625 392.3359375 674.999023438 381.002929688 674.999023438 c 0
 349.669921875 674.999023438 313.336914062 639.33203125 272.00390625 567.999023438 c 0
 230.00390625 497.33203125 203.336914062 426.33203125 192.00390625 354.999023438 c 1
EndSplineSet
EndChar

StartChar: S
Encoding: 83 83 52
Width: 586
Flags: W
LayerCount: 2
Fore
SplineSet
488 408 m 0
 509.333007812 382.666992188 520.000976562 356.33203125 520.000976562 328.999023438 c 0
 520.000976562 301.666015625 511.333984375 275.333007812 494.000976562 250 c 0
 476.66796875 226 454.000976562 206.333007812 426.000976562 191 c 1
 465.333984375 163 485.000976562 127 485.000976562 83 c 0
 485.000976562 39 465.333984375 0 426.000976562 -34 c 0
 387.333984375 -68 336.000976562 -85 272.000976562 -85 c 0
 224.66796875 -85 179.334960938 -72.6669921875 136.001953125 -48 c 0
 91.3349609375 -23.3330078125 69.001953125 1.333984375 69.001953125 26.0009765625 c 0
 69.001953125 36.66796875 72.6689453125 45.66796875 80.001953125 53.0009765625 c 0
 86.6689453125 59.66796875 96.001953125 63.0009765625 108.001953125 63.0009765625 c 0
 119.334960938 63.0009765625 132.001953125 58.0009765625 146.001953125 48.0009765625 c 0
 186.668945312 17.333984375 226.668945312 2.0009765625 266.001953125 2.0009765625 c 0
 304.001953125 2.0009765625 334.334960938 9.66796875 357.001953125 25.0009765625 c 0
 379.001953125 40.333984375 390.001953125 59.0009765625 390.001953125 81.0009765625 c 0
 390.001953125 102.333984375 379.334960938 122.000976562 358.001953125 140.000976562 c 0
 336.001953125 156.66796875 310.001953125 172.334960938 280.001953125 187.001953125 c 0
 240.001953125 207.001953125 210.001953125 222.668945312 190.001953125 234.001953125 c 0
 159.334960938 250.001953125 133.334960938 270.001953125 112.001953125 294.001953125 c 0
 90.6689453125 317.334960938 80.001953125 343.66796875 80.001953125 373.000976562 c 0
 80.001953125 402.333984375 91.3349609375 428.333984375 114.001953125 451.000976562 c 0
 136.668945312 474.333984375 166.668945312 490.333984375 204.001953125 499.000976562 c 1
 144.668945312 540.333984375 115.001953125 580.666992188 115.001953125 620 c 0
 115.001953125 659.333007812 133.334960938 693.333007812 170.001953125 722 c 0
 207.334960938 750.666992188 251.334960938 765 302.001953125 765 c 0
 351.334960938 765 393.66796875 756 429.000976562 738 c 0
 463.66796875 720 481.000976562 699 481.000976562 675 c 0
 481.000976562 665 477.333984375 656.666992188 470.000976562 650 c 0
 464.000976562 643.333007812 455.333984375 640 444.000976562 640 c 0
 434.000976562 640 416.66796875 646.333007812 392.000976562 659 c 0
 367.333984375 671.666992188 340.666992188 678 312 678 c 0
 282.666992188 678 258.666992188 672.666992188 240 662 c 0
 220 651.333007812 210 637 210 619 c 0
 210 601 220.666992188 583.333007812 242 566 c 0
 261.333007812 550 287.333007812 533.333007812 320 516 c 0
 346.666992188 503.333007812 376.666992188 487.666015625 410 468.999023438 c 0
 441.333007812 451.666015625 467.333007812 431.333007812 488 408 c 0
405.000976562 275.998046875 m 0
 421.000976562 290.665039062 429.000976562 308.665039062 429.000976562 329.998046875 c 0
 429.000976562 350.665039062 411.333984375 371.998046875 376.000976562 393.998046875 c 0
 342.000976562 417.331054688 309.000976562 428.998046875 277.000976562 428.998046875 c 0
 246.333984375 428.998046875 221.000976562 423.998046875 201.000976562 413.998046875 c 0
 181.000976562 403.998046875 171.000976562 390.665039062 171.000976562 373.998046875 c 0
 171.000976562 357.998046875 182.66796875 341.331054688 206.000976562 323.998046875 c 0
 229.333984375 306.665039062 274.000976562 279.665039062 340.000976562 242.998046875 c 1
 367.333984375 250.331054688 389.000976562 261.331054688 405.000976562 275.998046875 c 0
EndSplineSet
EndChar

StartChar: T
Encoding: 84 84 53
Width: 593
Flags: W
LayerCount: 2
Fore
SplineSet
102 756 m 2
 301 750 l 1
 494 756 l 2
 511.333007812 756 526 752 538 744 c 0
 548.666992188 734.666992188 554 723 554 709 c 0
 554 695 548.666992188 683.333007812 538 674 c 0
 526 666 511.333007812 662 494 662 c 2
 350 668 l 1
 347.333007812 610 346 511.333007812 346 372 c 2
 352 48 l 2
 352 31.3330078125 347.333007812 17.3330078125 338 6 c 0
 329.333007812 -4.6669921875 317.333007812 -10 302 -10 c 0
 286.666992188 -10 274 -4.6669921875 264 6 c 0
 254.666992188 17.3330078125 250 31.3330078125 250 48 c 2
 256 372 l 2
 256 479.333007812 254.333007812 578 251 668 c 1
 102 662 l 2
 84.6669921875 662 70 666 58 674 c 0
 47.3330078125 683.333007812 42 695 42 709 c 0
 42 723 47.3330078125 734.666992188 58 744 c 0
 70 752 84.6669921875 756 102 756 c 2
EndSplineSet
EndChar

StartChar: U
Encoding: 85 85 54
Width: 743
Flags: W
LayerCount: 2
Fore
SplineSet
569 62 m 0
 523.666992188 10.6669921875 458.001953125 -15.0009765625 372.001953125 -15.0009765625 c 0
 286.001953125 -15.0009765625 220.001953125 10.666015625 174.001953125 61.9990234375 c 0
 128.001953125 113.33203125 104.334960938 175.665039062 103.001953125 248.998046875 c 0
 102.334960938 272.331054688 102.001953125 315.331054688 102.001953125 377.998046875 c 0
 102.001953125 444.665039062 101.334960938 493.998046875 100.001953125 525.998046875 c 0
 100.001953125 542.665039062 99.6689453125 563.498046875 99.001953125 588.498046875 c 0
 98.3349609375 613.498046875 98.001953125 629.998046875 98.001953125 637.998046875 c 0
 96.6689453125 657.331054688 96.001953125 674.331054688 96.001953125 688.998046875 c 0
 96.001953125 736.331054688 113.001953125 759.998046875 147.001953125 759.998046875 c 0
 181.001953125 759.998046875 198.001953125 736.331054688 198.001953125 688.998046875 c 0
 198.001953125 687.665039062 197.834960938 684.498046875 197.501953125 679.498046875 c 0
 197.168945312 674.498046875 196.8359375 666.998046875 196.502929688 656.998046875 c 0
 196.169921875 646.998046875 196.002929688 636.665039062 196.002929688 625.998046875 c 0
 193.3359375 527.331054688 192.002929688 440.6640625 192.002929688 365.997070312 c 0
 192.002929688 299.997070312 194.669921875 254.6640625 200.002929688 229.997070312 c 0
 204.002929688 202.6640625 212.669921875 175.997070312 226.002929688 149.997070312 c 0
 251.3359375 97.9970703125 299.668945312 71.9970703125 371.001953125 71.9970703125 c 0
 473.001953125 71.9970703125 531.334960938 130.997070312 546.001953125 248.997070312 c 0
 549.334960938 274.330078125 551.001953125 305.997070312 551.001953125 343.997070312 c 0
 551.001953125 355.997070312 550.834960938 377.6640625 550.501953125 408.997070312 c 0
 550.168945312 440.330078125 550.001953125 465.997070312 550.001953125 485.997070312 c 0
 549.334960938 502.6640625 548.66796875 526.6640625 548.000976562 557.997070312 c 0
 547.333984375 589.330078125 546.666992188 611.997070312 546 625.997070312 c 2
 546 656.497070312 l 2
 546 666.1640625 545.833007812 673.831054688 545.5 679.498046875 c 0
 545.166992188 685.165039062 545 688.33203125 545 688.999023438 c 0
 545 736.33203125 562 759.999023438 596 759.999023438 c 0
 630 759.999023438 647 736.33203125 647 688.999023438 c 0
 647 674.33203125 646.666992188 657.33203125 646 637.999023438 c 0
 642.666992188 543.33203125 641 465.999023438 641 405.999023438 c 0
 641 324.666015625 640.666992188 272.333007812 640 249 c 0
 638.666992188 175 615 112.666992188 569 62 c 0
EndSplineSet
EndChar

StartChar: V
Encoding: 86 86 55
Width: 673
Flags: W
LayerCount: 2
Fore
SplineSet
340 328 m 1
 296.999023438 423.999023438 l 2
 281.666015625 453.999023438 264.999023438 484.666015625 246.999023438 515.999023438 c 0
 223.666015625 557.999023438 206.666015625 590.999023438 195.999023438 614.999023438 c 0
 184.666015625 637.666015625 178.999023438 660.666015625 178.999023438 683.999023438 c 0
 178.999023438 705.999023438 182.33203125 723.33203125 188.999023438 735.999023438 c 0
 194.999023438 749.999023438 202.999023438 756.999023438 212.999023438 756.999023438 c 0
 221.666015625 756.999023438 231.666015625 746.33203125 242.999023438 724.999023438 c 0
 252.999023438 706.999023438 269.33203125 672.999023438 291.999023438 622.999023438 c 0
 322.666015625 558.999023438 338.666015625 525.666015625 339.999023438 522.999023438 c 1
 347.999023438 538.999023438 362.999023438 570.999023438 384.999023438 618.999023438 c 0
 410.33203125 674.999023438 426.999023438 710.33203125 434.999023438 724.999023438 c 0
 446.999023438 746.999023438 457.33203125 757.999023438 465.999023438 757.999023438 c 0
 475.33203125 757.999023438 483.33203125 751.33203125 489.999023438 737.999023438 c 0
 496.666015625 724.666015625 499.999023438 706.999023438 499.999023438 684.999023438 c 0
 499.999023438 664.999023438 494.33203125 642.666015625 482.999023438 617.999023438 c 0
 470.999023438 591.999023438 453.999023438 559.33203125 431.999023438 519.999023438 c 0
 410.666015625 480.666015625 394.333007812 449.333007812 383 426 c 2
 340 328 l 1
396.999023438 33.9990234375 m 0
 385.666015625 4.666015625 365.329101562 -10.0009765625 335.99609375 -10.0009765625 c 0
 313.329101562 -10.0009765625 293.329101562 6.666015625 275.99609375 39.9990234375 c 0
 197.99609375 194.666015625 145.99609375 309.999023438 119.99609375 385.999023438 c 0
 116.663085938 396.666015625 105.99609375 427.999023438 87.99609375 479.999023438 c 2
 51.99609375 575.999023438 l 2
 43.99609375 597.999023438 39.99609375 613.666015625 39.99609375 622.999023438 c 0
 39.99609375 632.33203125 43.99609375 641.999023438 51.99609375 651.999023438 c 0
 61.3291015625 661.999023438 72.99609375 666.999023438 86.99609375 666.999023438 c 0
 110.329101562 666.999023438 127.99609375 651.999023438 139.99609375 621.999023438 c 0
 266.663085938 295.999023438 332.330078125 132.999023438 336.997070312 132.999023438 c 0
 361.6640625 132.999023438 428.6640625 295.999023438 537.997070312 621.999023438 c 0
 547.997070312 651.999023438 563.997070312 666.999023438 585.997070312 666.999023438 c 0
 600.6640625 666.999023438 611.997070312 661.999023438 619.997070312 651.999023438 c 0
 628.6640625 642.666015625 632.997070312 632.999023438 632.997070312 622.999023438 c 0
 632.997070312 612.999023438 628.997070312 597.666015625 620.997070312 576.999023438 c 0
 587.6640625 480.33203125 565.331054688 417.999023438 553.998046875 389.999023438 c 0
 462.665039062 187.999023438 410.33203125 69.33203125 396.999023438 33.9990234375 c 0
EndSplineSet
EndChar

StartChar: W
Encoding: 87 87 56
Width: 728
Flags: W
LayerCount: 2
Fore
SplineSet
560 66 m 0
 571.333007812 6 586 -23.9990234375 604 -23.9990234375 c 0
 621.333007812 -23.9990234375 636 6.0009765625 648 66.0009765625 c 0
 660 128.000976562 666 207.333984375 666 304.000976562 c 0
 666 405.333984375 660 484.666992188 648 542 c 0
 636 603.333007812 621.333007812 634 604 634 c 0
 586.666992188 634 572 603.333007812 560 542 c 0
 547.333007812 481.333007812 541 402 541 304 c 0
 541 207.333007812 547.333007812 128 560 66 c 0
399 66.0009765625 m 0
 410.333007812 6.0009765625 425 -23.998046875 443 -23.998046875 c 0
 460.333007812 -23.998046875 475 6.001953125 487 66.001953125 c 0
 499 128.001953125 505 207.334960938 505 304.001953125 c 0
 505 405.334960938 499 484.66796875 487 542.000976562 c 0
 475 603.333984375 460.333007812 634.000976562 443 634.000976562 c 0
 425.666992188 634.000976562 411 603.333984375 399 542.000976562 c 0
 386.333007812 481.333984375 380 402.000976562 380 304.000976562 c 0
 380 207.333984375 386.333007812 128.000976562 399 66.0009765625 c 0
444 35.001953125 m 0
 435.333007812 34.3349609375 426.999023438 57.669921875 418.999023438 105.002929688 c 0
 411.666015625 151.002929688 407.999023438 215.669921875 407.999023438 299.002929688 c 0
 408.666015625 381.002929688 412.333007812 446.669921875 419 496.002929688 c 0
 425 542.002929688 433.333007812 565.3359375 444 566.002929688 c 0
 454 566.002929688 462.333007812 542.669921875 469 496.002929688 c 0
 476.333007812 447.3359375 480 381.668945312 480 299.001953125 c 0
 480 221.668945312 476.333007812 157.001953125 469 105.001953125 c 0
 463 58.3349609375 454.666992188 35.001953125 444 35.001953125 c 0
237.999023438 66.00390625 m 0
 249.33203125 6.00390625 263.999023438 -23.9951171875 281.999023438 -23.9951171875 c 0
 299.33203125 -23.9951171875 313.999023438 6.0048828125 325.999023438 66.0048828125 c 0
 337.999023438 128.004882812 343.999023438 207.337890625 343.999023438 304.004882812 c 0
 343.999023438 405.337890625 337.999023438 484.670898438 325.999023438 542.00390625 c 0
 313.999023438 603.336914062 299.33203125 634.00390625 281.999023438 634.00390625 c 0
 264.666015625 634.00390625 249.999023438 603.336914062 237.999023438 542.00390625 c 0
 225.33203125 481.336914062 218.999023438 402.00390625 218.999023438 304.00390625 c 0
 218.999023438 207.336914062 225.33203125 128.00390625 237.999023438 66.00390625 c 0
82.9990234375 66.0048828125 m 0
 94.33203125 6.0048828125 108.999023438 -23.994140625 126.999023438 -23.994140625 c 0
 144.33203125 -23.994140625 158.999023438 6.005859375 170.999023438 66.005859375 c 0
 182.999023438 128.005859375 188.999023438 207.338867188 188.999023438 304.005859375 c 0
 188.999023438 405.338867188 182.999023438 484.671875 170.999023438 542.004882812 c 0
 158.999023438 603.337890625 144.33203125 634.004882812 126.999023438 634.004882812 c 0
 109.666015625 634.004882812 94.9990234375 603.337890625 82.9990234375 542.004882812 c 0
 70.33203125 481.337890625 63.9990234375 402.004882812 63.9990234375 304.004882812 c 0
 63.9990234375 207.337890625 70.33203125 128.004882812 82.9990234375 66.0048828125 c 0
EndSplineSet
EndChar

StartChar: X
Encoding: 88 88 57
Width: 728
Flags: W
LayerCount: 2
Fore
SplineSet
560 66 m 0
 571.333007812 6 586 -23.9990234375 604 -23.9990234375 c 0
 621.333007812 -23.9990234375 636 6.0009765625 648 66.0009765625 c 0
 660 128.000976562 666 207.333984375 666 304.000976562 c 0
 666 405.333984375 660 484.666992188 648 542 c 0
 636 603.333007812 621.333007812 634 604 634 c 0
 586.666992188 634 572 603.333007812 560 542 c 0
 547.333007812 481.333007812 541 402 541 304 c 0
 541 207.333007812 547.333007812 128 560 66 c 0
605 35.0009765625 m 0
 596.333007812 34.333984375 587.999023438 57.6689453125 579.999023438 105.001953125 c 0
 572.666015625 151.001953125 568.999023438 215.668945312 568.999023438 299.001953125 c 0
 569.666015625 381.001953125 573.333007812 446.668945312 580 496.001953125 c 0
 586 542.001953125 594.333007812 565.334960938 605 566.001953125 c 0
 615 566.001953125 623.333007812 542.668945312 630 496.001953125 c 0
 637.333007812 447.334960938 641 381.66796875 641 299.000976562 c 0
 641 221.66796875 637.333007812 157.000976562 630 105.000976562 c 0
 624 58.333984375 615.666992188 35.0009765625 605 35.0009765625 c 0
398.999023438 66.0029296875 m 0
 410.33203125 6.0029296875 424.999023438 -23.99609375 442.999023438 -23.99609375 c 0
 460.33203125 -23.99609375 474.999023438 6.00390625 486.999023438 66.00390625 c 0
 498.999023438 128.00390625 504.999023438 207.336914062 504.999023438 304.00390625 c 0
 504.999023438 405.336914062 498.999023438 484.669921875 486.999023438 542.002929688 c 0
 474.999023438 603.3359375 460.33203125 634.002929688 442.999023438 634.002929688 c 0
 425.666015625 634.002929688 410.999023438 603.3359375 398.999023438 542.002929688 c 0
 386.33203125 481.3359375 379.999023438 402.002929688 379.999023438 304.002929688 c 0
 379.999023438 207.3359375 386.33203125 128.002929688 398.999023438 66.0029296875 c 0
237.999023438 66.00390625 m 0
 249.33203125 6.00390625 263.999023438 -23.9951171875 281.999023438 -23.9951171875 c 0
 299.33203125 -23.9951171875 313.999023438 6.0048828125 325.999023438 66.0048828125 c 0
 337.999023438 128.004882812 343.999023438 207.337890625 343.999023438 304.004882812 c 0
 343.999023438 405.337890625 337.999023438 484.670898438 325.999023438 542.00390625 c 0
 313.999023438 603.336914062 299.33203125 634.00390625 281.999023438 634.00390625 c 0
 264.666015625 634.00390625 249.999023438 603.336914062 237.999023438 542.00390625 c 0
 225.33203125 481.336914062 218.999023438 402.00390625 218.999023438 304.00390625 c 0
 218.999023438 207.336914062 225.33203125 128.00390625 237.999023438 66.00390625 c 0
82.9990234375 66.0048828125 m 0
 94.33203125 6.0048828125 108.999023438 -23.994140625 126.999023438 -23.994140625 c 0
 144.33203125 -23.994140625 158.999023438 6.005859375 170.999023438 66.005859375 c 0
 182.999023438 128.005859375 188.999023438 207.338867188 188.999023438 304.005859375 c 0
 188.999023438 405.338867188 182.999023438 484.671875 170.999023438 542.004882812 c 0
 158.999023438 603.337890625 144.33203125 634.004882812 126.999023438 634.004882812 c 0
 109.666015625 634.004882812 94.9990234375 603.337890625 82.9990234375 542.004882812 c 0
 70.33203125 481.337890625 63.9990234375 402.004882812 63.9990234375 304.004882812 c 0
 63.9990234375 207.337890625 70.33203125 128.004882812 82.9990234375 66.0048828125 c 0
EndSplineSet
EndChar

StartChar: Y
Encoding: 89 89 58
Width: 607
Flags: W
LayerCount: 2
Fore
SplineSet
410 773 m 1
 448 729 l 1
 300 444 l 1
 218 595 l 1
 248 662 l 1
 300 550 l 1
 410 773 l 1
347 303 m 1
 347 277 347.997070312 223.331054688 349.997070312 141.998046875 c 2
 351.997070312 60.998046875 l 2
 353.330078125 13.6650390625 336.330078125 -10.001953125 300.997070312 -10.001953125 c 0
 265.6640625 -10.001953125 248.6640625 13.6650390625 249.997070312 60.998046875 c 2
 251.997070312 143.998046875 l 2
 253.997070312 226.665039062 254.997070312 279.998046875 254.997070312 303.998046875 c 1
 126.997070312 523.998046875 56.330078125 646.998046875 42.9970703125 672.998046875 c 0
 34.330078125 690.331054688 29.9970703125 704.998046875 29.9970703125 716.998046875 c 0
 29.9970703125 728.331054688 32.1640625 738.331054688 36.4970703125 746.998046875 c 0
 40.830078125 755.665039062 50.330078125 759.998046875 64.9970703125 759.998046875 c 0
 83.6640625 759.998046875 96.6640625 752.665039062 103.997070312 737.998046875 c 0
 104.6640625 736.665039062 126.331054688 691.665039062 168.998046875 602.998046875 c 0
 183.665039062 572.331054688 227.998046875 491.331054688 301.998046875 359.998046875 c 1
 354.665039062 451.331054688 376.665039062 496.498046875 367.998046875 495.498046875 c 0
 359.331054688 494.498046875 365.998046875 513.331054688 387.998046875 551.998046875 c 0
 396.665039062 566.665039062 401.33203125 574.665039062 401.999023438 575.998046875 c 0
 403.33203125 576.665039062 404.999023438 579.33203125 406.999023438 583.999023438 c 0
 408.999023438 588.666015625 411.33203125 592.333007812 413.999023438 595 c 0
 418.666015625 599.666992188 422.666015625 605.333984375 425.999023438 612.000976562 c 0
 427.33203125 614.66796875 430.665039062 618.66796875 435.998046875 624.000976562 c 0
 442.665039062 630.66796875 451.998046875 634.000976562 463.998046875 634.000976562 c 0
 477.331054688 634.000976562 487.331054688 630.000976562 493.998046875 622.000976562 c 0
 501.331054688 613.333984375 504.998046875 603.666992188 504.998046875 593 c 0
 504.998046875 581 499.998046875 566 489.998046875 548 c 2
 499.998046875 564 l 2
 486.665039062 542 472.998046875 519.333007812 458.998046875 496 c 0
 444.998046875 472.666992188 437.665039062 460 436.998046875 458 c 0
 435.665039062 455.333007812 430.33203125 446.166015625 420.999023438 430.499023438 c 0
 411.666015625 414.83203125 403.999023438 401.33203125 397.999023438 389.999023438 c 0
 392.666015625 380.666015625 384.333007812 366.333007812 373 347 c 0
 361.666992188 327.666992188 353 313 347 303 c 1
EndSplineSet
EndChar

StartChar: Z
Encoding: 90 90 59
Width: 618
Flags: W
LayerCount: 2
Fore
SplineSet
120 755 m 2
 295 750.000976562 l 1
 498 755.000976562 l 2
 536 755.66796875 555 742.000976562 555 714.000976562 c 0
 555 695.333984375 548 675.000976562 534 653.000976562 c 2
 423 472.000976562 l 1
 510 472.000976562 l 1
 510 418.000976562 l 1
 382 418.000976562 l 1
 351 368.000976562 l 1
 310 301.000976562 l 1
 510 301.000976562 l 1
 510 231.000976562 l 1
 268 231.000976562 l 1
 180 87.0009765625 l 1
 222 83.66796875 264.666992188 82.0009765625 308 82.0009765625 c 0
 359.333007812 82.0009765625 403.333007812 83.333984375 440 86.0009765625 c 0
 481.333007812 88.0009765625 508 89.0009765625 520 89.0009765625 c 0
 531.333007812 89.0009765625 542.666015625 84.66796875 553.999023438 76.0009765625 c 0
 564.666015625 67.333984375 569.999023438 56.0009765625 569.999023438 42.0009765625 c 0
 569.999023438 28.0009765625 564.666015625 16.66796875 553.999023438 8.0009765625 c 0
 541.33203125 -1.33203125 526.665039062 -5.6650390625 509.998046875 -4.998046875 c 2
 334.998046875 0.001953125 l 1
 105.998046875 -4.998046875 l 2
 78.6650390625 -5.6650390625 60.1650390625 -2.33203125 50.498046875 5.0009765625 c 0
 40.8310546875 12.333984375 40.3310546875 23.333984375 48.998046875 38.0009765625 c 2
 159.998046875 231.000976562 l 1
 61.998046875 231.000976562 l 1
 61.998046875 301.000976562 l 1
 196.998046875 301.000976562 l 1
 199.998046875 301.000976562 l 1
 243.998046875 377.66796875 268.331054688 416.000976562 272.998046875 416.000976562 c 2
 60.998046875 416.000976562 l 1
 60.998046875 472.000976562 l 1
 305.998046875 472.000976562 l 1
 424.998046875 664.000976562 l 1
 398.331054688 666.66796875 361.998046875 668.000976562 315.998046875 668.000976562 c 0
 268.665039062 668.000976562 226.665039062 666.66796875 189.998046875 664.000976562 c 0
 148.665039062 662.000976562 121.998046875 661.000976562 109.998046875 661.000976562 c 0
 98.6650390625 661.000976562 87.33203125 665.333984375 75.9990234375 674.000976562 c 0
 65.33203125 682.66796875 59.9990234375 694.000976562 59.9990234375 708.000976562 c 0
 59.9990234375 722.000976562 65.33203125 733.333984375 75.9990234375 742.000976562 c 0
 88.666015625 751.333984375 103.333007812 755.666992188 120 755 c 2
EndSplineSet
EndChar

StartChar: bracketleft
Encoding: 91 91 60
Width: 438
Flags: W
LayerCount: 2
Fore
SplineSet
193 0 m 1
 337 3 l 2
 355.666992188 3 370 -1 380 -9 c 0
 391.333007812 -16.3330078125 397 -27.3330078125 397 -42 c 0
 397 -56 391.333007812 -66.6669921875 380 -74 c 0
 370 -82 355.666992188 -86 337 -86 c 2
 243 -83 l 1
 146 -87 l 2
 129.333007812 -87 116.333007812 -82.6669921875 107 -74 c 0
 97 -66 92 -56.6669921875 92 -46 c 0
 92 -35.3330078125 93 14.6669921875 95 104 c 0
 97 194 98 284.333007812 98 375 c 0
 98 475 96.6669921875 563.333007812 94 640 c 0
 92 726.666992188 91 776.666992188 91 790 c 0
 91 803.333007812 96 814.666015625 106 823.999023438 c 0
 116 833.999023438 129.333007812 838.999023438 146 838.999023438 c 2
 243 834.999023438 l 1
 337 837.999023438 l 2
 355 837.999023438 369.333007812 833.999023438 380 825.999023438 c 0
 391.333007812 816.666015625 397 805.666015625 397 792.999023438 c 0
 397 780.33203125 391.333007812 769.33203125 380 759.999023438 c 0
 369.333007812 751.999023438 355 747.999023438 337 747.999023438 c 0
 329.666992188 747.999023438 322 748.33203125 314 748.999023438 c 0
 282 750.33203125 241.666992188 750.999023438 193 750.999023438 c 1
 193 748.999023438 192 704.666015625 190 617.999023438 c 0
 188 531.999023438 187 451.33203125 187 375.999023438 c 0
 187 301.33203125 188 221.33203125 190 135.999023438 c 0
 192 50.666015625 193 5.3330078125 193 0 c 1
EndSplineSet
EndChar

StartChar: backslash
Encoding: 92 92 61
Width: 433
Flags: W
LayerCount: 2
Fore
SplineSet
82 820 m 0
 90 830 100.666992188 834.999023438 114 834.999023438 c 0
 127.333007812 834.999023438 138.666015625 830.666015625 147.999023438 821.999023438 c 0
 156.666015625 811.999023438 162.333007812 800.33203125 165 786.999023438 c 0
 214.333007812 566.33203125 256 389.33203125 290 255.999023438 c 0
 337.333007812 70.666015625 361 -27.333984375 361 -38.0009765625 c 0
 361 -50.66796875 356.666992188 -61.3349609375 348 -70.001953125 c 0
 340 -79.3349609375 328.666992188 -84.001953125 314 -84.001953125 c 0
 300 -84.001953125 288.666992188 -78.6689453125 280 -68.001953125 c 0
 272.666992188 -55.3349609375 266.666992188 -39.3349609375 262 -20.001953125 c 0
 218.666992188 178.665039062 180.666992188 341.33203125 148 467.999023438 c 0
 96.6669921875 671.999023438 71 778.666015625 71 787.999023438 c 0
 71 798.666015625 74.6669921875 809.333007812 82 820 c 0
EndSplineSet
EndChar

StartChar: bracketright
Encoding: 93 93 62
Width: 438
Flags: W
LayerCount: 2
Fore
SplineSet
245 752 m 1
 101 749.000976562 l 2
 82.3330078125 749.000976562 68 753.000976562 58 761.000976562 c 0
 46.6669921875 768.333984375 41 779.333984375 41 794.000976562 c 0
 41 808.000976562 46.6669921875 818.66796875 58 826.000976562 c 0
 68 834.000976562 82.3330078125 838.000976562 101 838.000976562 c 2
 195 835.000976562 l 1
 292 839.000976562 l 2
 308.666992188 839.000976562 321.666992188 834.66796875 331 826.000976562 c 0
 341 818.000976562 346 808.66796875 346 798.000976562 c 0
 346 787.333984375 345 737.333984375 343 648.000976562 c 0
 341 558.000976562 340 467.66796875 340 377.000976562 c 0
 340 277.000976562 341.333007812 188.66796875 344 112.000976562 c 0
 346 25.333984375 347 -24.666015625 347 -37.9990234375 c 0
 347 -51.33203125 342 -62.6650390625 332 -71.998046875 c 0
 322 -81.998046875 308.666992188 -86.998046875 292 -86.998046875 c 2
 195 -82.998046875 l 1
 101 -85.998046875 l 2
 83 -85.998046875 68.6669921875 -81.998046875 58 -73.998046875 c 0
 46.6669921875 -64.6650390625 41 -53.6650390625 41 -40.998046875 c 0
 41 -28.3310546875 46.6669921875 -17.3310546875 58 -7.998046875 c 0
 68.6669921875 0.001953125 83 4.001953125 101 4.001953125 c 2
 245 1.001953125 l 2
 245 2.3349609375 246 46.66796875 248 134.000976562 c 0
 250 220.000976562 251 300.66796875 251 376.000976562 c 0
 251 450.66796875 250 530.66796875 248 616.000976562 c 0
 246 701.333984375 245 746.666992188 245 752 c 1
EndSplineSet
EndChar

StartChar: asciicircum
Encoding: 94 94 63
Width: 591
Flags: W
LayerCount: 2
Fore
SplineSet
79 458 m 0
 115 518 142.669921875 563.334960938 162.002929688 594.001953125 c 2
 197.002929688 650.001953125 l 2
 210.3359375 671.334960938 220.502929688 687.66796875 227.502929688 699.000976562 c 0
 234.502929688 710.333984375 240.002929688 719.333984375 244.002929688 726.000976562 c 0
 256.669921875 748.66796875 274.002929688 760.000976562 296.002929688 760.000976562 c 0
 318.002929688 760.000976562 336.002929688 748.333984375 350.002929688 725.000976562 c 0
 455.3359375 555.66796875 514.002929688 459.66796875 526.002929688 437.000976562 c 0
 532.669921875 420.333984375 536.002929688 408.666992188 536.002929688 402 c 0
 536.002929688 392.666992188 532.002929688 384 524.002929688 376 c 0
 516.002929688 368 504.669921875 364 490.002929688 364 c 0
 475.3359375 364 463.3359375 373 454.002929688 391 c 0
 414.002929688 462.333007812 382.3359375 518.666015625 359.002929688 559.999023438 c 0
 319.669921875 626.666015625 298.669921875 659.999023438 296.002929688 659.999023438 c 0
 293.3359375 659.999023438 272.668945312 626.666015625 234.001953125 559.999023438 c 0
 189.334960938 482.666015625 157.66796875 426.333007812 139.000976562 391 c 0
 134.333984375 382.333007812 128.666992188 376 122 372 c 0
 114.666992188 366.666992188 106 364 96 364 c 0
 86 364 77 368 69 376 c 0
 61 384 57 393.333007812 57 404 c 0
 57 415.333007812 64.3330078125 433.333007812 79 458 c 0
EndSplineSet
EndChar

StartChar: underscore
Encoding: 95 95 64
Width: 382
Flags: W
LayerCount: 2
Fore
SplineSet
189 14 m 1
 49.9990234375 11 l 2
 39.9990234375 11 31.9990234375 15 25.9990234375 23 c 0
 19.33203125 30.3330078125 15.9990234375 40 15.9990234375 52 c 0
 15.9990234375 64 19.33203125 73.6669921875 25.9990234375 81 c 0
 31.33203125 88.3330078125 39.33203125 92 49.9990234375 92 c 2
 188.999023438 90 l 1
 327.999023438 92 l 2
 337.999023438 92 346.33203125 88.3330078125 352.999023438 81 c 0
 358.999023438 73 361.999023438 63.3330078125 361.999023438 52 c 0
 361.999023438 40.6669921875 358.999023438 31 352.999023438 23 c 0
 345.666015625 15 337.333007812 11 328 11 c 2
 189 14 l 1
EndSplineSet
EndChar

StartChar: grave
Encoding: 96 96 65
Width: 330
Flags: W
LayerCount: 2
Fore
SplineSet
85 696 m 0
 85 707.333007812 88.6689453125 717.3359375 96.001953125 726.002929688 c 0
 103.334960938 735.3359375 113.334960938 740.002929688 126.001953125 740.002929688 c 0
 137.334960938 740.002929688 147.334960938 736.669921875 156.001953125 730.002929688 c 0
 164.001953125 724.002929688 170.001953125 718.002929688 174.001953125 712.002929688 c 0
 175.334960938 709.3359375 177.66796875 704.502929688 181.000976562 697.502929688 c 0
 184.333984375 690.502929688 186.666992188 685.3359375 188 682.002929688 c 0
 194.666992188 668.002929688 205.666992188 651.3359375 221 632.002929688 c 0
 237 613.3359375 245 599.668945312 245 591.001953125 c 0
 245 582.334960938 242 575.66796875 236 571.000976562 c 0
 230.666992188 565.66796875 222.666992188 563.000976562 212 563.000976562 c 0
 190.666992188 563.000976562 164 578.000976562 132 608.000976562 c 0
 100.666992188 637.333984375 85 666.666992188 85 696 c 0
EndSplineSet
EndChar

StartChar: a
Encoding: 97 97 66
Width: 810
Flags: W
LayerCount: 2
Fore
SplineSet
648 367 m 1
 648 293.666992188 652.669921875 230.666992188 662.002929688 178 c 0
 672.002929688 126.666992188 684.002929688 97.333984375 698.002929688 90.0009765625 c 0
 699.3359375 89.333984375 705.668945312 87.333984375 717.001953125 84.0009765625 c 0
 723.668945312 84.0009765625 729.001953125 82.66796875 733.001953125 80.0009765625 c 0
 736.334960938 78.0009765625 738.001953125 74.333984375 738.001953125 69.0009765625 c 0
 738.001953125 45.0009765625 731.334960938 25.333984375 718.001953125 10.0009765625 c 0
 704.668945312 -5.33203125 687.001953125 -12.9990234375 665.001953125 -12.9990234375 c 0
 636.334960938 -12.9990234375 614.334960938 3.66796875 599.001953125 37.0009765625 c 0
 584.334960938 69.0009765625 577.001953125 111.66796875 577.001953125 165.000976562 c 1
 543.001953125 111.000976562 506.001953125 67.0009765625 466.001953125 33.0009765625 c 0
 426.001953125 1.0009765625 382.001953125 -14.9990234375 334.001953125 -14.9990234375 c 0
 284.668945312 -14.9990234375 244.001953125 -3.33203125 212.001953125 20.0009765625 c 0
 179.334960938 42.0009765625 152.66796875 72.0009765625 132.000976562 110.000976562 c 0
 92.0009765625 187.333984375 72.0009765625 271.666992188 72.0009765625 363 c 0
 72.0009765625 473 100.333984375 567.333007812 157.000976562 646 c 0
 214.333984375 725.333007812 287.666992188 765 377 765 c 0
 410.333007812 765 444 758.666992188 478 746 c 0
 512 732 539.666992188 715.333007812 561 696 c 1
 561 742 578 765 612 765 c 0
 654 765 675 731.333007812 675 664 c 0
 675 614 666 515 648 367 c 1
569.002929688 355 m 1
 563.001953125 600 l 1
 506.334960938 652 444.334960938 678 377.001953125 678 c 0
 321.668945312 678 273.001953125 648 231.001953125 588 c 0
 189.001953125 529.333007812 168.001953125 457 168.001953125 371 c 0
 168.001953125 283.666992188 182.668945312 212.666992188 212.001953125 158 c 0
 240.001953125 100.666992188 279.334960938 72 330.001953125 72 c 0
 378.668945312 72 428.668945312 103.666992188 480.001953125 167 c 0
 530.668945312 230.333007812 560.3359375 293 569.002929688 355 c 1
484.001953125 986 m 0
 504.001953125 966 514.001953125 942 514.001953125 914 c 0
 514.001953125 886.666992188 504.668945312 863 486.001953125 843 c 0
 466.668945312 824.333007812 441.668945312 815 411.001953125 815 c 0
 380.334960938 815 355.334960938 824.333007812 336.001953125 843 c 0
 317.334960938 863 308.001953125 886.666992188 308.001953125 914 c 0
 308.001953125 943.333007812 318.001953125 967.333007812 338.001953125 986 c 0
 356.668945312 1006 381.001953125 1016 411.001953125 1016 c 0
 441.001953125 1016 465.334960938 1006 484.001953125 986 c 0
449.001953125 914 m 0
 449.001953125 923.333007812 445.001953125 932.666992188 437.001953125 942 c 0
 429.001953125 950.666992188 420.001953125 955 410.001953125 955 c 0
 400.668945312 955 392.001953125 950.666992188 384.001953125 942 c 0
 376.668945312 933.333007812 373.001953125 924 373.001953125 914 c 0
 373.001953125 904.666992188 376.668945312 895.666992188 384.001953125 887 c 0
 391.334960938 879 400.001953125 875 410.001953125 875 c 0
 420.668945312 875 430.001953125 879 438.001953125 887 c 0
 445.334960938 895.666992188 449.001953125 904.666992188 449.001953125 914 c 0
EndSplineSet
EndChar

StartChar: b
Encoding: 98 98 67
Width: 651
Flags: W
LayerCount: 2
Fore
SplineSet
324 93 m 0
 280 93 243.333007812 100.666992188 214 116 c 1
 212 148 211 195.666992188 211 259 c 0
 211 313 211.666992188 359.333007812 213 398 c 1
 253.666992188 408 298.666992188 413 348 413 c 0
 397.333007812 413 439.333007812 398 474 368 c 0
 510 338 528 299.333007812 528 252 c 0
 528 205.333007812 510 167.333007812 474 138 c 0
 438 108 388 93 324 93 c 0
114 724 m 2
 121.999023438 390.000976562 l 2
 121.999023438 225.333984375 119.999023438 143.000976562 115.999023438 143.000976562 c 0
 101.33203125 141.000976562 90.33203125 136.000976562 82.9990234375 128.000976562 c 0
 75.666015625 119.333984375 71.9990234375 108.666992188 71.9990234375 96 c 0
 71.9990234375 84 81.666015625 71.3330078125 100.999023438 58 c 0
 119.666015625 45.3330078125 143.333007812 35.3330078125 172 28 c 0
 228 14 276.666992188 7 318 7 c 0
 417.333007812 7 493.333007812 30.6669921875 546 78 c 0
 598 124.666992188 624 182.666992188 624 252 c 0
 624 321.333007812 598 379.333007812 546 426 c 0
 494 474 426.666992188 498 344 498 c 0
 283.333007812 498 239 494.333007812 211 487 c 1
 216 724 l 2
 216 740.666992188 211.333007812 754.666992188 202 766 c 0
 193.333007812 776.666992188 181.333007812 782 166 782 c 0
 150.666992188 782 138 776.666992188 128 766 c 0
 118.666992188 754.666992188 114 740.666992188 114 724 c 2
EndSplineSet
EndChar

StartChar: c
Encoding: 99 99 68
Width: 708
Flags: W
LayerCount: 2
Fore
SplineSet
515 -133 m 0
 515 -160.333007812 502.665039062 -183.333984375 477.998046875 -202.000976562 c 0
 452.665039062 -220.66796875 422.665039062 -230.000976562 387.998046875 -230.000976562 c 0
 353.998046875 -230.000976562 325.998046875 -222.000976562 303.998046875 -206.000976562 c 0
 283.331054688 -188.66796875 272.998046875 -171.66796875 272.998046875 -155.000976562 c 0
 272.998046875 -149.66796875 275.331054688 -144.000976562 279.998046875 -138.000976562 c 0
 286.665039062 -132.66796875 293.33203125 -130.000976562 299.999023438 -130.000976562 c 0
 307.999023438 -130.000976562 319.999023438 -134.000976562 335.999023438 -142.000976562 c 0
 353.999023438 -150.000976562 368.999023438 -154.000976562 380.999023438 -154.000976562 c 0
 394.33203125 -154.000976562 404.665039062 -151.66796875 411.998046875 -147.000976562 c 0
 419.998046875 -142.333984375 423.998046875 -137.000976562 423.998046875 -131.000976562 c 0
 423.998046875 -124.333984375 419.331054688 -118.000976562 409.998046875 -112.000976562 c 0
 405.998046875 -109.333984375 400.331054688 -105.500976562 392.998046875 -100.500976562 c 0
 385.665039062 -95.5009765625 380.665039062 -92.0009765625 377.998046875 -90.0009765625 c 0
 367.998046875 -84.66796875 357.331054688 -74.0009765625 345.998046875 -58.0009765625 c 0
 335.998046875 -42.0009765625 330.998046875 -24.66796875 330.998046875 -6.0009765625 c 1
 253.665039062 13.33203125 191.33203125 57.9990234375 143.999023438 127.999023438 c 0
 95.9990234375 199.999023438 71.9990234375 282.666015625 71.9990234375 375.999023438 c 0
 71.9990234375 485.33203125 103.999023438 577.33203125 167.999023438 651.999023438 c 0
 231.33203125 727.33203125 310.999023438 764.999023438 406.999023438 764.999023438 c 0
 465.666015625 764.999023438 517.999023438 753.999023438 563.999023438 731.999023438 c 0
 610.666015625 709.999023438 633.999023438 685.33203125 633.999023438 657.999023438 c 0
 633.999023438 644.666015625 629.999023438 633.999023438 621.999023438 625.999023438 c 0
 613.999023438 617.999023438 603.33203125 613.999023438 589.999023438 613.999023438 c 0
 577.999023438 613.999023438 559.666015625 621.666015625 534.999023438 636.999023438 c 0
 495.666015625 664.33203125 452.999023438 677.999023438 406.999023438 677.999023438 c 0
 336.999023438 677.999023438 279.999023438 647.999023438 235.999023438 587.999023438 c 0
 190.666015625 529.999023438 167.999023438 459.33203125 167.999023438 375.999023438 c 0
 167.999023438 293.999023438 190.666015625 222.999023438 235.999023438 162.999023438 c 0
 279.999023438 102.33203125 334.999023438 71.9990234375 400.999023438 71.9990234375 c 0
 466.999023438 71.9990234375 526.666015625 88.33203125 579.999023438 120.999023438 c 0
 601.999023438 132.999023438 616.666015625 138.999023438 623.999023438 138.999023438 c 0
 631.999023438 138.999023438 639.33203125 135.999023438 645.999023438 129.999023438 c 0
 651.999023438 123.33203125 654.999023438 115.33203125 654.999023438 105.999023438 c 0
 654.999023438 82.666015625 630.999023438 56.9990234375 582.999023438 28.9990234375 c 0
 534.33203125 0.33203125 477.33203125 -14.3349609375 411.999023438 -15.001953125 c 1
 413.999023438 -26.3349609375 423.666015625 -37.66796875 440.999023438 -49.0009765625 c 0
 455.666015625 -58.333984375 472.333007812 -70.6669921875 491 -86 c 0
 507 -99.3330078125 515 -115 515 -133 c 0
EndSplineSet
EndChar

StartChar: d
Encoding: 100 100 69
Width: 651
Flags: W
LayerCount: 2
Fore
SplineSet
368 93 m 0
 412 93 448.666992188 100.666992188 478 116 c 1
 480 148 481 195.666992188 481 259 c 0
 481 313 480.333007812 359.333007812 479 398 c 1
 438.333007812 408 393.333007812 413 344 413 c 0
 294.666992188 413 252.666992188 398 218 368 c 0
 182 338 164 299.333007812 164 252 c 0
 164 205.333007812 182 167.333007812 218 138 c 0
 254 108 304 93 368 93 c 0
578 724 m 2
 570.000976562 390.000976562 l 2
 570.000976562 225.333984375 572.000976562 143.000976562 576.000976562 143.000976562 c 0
 590.66796875 141.000976562 601.66796875 136.000976562 609.000976562 128.000976562 c 0
 616.333984375 119.333984375 620.000976562 108.666992188 620.000976562 96 c 0
 620.000976562 84 610.333984375 71.3330078125 591.000976562 58 c 0
 572.333984375 45.3330078125 548.666992188 35.3330078125 520 28 c 0
 464 14 415.333007812 7 374 7 c 0
 274.666992188 7 198.666992188 30.6669921875 146 78 c 0
 94 124.666992188 68 182.666992188 68 252 c 0
 68 321.333007812 94 379.333007812 146 426 c 0
 198 474 265.333007812 498 348 498 c 0
 408.666992188 498 453 494.333007812 481 487 c 1
 476 724 l 2
 476 740.666992188 480.666992188 754.666992188 490 766 c 0
 498.666992188 776.666992188 510.666992188 782 526 782 c 0
 541.333007812 782 554 776.666992188 564 766 c 0
 573.333007812 754.666992188 578 740.666992188 578 724 c 2
EndSplineSet
EndChar

StartChar: e
Encoding: 101 101 70
Width: 745
Flags: W
LayerCount: 2
Fore
SplineSet
596 553 m 0
 596 583.666992188 583.33203125 612.33203125 557.999023438 638.999023438 c 0
 531.999023438 664.999023438 496.666015625 677.999023438 451.999023438 677.999023438 c 0
 406.666015625 677.999023438 367.333007812 664.666015625 334 637.999023438 c 0
 271.333007812 589.33203125 231 516.999023438 213 420.999023438 c 1
 264.333007812 406.999023438 321.333007812 399.999023438 384 399.999023438 c 0
 448 399.999023438 499.333007812 413.33203125 538 439.999023438 c 0
 576.666992188 466.666015625 596 504.333007812 596 553 c 0
596.999023438 27.998046875 m 0
 550.33203125 -0.6689453125 499.333007812 -15.001953125 444 -15.001953125 c 0
 389.333007812 -15.001953125 341.666015625 -4.6689453125 300.999023438 15.998046875 c 0
 259.666015625 37.3310546875 226.333007812 64.998046875 201 98.998046875 c 0
 147 170.998046875 118 255.331054688 114 351.998046875 c 1
 66 366.665039062 42 390.33203125 42 422.999023438 c 0
 42 436.33203125 46 446.665039062 54 453.998046875 c 0
 61.3330078125 461.998046875 70 465.998046875 80 465.998046875 c 0
 90 465.998046875 104 461.998046875 122 453.998046875 c 1
 143.333007812 543.998046875 182 617.998046875 238 675.998046875 c 0
 295.333007812 735.331054688 365.333007812 764.998046875 448 764.998046875 c 0
 516 764.998046875 573.333007812 744.665039062 620 703.998046875 c 0
 668 662.665039062 692 613.665039062 692 556.998046875 c 0
 692 500.331054688 677.333007812 453.331054688 648 415.998046875 c 0
 592.666992188 348.665039062 506.666992188 314.998046875 390 314.998046875 c 0
 343.333007812 314.998046875 283.666015625 321.665039062 210.999023438 334.998046875 c 1
 216.999023438 262.998046875 240.666015625 201.331054688 281.999023438 149.998046875 c 0
 323.999023438 97.998046875 373.999023438 71.998046875 431.999023438 71.998046875 c 0
 489.999023438 71.998046875 543.666015625 88.3310546875 592.999023438 120.998046875 c 0
 614.999023438 132.998046875 629.999023438 138.998046875 637.999023438 138.998046875 c 0
 645.33203125 138.998046875 651.999023438 135.998046875 657.999023438 129.998046875 c 0
 664.666015625 123.331054688 667.999023438 115.331054688 667.999023438 105.998046875 c 0
 667.999023438 83.3310546875 644.33203125 57.3310546875 596.999023438 27.998046875 c 0
EndSplineSet
EndChar

StartChar: f
Encoding: 102 102 71
Width: 355
Flags: W
HStem: -10 21G<148.97 152.333> 434.599 72.8115<34.2854 108 197.021 335.35> 679 81<224.918 319.511>
VStem: 108 89.0211<-5.01105 434.721 507.286 661.154>
LayerCount: 2
Fore
SplineSet
121.927734375 -0.591796875 m 0
 119.544921875 1.4765625 117.375 3.95377604167 115.41796875 6.83984375 c 0
 107.139322917 16.138671875 103 27.3551432292 103 40.4892578125 c 2
 103.0625 55.7802734375 l 2
 103.104817708 60.8798828125 103.167317708 65.9794921875 103.25 71.0791015625 c 0
 103.292317708 73.6292317708 103.339518229 76.1790364583 103.391601562 78.728515625 c 0
 103.444335937 81.2779947917 103.501953125 83.8277994792 103.564453125 86.3779296875 c 0
 103.627604167 88.9280598958 103.695638021 91.4768880208 103.768554688 94.0244140625 c 0
 103.841471355 96.5732421875 103.919596355 99.122721354 104.002929688 101.672851562 c 0
 107.334309896 204.559570313 109 295.956054688 109 375.862304688 c 2
 109 431.568359375 l 1
 109 434.720703125 l 1
 105.881835938 434.598632812 l 1
 65.1376953125 433 l 2
 62.7867838542 433 60.5315755208 433.088541667 58.3720703125 433.265625 c 0
 56.2132161458 433.443359375 54.1328125 433.711588541 52.130859375 434.0703125 c 0
 50.12890625 434.4296875 48.1995442708 434.881835937 46.3427734375 435.426757812 c 0
 44.9554036458 435.833658854 43.6149088542 436.288736979 42.3212890625 436.791992188 c 0
 41.0276692708 437.295247396 39.7796223958 437.84765625 38.5771484375 438.44921875 c 0
 37.3740234375 439.05078125 36.2171223958 439.702148437 35.1064453125 440.403320312 c 0
 33.9957682292 441.104492187 32.9342447917 441.853841146 31.921875 442.651367188 c 0
 30.5950520833 443.696940104 29.3766276042 444.820638021 28.2666015625 446.022460938 c 0
 27.1565755208 447.224283854 26.1572265625 448.503580729 25.2685546875 449.860351562 c 0
 24.3792317708 451.216471354 23.6044921875 452.645182292 22.9443359375 454.146484375 c 0
 20.9814453125 458.610026042 20 463.89453125 20 470 c 0
 20 483.04296875 24.6276041667 492.9296875 33.8828125 499.66015625 c 0
 42.443359375 505.88671875 52.8626302083 509 65.140625 509 c 2
 104.879882812 507.41015625 l 1
 108 507.286132812 l 1
 108 510.46484375 l 1
 108 583.095703125 l 2
 108 614.1484375 111.263997396 640.872070313 117.791992188 663.266601562 c 0
 121.066080729 674.501627604 125.089192708 684.667317708 129.861328125 693.763671875 c 0
 134.633463542 702.860026042 140.242738381 710.881184896 146.689152644 717.827148438 c 2
 146.737830529 717.877929688 l 1
 146.789550781 717.92578125 l 2
 177.061786358 745.975260417 211.398537661 760 249.799804688 760 c 0
 258.342122396 760 266.470052083 759.604492187 274.18359375 758.813476562 c 0
 281.896484375 758.022460937 289.197265625 756.833984375 296.0859375 755.248046875 c 0
 309.904296875 752.065755208 322.073567708 747.319010417 332.59375 741.0078125 c 0
 356.197916667 726.992838541 368 711.656901041 368 695 c 0
 368 668.333333333 356.333333333 655 333 655 c 0
 331.811848959 655 330.598958334 655.057291667 329.361328125 655.171875 c 0
 328.123046875 655.285807292 326.865885417 655.455729167 325.58984375 655.681640625 c 0
 324.313151042 655.907552083 323.011067709 656.189453125 321.68359375 656.52734375 c 0
 319.642578125 657.047526042 317.592773437 657.66796875 315.534179688 658.388671875 c 0
 313.474934896 659.108723958 311.407552083 659.928385417 309.33203125 660.84765625 c 2
 295.52734375 667.921875 l 1
 285.84765625 672.8046875 l 2
 284.787109375 673.267578125 283.729817709 673.703776042 282.67578125 674.11328125 c 0
 281.622395833 674.5234375 280.573242187 674.906575521 279.528320312 675.262695312 c 0
 278.484049479 675.618815104 277.443359375 675.948567708 276.40625 676.251953125 c 2
 267.11328125 678.3125 l 2
 265.578776042 678.541666667 264.052408855 678.713541667 262.534179688 678.828125 c 0
 261.015299479 678.942708333 259.50390625 679 258 679 c 0
 244.711788862 679 233.542668269 675.189778646 224.492638221 667.569335938 c 0
 215.442608173 659.948893229 208.60167518 648.293619792 203.969839243 632.603515625 c 0
 199.337327224 616.913411458 197.021071214 597.181315104 197.021071214 573.407226562 c 2
 197.021071214 510.287109375 l 1
 197.021071214 507.155273438 l 1
 199.712552584 507.208984375 l 1
 292.923828125 509 l 2
 294.464192708 509 295.970052083 508.951822917 297.44140625 508.85546875 c 0
 298.913411458 508.759114583 300.356445312 508.614257813 301.770507812 508.420898438 c 0
 303.183919271 508.227539063 304.568033854 507.984700521 305.922851562 507.692382812 c 0
 307.278320313 507.400716145 308.606445313 507.059244791 309.907226562 506.66796875 c 0
 315.107747395 505.104166667 319.844726562 502.768229167 324.118164062 499.66015625 c 0
 328.788736979 496.263671875 332.274739584 492.123046875 334.576171875 487.23828125 c 0
 335.343098958 485.610677083 335.980794271 483.881510417 336.489257812 482.05078125 c 0
 336.997721354 480.220052083 337.376627604 478.303710937 337.625976562 476.301757812 c 0
 337.875325521 474.299804687 338 472.19921875 338 470 c 0
 338 468.78125 337.960611979 467.594726563 337.881835938 466.440429688 c 0
 337.803059896 465.286783855 337.684570313 464.165039063 337.526367188 463.075195312 c 0
 337.367513021 461.982096354 337.169270834 460.921223958 336.931640625 459.892578125 c 0
 336.694661458 458.864583334 336.41796875 457.869466146 336.1015625 456.907226562 c 2
 333.6953125 451.44921875 l 1
 330.340820312 446.713867188 l 2
 329.709309896 445.989908855 329.037434896 445.290690105 328.325195312 444.616210938 c 0
 327.612304687 443.941080729 326.859700521 443.291341146 326.067382812 442.666992188 c 0
 322.015950521 439.471679688 317.216145833 437.056966146 311.66796875 435.422851562 c 0
 306.181640625 433.807617187 299.93359375 433 292.923828125 433 c 2
 199.709510216 434.791015625 l 1
 197.021071214 434.844726562 l 1
 197.021071214 431.760742188 l 1
 197.021071214 375.862304688 l 2
 197.021071214 286.108398437 198.152832031 210.110677083 200.416353666 147.869140625 c 0
 201.552170973 116.637369792 202.403019831 92.0930989583 202.96890024 74.236328125 c 0
 203.535456731 56.37890625 203.818734976 45.126953125 203.818734976 40.48046875 c 0
 203.818734976 34.2063802083 202.579815204 28.1705729167 200.101975661 22.373046875 c 0
 197.603853666 16.5279947917 194.218374399 11.4866536458 189.945537861 7.2490234375 c 0
 185.194035457 2.34016927083 182.662447416 -0.235677083333 182.350773738 -0.478515625 c 0
 179.645770733 -2.59765625 176.653094952 -4.36263020833 173.372746394 -5.7734375 c 0
 171.159254807 -6.71549479167 168.848745493 -7.5 166.44121845 -8.126953125 c 0
 164.033691407 -8.75390625 161.540978065 -9.22298177083 158.963078425 -9.5341796875 c 0
 156.384502704 -9.8447265625 153.713979868 -10 150.951509916 -10 c 0
 146.98831881 -10 143.274013421 -9.65787760417 139.80859375 -8.9736328125 c 2
 129.985351562 -5.84375 l 2
 127.002278646 -4.42578125 124.31640625 -2.67513020833 121.927734375 -0.591796875 c 0
EndSplineSet
EndChar

StartChar: g
Encoding: 103 103 72
Width: 558
Flags: W
LayerCount: 2
Fore
SplineSet
429 482 m 1
 429.000976562 633 l 1
 387.66796875 674.333007812 342.334960938 695 293.001953125 695 c 0
 254.334960938 695 213.334960938 671.333007812 170.001953125 624 c 0
 132.001953125 582 116.001953125 537.333007812 122.001953125 490 c 0
 126.001953125 442.666992188 139.001953125 400.666992188 161.001953125 364 c 0
 182.334960938 328.666992188 213.001953125 311 253.001953125 311 c 0
 296.334960938 311 328.66796875 322.666992188 350.000976562 346 c 0
 383.333984375 380 409.666992188 425.333007812 429 482 c 1
427.000976562 714 m 1
 428.333984375 747.333007812 442.666992188 763.999023438 470 763.999023438 c 0
 506.666992188 763.999023438 523.666992188 739.666015625 521 690.999023438 c 0
 515 583.666015625 512 516.999023438 512 490.999023438 c 2
 512 297.999023438 l 2
 512 205.999023438 489 131.666015625 443 74.9990234375 c 0
 396.333007812 18.33203125 332 -10.0009765625 250 -10.0009765625 c 0
 204.666992188 -10.0009765625 161 -1.0009765625 119 16.9990234375 c 0
 77.6669921875 34.9990234375 57 61.9990234375 57 97.9990234375 c 0
 57 115.999023438 65.3330078125 124.999023438 82 124.999023438 c 0
 88 124.999023438 107.333007812 118.33203125 140 104.999023438 c 0
 170 92.33203125 206.666992188 85.9990234375 250 85.9990234375 c 0
 292 85.9990234375 334.666992188 103.666015625 378 138.999023438 c 0
 404.666992188 159.666015625 418 196.666015625 418 249.999023438 c 0
 418 274.666015625 416 299.999023438 412 325.999023438 c 1
 404 312.666015625 383.333007812 292.333007812 350 265 c 0
 318 237 282 223 242 223 c 0
 168.666992188 223 112.666992188 252.333007812 74 311 c 0
 40.6669921875 362.333007812 24 424 24 496 c 0
 24 560 49 620.666992188 99 678 c 0
 149 735.333007812 211.666992188 764 287 764 c 0
 337.666992188 764 384.333984375 747.333007812 427.000976562 714 c 1
EndSplineSet
EndChar

StartChar: h
Encoding: 104 104 73
Width: 768
Flags: W
LayerCount: 2
Fore
SplineSet
553 353 m 1
 381 354.999023438 l 2
 292.333007812 354.999023438 236.333007812 354.666015625 213 353.999023438 c 1
 213 301.33203125 214 239.999023438 216 169.999023438 c 0
 218 101.33203125 219 64.9990234375 219 60.9990234375 c 0
 219 13.666015625 202 -10.0009765625 168 -10.0009765625 c 0
 134 -10.0009765625 117 13.666015625 117 60.9990234375 c 0
 117 64.33203125 118 100.33203125 120 168.999023438 c 0
 122 238.33203125 123 298.999023438 123 350.999023438 c 1
 80.3330078125 350.999023438 59 365.999023438 59 395.999023438 c 0
 59 409.999023438 64.6669921875 421.33203125 76 429.999023438 c 0
 86 437.999023438 101.666992188 441.999023438 123 441.999023438 c 1
 123 494.666015625 122 547.999023438 120 601.999023438 c 0
 118 656.666015625 117 685.666015625 117 688.999023438 c 0
 117 736.33203125 134 759.999023438 168 759.999023438 c 0
 202 759.999023438 219 736.33203125 219 688.999023438 c 0
 219 685.666015625 218 656.333007812 216 601 c 0
 214 545.666992188 213 491.666992188 213 439 c 1
 299.666992188 437.666992188 364.666992188 437 408 437 c 0
 462 437 510.333007812 437.666992188 553 439 c 2
 644 443 l 1
 644 350 l 2
 644 298 645 237.333007812 647 168 c 0
 649 100 650 64.3330078125 650 61 c 0
 650 13.6669921875 633 -10 599 -10 c 0
 565 -10 548 13.6669921875 548 61 c 2
 553 353 l 1
EndSplineSet
EndChar

StartChar: i
Encoding: 105 105 74
Width: 267
Flags: W
LayerCount: 2
Fore
SplineSet
174 742 m 0
 183.333007812 730 188 715.33203125 188 697.999023438 c 0
 188 681.999023438 182.666992188 666.999023438 172 652.999023438 c 0
 160 639.666015625 146 632.999023438 130 632.999023438 c 0
 114 632.999023438 101.333007812 638.666015625 92 649.999023438 c 0
 83.3330078125 660.666015625 79 674.666015625 79 691.999023438 c 0
 79 708.666015625 84.6669921875 724.333007812 96 739 c 0
 107.333007812 753 121 760 137 760 c 0
 153.666992188 760 166 754 174 742 c 0
177 277.999023438 m 1
 185 49.9990234375 l 2
 185 31.33203125 180.666992188 15.33203125 172 1.9990234375 c 0
 162 -9.333984375 149.333007812 -15.0009765625 134 -15.0009765625 c 0
 118.666992188 -15.0009765625 106 -9.333984375 96 1.9990234375 c 0
 87.3330078125 14.666015625 83 30.666015625 83 49.9990234375 c 2
 90 277.999023438 l 1
 89 478.999023438 l 2
 89 496.33203125 93 509.999023438 101 519.999023438 c 0
 109 529.999023438 120 534.999023438 134 534.999023438 c 0
 148 534.999023438 159 529.999023438 167 519.999023438 c 0
 175 509.999023438 179 496.33203125 179 478.999023438 c 2
 177 277.999023438 l 1
EndSplineSet
EndChar

StartChar: j
Encoding: 106 106 75
Width: 593
Flags: HW
LayerCount: 2
Fore
SplineSet
298 412 m 132
 323.333333333 383 336 347.666666667 336 306 c 132
 336 264.333333333 323.333333333 229 298 200 c 132
 272.666666667 171 239.666666667 156.5 199 156.5 c 132
 158.333333333 156.5 125.333333333 170.833333333 100 199.5 c 132
 74.6666666667 228.166666667 62 263.5 62 305.5 c 132
 62 347.5 74.6666666667 383 100 412 c 132
 125.333333333 441 158.333333333 455.5 199 455.5 c 132
 239.666666667 455.5 272.666666667 441 298 412 c 132
258 305.5 m 132
 258 328.833333333 252.833333333 348.166666667 242.5 363.5 c 132
 232.166666667 378.833333333 217.666666667 386.5 199 386.5 c 132
 180.333333333 386.5 165.666666667 378.833333333 155 363.5 c 132
 144.333333333 348.166666667 139 329 139 306 c 132
 139 283 144.333333333 263.833333333 155 248.5 c 132
 165.666666667 233.166666667 180.333333333 225.5 199 225.5 c 132
 217.666666667 225.5 232.166666667 233 242.5 248 c 132
 252.833333333 263 258 282.166666667 258 305.5 c 132
328 750 m 1
 477 756 l 2
 495.666666667 756 510 752 520 744 c 0
 531.333333333 735.333333333 537 724 537 710 c 0
 537 695.333333333 530.666666667 683.666666667 518 675 c 128
 505.333333333 666.333333333 489 662 469 662 c 1
 468.333333333 634.666666667 468 499.666666667 468 257 c 0
 468 209.666666667 461.333333333 167 448 129 c 0
 434 92.3333333333 415.666666667 64 393 44 c 0
 347.666666667 4.66666666667 296.666666667 -15 240 -15 c 0
 182.666666667 -15 136 -3.33333333333 100 20 c 0
 64 42 46 64.3333333333 46 87 c 0
 46 99 49.6666666667 109.333333333 57 118 c 0
 64.3333333333 125.333333333 74 129 86 129 c 0
 97.3333333333 129 109.333333333 124.333333333 122 115 c 0
 136 104.333333333 151.333333333 94.6666666667 168 86 c 0
 188 76.6666666667 211 72 237 72 c 0
 276.333333333 72 309.333333333 88.6666666667 336 122 c 0
 364 154 378 206 378 278 c 2
 375 667 l 1
 333 667 295 666 261 664 c 128
 227 662 203.666666667 661 191 661 c 0
 177 661 165.333333333 665.333333333 156 674 c 0
 144.666666667 681.333333333 139 692.666666667 139 708 c 128
 139 723.333333333 144.666666667 734.666666667 156 742 c 0
 165.333333333 750.666666667 179.666666667 755 199 755 c 2
 328 750 l 1
EndSplineSet
EndChar

